<mxfile host="Electron" modified="2023-07-07T07:07:55.496Z" agent="Mozilla/5.0 (X11; Linux x86_64) AppleWebKit/537.36 (KHTML, like Gecko) draw.io/21.5.1 Chrome/112.0.5615.204 Electron/24.6.0 Safari/537.36" etag="KQR6jY2LCNayeY7x5Rmr" version="21.5.1" type="device">
  <diagram name="Page-1" id="QjayTFsDGtf6YZMqoVRK">
    <mxGraphModel dx="1420" dy="857" grid="1" gridSize="1" guides="1" tooltips="1" connect="1" arrows="1" fold="1" page="1" pageScale="1" pageWidth="1169" pageHeight="827" math="0" shadow="0">
      <root>
        <mxCell id="0" />
        <mxCell id="1" parent="0" />
        <mxCell id="SN0OyLthawe4mrSYnxWe-23" style="edgeStyle=orthogonalEdgeStyle;rounded=0;orthogonalLoop=1;jettySize=auto;html=1;exitX=0;exitY=0.25;exitDx=0;exitDy=0;entryX=0.25;entryY=0;entryDx=0;entryDy=0;strokeColor=#66FFFF;" edge="1" parent="1" source="SN0OyLthawe4mrSYnxWe-2" target="SN0OyLthawe4mrSYnxWe-4">
          <mxGeometry relative="1" as="geometry" />
        </mxCell>
        <mxCell id="SN0OyLthawe4mrSYnxWe-26" style="edgeStyle=orthogonalEdgeStyle;rounded=0;orthogonalLoop=1;jettySize=auto;html=1;exitX=0.25;exitY=1;exitDx=0;exitDy=0;entryX=0.75;entryY=0;entryDx=0;entryDy=0;" edge="1" parent="1" source="SN0OyLthawe4mrSYnxWe-2" target="SN0OyLthawe4mrSYnxWe-4">
          <mxGeometry relative="1" as="geometry" />
        </mxCell>
        <mxCell id="SN0OyLthawe4mrSYnxWe-2" value="&lt;b&gt;&lt;font color=&quot;#000000&quot; style=&quot;font-size: 16px;&quot;&gt;Client&lt;/font&gt;&lt;/b&gt;" style="rounded=1;whiteSpace=wrap;html=1;fillColor=#dae8fc;strokeColor=#6c8ebf;" vertex="1" parent="1">
          <mxGeometry x="520" y="127" width="120" height="60" as="geometry" />
        </mxCell>
        <mxCell id="SN0OyLthawe4mrSYnxWe-29" style="edgeStyle=orthogonalEdgeStyle;rounded=0;orthogonalLoop=1;jettySize=auto;html=1;exitX=1;exitY=0.5;exitDx=0;exitDy=0;exitPerimeter=0;entryX=0.5;entryY=1;entryDx=0;entryDy=0;" edge="1" parent="1" source="SN0OyLthawe4mrSYnxWe-3" target="SN0OyLthawe4mrSYnxWe-5">
          <mxGeometry relative="1" as="geometry" />
        </mxCell>
        <mxCell id="SN0OyLthawe4mrSYnxWe-3" value="&lt;font style=&quot;font-size: 16px;&quot; color=&quot;#000000&quot;&gt;&lt;b&gt;Database&lt;/b&gt;&lt;/font&gt;" style="shape=cylinder3;whiteSpace=wrap;html=1;boundedLbl=1;backgroundOutline=1;size=15;fillColor=#f8cecc;strokeColor=#b85450;" vertex="1" parent="1">
          <mxGeometry x="536" y="588" width="97" height="132" as="geometry" />
        </mxCell>
        <mxCell id="SN0OyLthawe4mrSYnxWe-24" style="edgeStyle=orthogonalEdgeStyle;rounded=0;orthogonalLoop=1;jettySize=auto;html=1;exitX=0.5;exitY=0;exitDx=0;exitDy=0;entryX=0;entryY=0.5;entryDx=0;entryDy=0;strokeColor=#66FFFF;" edge="1" parent="1" source="SN0OyLthawe4mrSYnxWe-4" target="SN0OyLthawe4mrSYnxWe-2">
          <mxGeometry relative="1" as="geometry" />
        </mxCell>
        <mxCell id="SN0OyLthawe4mrSYnxWe-27" style="edgeStyle=orthogonalEdgeStyle;rounded=0;orthogonalLoop=1;jettySize=auto;html=1;exitX=0.5;exitY=1;exitDx=0;exitDy=0;" edge="1" parent="1" source="SN0OyLthawe4mrSYnxWe-4" target="SN0OyLthawe4mrSYnxWe-13">
          <mxGeometry relative="1" as="geometry" />
        </mxCell>
        <mxCell id="SN0OyLthawe4mrSYnxWe-4" value="&lt;b&gt;&lt;font color=&quot;#000000&quot; style=&quot;font-size: 16px;&quot;&gt;Flask Backend&lt;/font&gt;&lt;/b&gt;" style="rounded=1;whiteSpace=wrap;html=1;fillColor=#d5e8d4;strokeColor=#82b366;" vertex="1" parent="1">
          <mxGeometry x="187" y="268" width="120" height="60" as="geometry" />
        </mxCell>
        <mxCell id="SN0OyLthawe4mrSYnxWe-25" style="edgeStyle=orthogonalEdgeStyle;rounded=0;orthogonalLoop=1;jettySize=auto;html=1;exitX=0.5;exitY=0;exitDx=0;exitDy=0;entryX=1;entryY=0.5;entryDx=0;entryDy=0;" edge="1" parent="1" source="SN0OyLthawe4mrSYnxWe-5" target="SN0OyLthawe4mrSYnxWe-2">
          <mxGeometry relative="1" as="geometry" />
        </mxCell>
        <mxCell id="SN0OyLthawe4mrSYnxWe-5" value="&lt;font color=&quot;#000000&quot; style=&quot;font-size: 16px;&quot;&gt;&lt;b&gt;Nodejs Backend&lt;/b&gt;&lt;/font&gt;" style="rounded=1;whiteSpace=wrap;html=1;fillColor=#ffe6cc;strokeColor=#d79b00;" vertex="1" parent="1">
          <mxGeometry x="843" y="268" width="120" height="60" as="geometry" />
        </mxCell>
        <mxCell id="SN0OyLthawe4mrSYnxWe-8" value="Text Predict Request" style="text;html=1;strokeColor=none;fillColor=none;align=center;verticalAlign=middle;whiteSpace=wrap;rounded=0;rotation=0;" vertex="1" parent="1">
          <mxGeometry x="267" y="110" width="139" height="30" as="geometry" />
        </mxCell>
        <mxCell id="SN0OyLthawe4mrSYnxWe-9" value="Predicted Label Response" style="text;html=1;strokeColor=none;fillColor=none;align=center;verticalAlign=middle;whiteSpace=wrap;rounded=0;rotation=0;" vertex="1" parent="1">
          <mxGeometry x="271" y="159" width="156" height="30" as="geometry" />
        </mxCell>
        <mxCell id="SN0OyLthawe4mrSYnxWe-11" value="Streaming Request" style="text;html=1;strokeColor=none;fillColor=none;align=center;verticalAlign=middle;whiteSpace=wrap;rounded=0;rotation=0;" vertex="1" parent="1">
          <mxGeometry x="357" y="229" width="123" height="30" as="geometry" />
        </mxCell>
        <mxCell id="SN0OyLthawe4mrSYnxWe-28" style="edgeStyle=orthogonalEdgeStyle;rounded=0;orthogonalLoop=1;jettySize=auto;html=1;exitX=0.5;exitY=1;exitDx=0;exitDy=0;entryX=0;entryY=0.5;entryDx=0;entryDy=0;entryPerimeter=0;" edge="1" parent="1" source="SN0OyLthawe4mrSYnxWe-13" target="SN0OyLthawe4mrSYnxWe-3">
          <mxGeometry relative="1" as="geometry" />
        </mxCell>
        <mxCell id="SN0OyLthawe4mrSYnxWe-13" value="" style="shape=image;aspect=fixed;image=data:image/png,iVBORw0KGgoAAAANSUhEUgAAA8AAAAH5CAYAAABOPFfXAAAACXBIWXMAAA7EAAAOxAGVKw4bAAAgAElEQVR4nOy9fcx12VUf9nuvXybDMEwmg3ENOGZkHItYxnFs6vDhEJdElASKIpoQ1CQIpWlKUKTQNKqqqKqEqoo/ogq1JI1Q1ZI2oVXUSgRIRFEwiAQI4RvzYQIuGBuMcexh8NjDMH59n/6xn8O7n/X81tfe+5x77n32kq7uOXuv31prr/07++Oc+3EPt+UA4EjKR9TXdVIviqvLIOzJc82+53s5Z++L1OdaXU8eLbHa0mt7TYnE1RJ7FBPJlWbLw3p9YtmTPPP8RsWyNyJez4cXT097W7CRPLdcty0xHwy9yNiSwcqcRyQz3vXGLO0sIsfdTNsjMfditbmhrofht6c+4nskh3qwk3+Tf3vkn9QFYn6tNWcLVurWsVrttdadEazmJ8uL1mtzLTvReCPjkpfTSP9M/nGs5mcz/t0jxmUDLJEBy6ClHW1CaS2zYtDIp53L47oN0k90orLyZ8XNdL2+sPy0YKOx9MQW9e3Fwvpb4520EymzeK75YHzy8hmNj0kkZqm/1K+ZPw8LosuOtVi9/ETHMWv8iOYlk7/ohMvqRkiPLQ0biTkyOfZI1r43vmv2PTuRGKN218xXxt/kXzy2yb82OSX/1mhjhqunEmsNq+lqa9212pThxdrXtnceiWfy76GcjH+HwDGrs+qPVTAwjiMx1SKT5GG1GK0ESfuRDWAdn4eV+pF8RGwtcUWwrP+iPqObMYbL6EofkVxaei0xM2EXHDuXbWB9bXHVK2eixaNdB1n+ebFo15fEWvzzxorIZtc618qtvmOxaPgM/yKbcqlrjX+WPS2XrN7jhZab6IQaGYe9/Gc4kMV7WMtvZgy26kf3F7uuJv/yPrRzZr8V72Etv5N/egzyPGu/1s2sabVcj+Rfdo2d4a/WXz1rk4i+5i+zaTxC56c3V1vXAOtDL6eyjyb/uGzKP/YEuHZQd1Skk2RHMyw7jvr1YtCwVoxMvNgyWNbmnjIvHoaNxhKx2+tjdA6s8ohetE/RiM34bY3vlH41LAL4NfyeC9abgKxxdy2stKNhmR2tPtJey44Ww5pYZiuDzdTBqW+pk/VW2yJYYPJP87sGltma/BuL1daSo7Br+JGyV+xWfbuHto7CTv6diH8HAYhOFBFhtjxfB0NvZGynlp62jMrDHmIYKZIzmRhHXQOj8+JdQ1ls1obEZPOa8afpZMs9nRH58/R78qRxMWKzB8vssD6PxtDCFy3mlra3xNxSl8VG27RlTBp28u/2cRYr6zxstm7yT9e3sNH+YnUjsSymCHcPyjvzw7BWzJZY10Urdu2xJYuN5pTZZe+Tf7exJ+ffAfpuOhqc1mhmu7avyVJfY4+iTiNdlmDZwbIlJ0yWNlkXn5ejiB/Ndx2Dp6PVe1itzrKZGcSYyJgk1yK8i4rXlowdC1fHVV+jmh2v7yy7ETkS/9YEYpVLnYhdTT/DH427UdH8ZPgnx8qIv/q6ly8tvihntHhYf8uxy8q97CMWX2SylG3X7DG/zL+V/5ZxyOoPqaONNV5/RsdWre2Tfzy+yT8el/R3Kfzz8u3NS9r6S2tfi9S8t/jGYqj5WpdJvLUGlTZZfJpOaz9r+h7v5LF1HbAcMP+snPFPi0HiJv92zD9rwNMmGvZuDapmAAHRiK7ZjU4q3gAajSmrE4k54ys7WLCyUf0jy7JtHYVl5a3YHt3RelFMy8TRKj3YEXYyA35vrKP55036Wll0ovf8spfWDmsu0GxH/Vq+NKylK+s029bCoaW9PXmRuAw3NL+RPE/+2b40rKUr6zTbk3/b80/Lf7TOOrb8ynoLrx1b+Yryz8MwXY+nkVgYVupG/UT9RttnxRPxy/BRfmbrrGMtZlZv4bXji+HfoqDdYbXuPBxFmXXH06rTyq3O02KwGq7dNWF3mC2fzKalw+rq2L2yaDzZp2eZHMkyFl/0qbQ3GESwXlut/mzBelxskag9Ty/7NNO6Jq27lBl70Xz15DTT5y32LL0R/NMmVWY38kkGbULW7nBH2suetDG/LAbpP+JXjv0RPmYXCVZ7vHMWozePRXW9yZuVW2W1XWtMm/y7bWvy7/L5F/kEW2Q9JmP0+GeJ54eVs6f5Wh/JnLO8erypsVqsnl9Nl+GYjhaL5lf79AbLG+ORNt9rTzk9Dk3+cezm/NOc1++MXHWyrQEz+uhe6ixYL0GyzNsQRzsq0qnaxSlzcxR1aCxjYm1ivA1OVK8H29Neq8zyuYh3sWewUb+RQcay2bOJi/rtsZnxkb0hk4ljDezaHIpg2fio9YG8ceeNl7LOu9bYmKbhojFL8drO7B5xu+0Rv17btbmuPo76rXUtv2zukjExrBWTx6EIDyb/dLuTf3ZM58I/acvqO8a/gziW59q6mfllHGNxLJi6rRo/rXVxK1bWy/bKPGl+a5+sD7SxQfMD2H4zPGDYus7Cypi9cWjyL4ddg39UDuQF8a6VyXKpI/EsGM2P9GHFwvwwnNVGFp+XA62O2bL8aXqyXmtjBKuVRbFRvy1lTKJ6Hl47XxMbwbe2y8JGbEawWfs92Kz9vWGjNrVxTNZb17nUk7aiY6ZmR7PrYaVEx2Jmg7XHs5uZA6IxbYlFsD6CbclFXT/5N/nXg90b/xjGqmvhXwarlbE2ROxEsZYw3CmwQB4L3G5/j99Iji3/EaxnV9qX2Mm/MdgbBlqkFdeLtWxZ7Yl0ZrTe0vEIxOKN6EXisrCab1aXjY/VWbG2XKBRe5m6Vulp21LecqFndHuvg1PmzaqL6GVij9rryVWrnch1bNnQJsfo5JaJQRvXtIl6Db+ynPlnOr1+vZyzOqsPWq8FjV+Tf5N/suwu8Y/FIcutuD0bVj9G2+TFE7En9aK+LL8eXuIse1IvyouIXytGi0cj+WL5bbE3+efjJY7aixAtGnAkuIgt60KIDrJSr34cLnHWxymsOKVPVif9sI9PsY9/ZfRkGRMLq/lmddn4WJ0Va8Qvi0PjUdQXw7aIFov058Xl9ecaupH4vJxaYuXUiyvSv5GYteublUX6sod/ms0F601ozKf8+FB0QmVx1vEfxEsTNnZr+dF8ehOnhmN4LR7LhoxP8xuZxzxuHIie5IFlQ+tn7WNkVryTf5N/td+IjXPmn8aR+p3FpMXF3iO2WUzsI6iRPra4W+trHyOVdi2/Hs81fsqcS19aPMy+dt1pvqIxMBssFuva0LCTf/vi363EssCZY9YhLFhLtCCzwuK3SOFhozFZF4vXEZatCMk9sS7MFsnmoi7zYunBajpRGYnN2Nq6f7b2G7G5l37rxbbas8ZT4PY1YI1xvVh5bGE9O6P9RuYdb/K1sBIT1d0Cq9Wzcw9r2Zr8s2Of/PNtnRP/mB1NL8u5EVipq9VpdjPYaAytfRnhXxTbE/NavPb4l/XLbFhxrYG9E/y7JwrlnZj6XRNWz+4iasL8yrrFfvSJimfTs8XaH4mjrq9zouWVxae1IxJnaxnA26vFwNrGYtawWllLO1r8jCqTovEjgrX8SptbtXcrvz2cOUUZ0J8XbUy1xluN+xFh45eH1cb2qM+MaOOS9GvNN3JcytjwMJ5E+k0ry+bUw7L5J+pr8m/yL+PrHPkXiSMa09aYKHda+Gf567nuenIxwu/o9rZcv5N/O+SfDNhyeiQ6R+WY2ZfnbCFZ+9NiW+pYgzz7mj1NWJssrJafiLDYtXrLb0+9lStt0o9Itj2eRHxn4vOwWqwsJ1G/2QWHda6V9UrEryYZvvTyd2vsmvyTC7yaU/WYrI2BHnY5jkx07Jxt7JlfFoMlS0zanGNNgjXWionNLay+xmrttbCRusWuh2Ui+9Kqz9Sx+sm/m34n/86ff56uh7V0l/PIujnrZ9GJYEHOD0I3cs1o63ELK8XaZ2hYbx8QucZbsNJvpm+tNc/k3w75Z226MpOGVmYNsJr9I6mPbBa0gdVrF4tfG9ytTpHnPRs8S7zNZCQHrbbXkijXImVr+Pb4MMqvtWjIirVg64nF04ss2Nbwm8FG7dWyJv+O5DjipxV7BMd6E7q0Yfld6tjY5PllWM1vhgcalpUfRB2IDrPPJuNoriwsi0XzwfQjfif/dKzmd/Ivpr83/rHzyI2AKDbCqSyWcSayafGwrH1yDe/5hXLOsJquhbV0o7iRWC3+Huzk34n4pyXe2tx6dZF6byPJdDS7bPNpxSDr5XG2PVrcp5JT+9+TZHJxDnkbHWPP5m5tbHRsykj0htoo8drgjXPejTZr/LHa0eLXG28tv1qcHg+8OKxxXfOv4SI2NR3Nt+eX2bXi1+qs/EbikmWa38m/yT8Nm/VnYTW/o/iXrfe4pfVnxF5UT+p7fdbqN5LDCO+j+WM2PXtRX1Z7Laym412bUXteXcR2XTf5F/cL4OZ3gCXI2mmzMla+OLLuuiyYFiyzwTCWLeY3GkcEe8Tt+Gp7TCdyR+ggjln7GZ7VMb8yXunXsqtha79avC1+tVxo/ajlResDzy6rt2KydGW8zAaEvsUZy6/Eau2R9mo/EWzk+o7ELfWyfSn9WvyL+h3FPy12Vuedt2CXMijl3gQXxZ7Kb9Qes98yLmWxPX3p+dX4esqYJ/9iMvm3TcyLDhr8ZrCW77Wwa3BIa28E2+OXYT0erMW/kdhFBwHs5N8g/mkb4MWwbATIOcNA0T0ox1G/Xgwa1oqRiRdbBsva3FPmxcOw0Vgidnt9jM6BVR7Ri/YpGrEZv63xndKvhkUAv4bfc8FGBu7lGOJ8Lay0o2GjEx6zE/F7irZbi4wsNlMHp76lTtZHFlAWFpj80/yugWW2Jv/GYrW15CjsGn6k7BW7Vd/uoa2jsJN/J+CfpngQ77J8OZbnsvxI6hGok/WaeAmK6I4UzwdbOGt1skzDMp+HgD1Nz2uD55f5yy5CGDYjo/t6NJ9a8uDhW64hb6CwdDNcH9kfW+V9bT9H2P3D6q3xQOpnsJawOKLXftaPdu7ZyeYxgs32Ycs4FRWtbyM+2eaD2fR8Sn+Tf7H6yb/98Q+I5ZetY70FdtSmlAhHNJ1IHrNYb21a27ZEW4dGuSP1Geeta19ujrLYWsdbv7diNZn88/1288/a7B5EvTyX796xtM3w3sY6svHW9Kw2Rfx49rT2RoS1abREN05ryVqbCotfdX2k/Vr/jcZGZQtsa3tHlEU21qPKMjzowUb4J8ePyDjr6UXGaC1ubzwegfXyoJ1LXeZDi4PZ9GxZ8Uis1V4Zv+XL8h2NWdOL+mXtnfy7rct8aHEwm56tyb/1+RfJUwYbsZXVZVjNDos1wgMtJo9/mt9Wrkb51xK/hY340fSYfeY7Ymvyz65bi39U1AongIgdL2lRH5mO0WKxyrXYLDteXSSvGlEi7coMEJYd5jvql+E1ieRM8xvpc6nvHVt47zwSqzfQrjlIZ2OI5EezZeXEilGzE/HrYTQ/ER57flr5p720eKK5jvJIi0nzH42F6XntjcZi2YOos+KLlHl507CRfmP1mfbKuDI8s+om/yb/tFguhX+WTYtzlng47zqw3jW8pqude2WajUg8mm+Pj+zcii2aZ4uPmn3t+vI4ZsWXOZ/84zbW5l+IDCrYce750eotQmaxWnyWLXYe7VTNz5R1JNKnvfb2jt3Cx56wUXtR7BY+NJ2WcTCKleWR+haspqfVt2Jh1Hl507BaeyysNz9a75HjSIxe+6w2aXYjMU7++djJv33zj8Xn5SCCjdrwsHW9hfXsRurhHEdsWz4z+r1YK2arfRo2yhOvzmqXhZ38W5F/rMHAw89IH8SxFmR9zj6vriW2/py8xFvf59B8y/g1sdpR+2NtYr6sc+bX829hPXtRsbCePasdLdgev8C633+ask/p6XPteyEj7XkSuWbZ+BPVbxkTpJ1FRlxfo8aoqB32HS8NGxm7WE7kHMbqIfRknVcv66Qvr57pMx0mk3+3sZN/l8u/eq3bitXEagvDykW7pWeVWVgZm7cfYGLxj71Lnx42s5ZnNmodbRPFsPK7w9H1KuNQZsyY/IvFV9fVNmS5yb8lUOlAJutAdDIbvyNu+5G2vA6UWAvPNtQaASJfpLawUkfDajhGeG+TKC9MKw5JZNkWOdnVdQx7APdbtyfiV8Yo69gAog2i0YVDdiKWOtq7JRms1z6PF5Z/SzIDrhykMos6DRuNnQ3KmkQWYVHR2tDDP+D2tefFZfGDTToaVvOrzQO1PQ3L5giGrcs9rBZ/hAcZv0xP1nubBubfwnoS9cv6Q2LlPG5hIzHVsTC/k3+Tf3XdHvlX2/ByE+lLWZ/hroZluapfUsfz62GlLDmVuCyWxePhLb/WNcf8RtfpHhdHYSf/OFbK6vyzkuEN8JZjGUR9bnW2NrGwBFhYFo82CGu2oOhp7dEGX2uC08qPpLwus2yycw1r+dOwlm7Gr5eXSBu9i8CyE7EhdbT3iP8IVuNOBBvlVqtOrZvhtNTN9IHFKU88fkqxxjmtDb38k4tFLWZtLI5eXxKr+WULWCkatp6otBi1RVAG641DUjwsmw8YVvMVncyZbc1PlIusTs5Pk3836+vyyT/u5y7wj8Ws5VK2ScOy9WCEfwxr9Q/Ls1bn+ZUxeljp0+KftWGshfWVhbU4ZcUsrz2tTmIPTr3Hv2h/Tf5tzD/WYNnZrHMtYQ1gjWCbSc+vRnxvEvHEs2VNdho20yGasEE7ayODyfrz7Eax1o2LEWK1pSU3rf69sihnRsc82scI7Jo8ZxId43risq4vNk4exLE1/sm4tA2HtM0mJxmThbUWGwehq02alo8oNmqbxaT1S421FmWReotf0o8lmXrWB1Jv8m/y7y7yT4tX46bnV+NAhH9MtPg1bmo8YVhZz/pA8k/6jYi1lmdcqI+tdbRmZzm3rjdWXp+z9mr7GGuc0toHQ2/y7wT80wYPj6DUGDmWDWL1Vh0Ty44Wp0Uqr63aIB2JOdtpvZL15/Vtq91REvE7MjaLc1OmMGnlhjW+eGOyZkM7tnxYi4QsltVn/Wr+14rZwnp+R7S3xS9EedZHNGbpR8rk3+TfufFPs+HVR/LDcpOJM4uN5iXjV7PB/EbybvVzFpuJOcohWR/Ftvid/NsR/w64fdcBsJ+8esKeJNfH9V0AuUNndyFlQ7WEabv8SPIyd3tY/DIGaXtLyfrT7oxG7VoDyggZmT9v8LH8sfKetkdiGYG1Bpis32gsPdhsDrzJYy2/LSJjZeOuxT/vSVKtq/GajbHRpz+1b63Mu340v17M0r60p8XuPfmKlEWwmb70/LL2RuOzxqnJv8m/iN9L5x9b37FjqWeJtoa1nmRq/GNYa53iYTWReZPnnlhPFL11pYe1rueoX6nDnlRGeWD5tfhX733qusm/HfBP6wQNZBpTytgClQUnN41HcSwTak2ozI7ELC8Zk3axyGMNyzpVHm+xaPfsZrFazJEJMtpeTy+6yIjmNCNr2JQSvfij1yArzwwwrbJF/iMDrCaZ/LXYi7SfTSDWhKfVsfEzeu3UftnkqQkb/zys1JVjpTxm78DNPFkLB2/xH1kYyIlftsFacLC4JUb6zMxlEscWVsx2XVYfT/5N/t01/jG7VgxLvcY1hj2IOhavtMuw0oeF9WJgdey85p+GteZNre3MrxaD5HWEI9paoa5juWZ+JV4Ti38ZXk/+PZRN+BdJuEaMbKdqjYlOOBGsjIPFxfxFOsZ6efY0u1O2k57c7wkbtbenmPeE3UNOtTGCjSEtk6TERsamqN/IuL+GX4DbiPqNYqN+NTsZuy1YDSd1vFxM/uX8AtzG5N/tWOr6vfFPtoP5lmV3Fev1k1am5T2K1fxn2haJYYucRuv3zINTYbfin0kidi71rQHJkpG4nrIev1Gcl0trkI8ca/GNam/Wzsg8R3MkB0/NrmVfw0ZkdP4tOxlfWf5Z5y3Xfk9ewoNYwq+H166/NfhncU871/rOitl6z/Z9Zi7QsFp7JVbT965ZK1arryLXSVR/hN/63MNGczH5N/l3V/mn+bViieQii8201/KTsethZbweFqQ865fZjMTI2mrFGI0hm3PNr5YneT75dzr+UYeaYjRxWr1nlwUdTUZGz4ovgmX6GlaKVj7lNGL1hzV4edgWvahYsXi+MjGvzdVTXQsRv1vEpo2Fsk7GY43LTNfjuOfHi5nFoNmLts+yE9FnutG5w/NnlVlYre2WrqcvsRanNP1IjJN/MbtMJv9s/UiMo/nH/DCfkX5lMTGdHr8915jm18JmuCL1vH6xri8tp1Z+mT8Lo8XPbHgxZuLTbE3+xfWZjtRL888KyhqIIkF5frR6jdgtWC0+yxY7j5Dbu+imjJdIn/ba2zt2Cx97wkbtRbFb+NB0WsbB7GTsYaN1Wr2mp9W3YmHUeXnTsFp7LKw3P1rvkeNIjF77rDZpdiMxTv752Mm/ffOPxeflIIKN2vCwdb2F9exG6uEcR2xbPjP6vVgrZqt9GjbKE6/OapeFnfxbkX/LAfvBJ/mDUajOreA0Xa1eJpz9OIT14w1azFoMzKcW40GcZ7AsRus8gsnojrCf8b+maBfHIpEvwi/HLXmKxBDFRupb+sUrs3yMyEsLVzyflk3W5z18zXCoB2tNTlZs2jhZ2z0o+gfY45Icv2VM1o9jaLryR3FkDFZOLSyb0Lx5hsXO/GaukSVG1iarXBPtB5gsG3K+yy4WMrFN/t30Ofl3mfzLxMawkR9SY+dWexjWq2tZh7K+837cSPvhNLZe17hvXROWDuvnaK5YWy3RxgjLb12X4dDk38PzLfjndn6tY+lqA5320nDegOldPJYfK0ap52E1okTyGZGonR5/W/hY27Z3ca/le+9YprcVp1rxe89pBJvJcWRMsiZwr48jk5gWszepWz6s2KJt82KJ5sVqm4bV4vP6S7Mb9cv0sjywYrCwk386dvLvcvjncYPZ8XxaMTD7Fr+i/GO6Ua4xiV63td/o9a350XS9NkWxlm+Wu0gOMn6jWMu/rJ/8G8s/Fag5Y3qZzgkHo+hpviIDrxdjDwEjg/Yll0UGkGzue+x5PrKYiR2PHdWXl4zt4f1a1+DWWEtG+42Kho3En/Xr+YrK5F8b1pLJv7jsmX/R9QvD92C1+EZh2bmFlfWZ9rbYjPiw7GfjtmLT4tsTdvJvLP9MQlqOmFi6ni3N7wF9WC0+yxY799pj6U5ZTyJ92mtv79gtfOwJG7UXxW7hQ9NpGQejWFkeqW/BanpafSsWRp2XNw2rtcfCevOj9R45jsTotc9qk2Y3EuPkn4+d/Ns3/1h8Xg4i2KgND1vXW1jPbqQeznHEtuUzo9+LtWK22qdhozzx6qx2WdjJv3X5R4OpRUsmC9bCSV/RhFmdJcs0Pxre68zIhRGJRcZ1Khnt+5Rt2aNcUj48Hp9aemI7FVazZY1Dmm8PO7KMiYeN2tXqI76jMTP91rxE5g8tFg0b9W9xwrPX6o/pR7Ajy5hM/k3+tZZZ8UZ4oHFDy7cVRwQrdbwYvbZ5/WLFthbW0/PyF/UbwVnXiOZD4iNlHnbyj/sbjo0akwajTi1MtEEZMkbbwnStC8cjY88FG4ltLWy0fXuVlhh7BtQRcazVt6P6a8t+b2nPaK5mJoYRftkka41ha49TrI7Zt8Zpy67mK1LnxRBpryZazNKPlydr7M/0h1av+cn6lXYm//w6L4bJv7hfaecU/PPKo1xlOC+vlh+J0/o8YjdiT9OV5ZHcRfiSEY/7XnmG0xpei8fDtWCtOCf/dD+RY5d/3mDqEScSVMSW5tcbLD2sFp9li51HiB0l65RxkpnwWu3tHbuFjz1ho/ai2C18aDot42AUK8sj9S1YTU+rb8XCqPPypmG19lhYb3603iPHkRi99llt0uxGYpz887GTf/vmH4vPy0EEG7XhYet6C+vZjdTDOY7Ytnxm9HuxVsxW+zRslCdendUuCzv5ty7/bjmsxSMCe2c2rGPNvoeNdpTnx0uu927F4bWDSZQYa2Bb67bAetzItC+D7fHrXSOR9u0Nq9kZic325RZY79pq4Z83OEfi8bCRMcrDsjis8VTDRv16dqMxWDFF26vpSbFyxeJnbbXqNKzWhgh28m/yj2EvnX8sDmaT6VpY653F0oOV5RY3pM3I9aVhrXi86zSKzeYhymXPVkvfMaw3ljDbGtbyZcU8+ZfDqgZaxBuArM636pk9K4mRhMmX1QZ2btmVMWTlVNg9+LHsjvQZsTWiLyN+t+jvU/ldC7sVz9cQNk5Y42F0kvEw1lgbjUnznfFrjeme/azf2k+LXy8eK/fMjlbXg9XqLV+Tf5N/d5F/VjxW/1i+LazmK+pH2pc2Pb/ytaZfxnePT5HxwMNqcXvXbjbmDA+ifhl28m9l/t0ThfJPh4/Ge1QWZxLL7ERts1iBfFz1n1lbbbds1FjWvmy+WIzZukh9r/89SZQPrfxaoywqo7Gjyix+b+GDyYhxIRNf1q9s26LDJjU5NsnxKioaltnSYhuFteL39LLYUX41ifZjFFufR/BZHmjYyb/bdZN/Pv7c+ReJr6cvLXtRbLR+C7/Za6IXa+lt4Tdqz7M9+bdj/i2FspKdRxeRB3F8FFgvKXVM8ljDygFcYpn9o3hnwuxaYk3MLRKJrbW+1/+eRYt7dF9E7bVcO1lsj9+WtlnXzyi/lp1IrjS8Ne54EmlbhH8s1nqsPJBjbWyRWObLmoBqP3Ksj2IBPvZrdmqsrJPzhpxMI1g2V2hYljeWT5krKfKa0N4t/kVtSJ8sRuB2exmOYSf/Jv+sd+mTxQjcbi/DMewp+Cf9MtE4xOqknwzW4likzlora30o7dZYtpZnNupjuW7OYBfJYq2YNV6y81pf44SWK+ZLk8m/0/OPbhLloB6p02zLDawMztOJxhCJi2G1c23zHLW9FzlVTCP8rh37HvtrlPRs9LK6U/LCxotIn2njjDU+RfuSjX8tPNDaZo2d7Fgr88bmaA56/XrlXl1EP5q3SJ0190UwVjyTf5N/Xt1e+BdZw7E1qYft8StjiOY2E6NlxzuyBwQAACAASURBVML1XosZHS8XI9uWGQ+iOYjwdfKP623Kv3uikt19YXcJ5J3LupxhDwIjA2J3DCwss8V297LOitk61+qkWPmoY/LyPCUnPTndEzYq59i2ieW4WrSxxxqToJRpd2EtLHuP+tXGd82WFXuk3ppPNGxkHsn6jWK9PvCwIP60+AC9DzLYyb+43wh28m8//LNiiXBpBFYTqy1WmYfNxpbJs4e12h3BQolFlkdzFcFabevBTv7thH91YExkuRwI6+PagZfg2taRlMn4ZN3B0WV+IuVsoPWwsh0RckXK9iKRvmyxcXDqMxLNn3bBtgjjYEYYNpqHKHaLvOwJG5WIX83+gdT1tleOn4A9ntbjU41lYyqTGrfYYxMJGwejWNam2kZ9XM8hTEdrk/THdLXrVJtcZfu0ecqab7TYWV8x39p4GcXKPkACC6EPTP5pbZr849hz4B9bf8g4tL7V1i5ZrIxJctrivYWthdmS2FpXlmt+5bm2VmdcZvi6nMWs2bewkbgtrNaX8pxh67hZX07+3Y5vc/7VP4J1KRLdmGib6DXK2ER3IMdSB6SOTSTagjxyU8BazHuLhx5srWOROepXm6C1BVIUK/UsbB2nhbX6NuM3W9bjlw3+EX7X2AXf0x8ZrIxlK2wk5sgYJW206EWxPX7XstHTnhGxTyky+Ze3N/k3Tu4q/1rttcwxGfvnKq1ti+bzFH29hY2svbPhn7UBrgNpGYDYYpotoqWuxEi8tkj37iRoMVn2WYzWhtXaENYxXOoAcyrJTHxe/q2Ld02sJXvBZmz1YD1bGXtbLJ5a+MfGHoCPLVDqrXE1Mi6yMT4y/tX6Hta6WZDFspiiN3kiWC2+jO0INto2DavFYHHEq5/887Espsk/H7tH/jG7mh1rzTcCy2K2MIt4a2KJjfCexadh6/gtLItZYi0fEPqZ/tD8RLDRMUGb52vM2hya/NOxLObfw2oBSFB9fCDlTE/WRXGeHamrYSxbEivjs2xGYtbyysojfaDJOWG1/u+Jxcq15yOD7fEbxUavxa2w2bEhg1sDG8WcigdWe60xxOsfbfzKYFkMFiaLzfiNjLWRtnvn1jjf4hdC38Na+ho26isSI4iuZofJ5N/kn6YfiRFEV7PDpJV/kb737EaxEb9RuwfoMUW43MrdtbA97W3FQuhanNHauhZWxjj5tw3/mjuIiaXr2fI6qBWrxWfZYudeeyzdKetJpE977e0du4WPPWGj9qLYLXxoOi3jYBQryyP1LVhNT6tvxcKo8/KmYbX2WFhvfrTeI8eRGL32WW3S7EZinPzzsZN/++Yfi8/LQQQbteFh63oL69mN1MM5jti2fGb0e7FWzFb7NGyUJ16d1S4LO/m3Lv/cYNi5JZYdy5alq71bflt0o3FYktGN2hplrzeGc7Cblb3EcUlyjjndy/VlxREdoyNjXiQmbZLPSBSrTaxRbGb+6slFxk5mnmmZF736yPw7+afrTf5dLv8ifjw9T6L4TO41nTU45dnK6mZsZfR6+2gENprz5Xjybwf8Y98BPoB/pl3TyepnfWXt9pT1+LCwdeIj32HyPr/P7Fidr8VQx2npZ/xmY/HqIt8R8r6HpeUz8z2r6He9ojlpLct818Mry2B7/Mrv42T6Q5a3YEf05ehc9Yx7mvSOp3uTnvZcWi7OQS4t55N/5yVrrCfPVU7Rlr3nr2evMsr+mvg9ydnw71C96jJWFz2u3zU7VgzW3QTNrmaTYSVOy0EkJ1JXi8eSjO7a2Ki9SF+t6bc+H4nN2GrNvYbV7Fm8lDpWTFm/EZ2IvR6sF88l8M8bPzVbkf6MjMdWmeWbYb12tPpldqPtYDY8rNd21l7W/taYW9obidlqC/OryeTf5F9LzFZbmF9NRvDPwll6kXisNrf69dqlYTPXVfRY44cVX/R69mLQsF4sUfvRPouUR/rD8jv5tz7/zE6LBm8Fa/nR6r3OzGC1+Cxb7Dza2ZqfKetIpE977e0du4WPPWEzE8PIsh4fmk7LOBjFyvJIfQtW09PqW7Ew6ry8aVitPRY2OvFaE7U3Z3kxeu2z2qTZjcQ4+edjJ//2zT8Wn5eDCDZqw8PW9RbWsxuph3McsW35zOj3Yq2YrfZp2ChPvDqrXRZ28m9F/mmNlR85jPz8tIY9KHVSah3p5yjqJE7Gaelq2DpBLG6rvQx7Kjml71PJFh+12CKv0XZY149XdtdyNRq7hr3ImCrHQebbyjuLUdqJfDViKffG2kWP2dDil+2z2sNiYLFoNljetDmMYbVYWR/JvtNitGJivlg8mnhfIWF1k3+6TP7xeDTZI/8iovmK2I+WsTrGXYj65d3Kf2Qu1nS8fGrXgDxm56OEXSNWLiTvtesE4NdFfa6NT8xvq0z+cRnCv+U7wN7Aq51rhLEca6TSNr1yAI5OEpG4mU+rbaxe2ySvdcH3iJarTA5H+h0lzL7VtxY2ws+1yphcsl/rOjxVLGuUae2MChtvLD2vTtPz7K8lEb/ZtvXmIhJHT7629Nsb8+Tf5N8l8S+K7+WpHOv30l89eYr2RcRWBrtV7phudM7uwTL85J9eP4R/9Y9geRs/7ZyJt3lskZGbnK2xWfJbndxSlrXH6luw2ZhHYlsHj5YNioXV8tcziLH4egdfhpNYq33MhhdzJp7WCYT57bmuouLlRY4flsg81uWR8bRXr2XcztjqmRcyvkfGMjrmqIyOefJv8i8jl8I/rYz5ifrsWTuv2e89fqP7AlbWs+4fsVcYvd8Y6XfyL2ZvE/4dcHOxVp+zOs+WpuvZ0vwe0IfV4rNssXOvPZbulPUk0qe99vaO3cLHnrBRe1HsFj40nZZxMIqV5ZH6Fqymp9W3YmHUeXnTsFp7LKw3P1rvkeNIjF77rDZpdiMxTv752Mm/ffOPxeflIIKN2vCwdb2F9exG6uEcR2xbPjP6vVgrZqt9GjbKE6/OapeFnfxbkX/3wcV68uHtwrUnj7XU9azsUL3Xx7WexEl7lq60ycrqeFg+POyIu7M9dhj21QAeA/BIVfZhAM8CeF+jnz0Iy1FP/nvukvXeYYtgtWtq1NMTTdbIaSs2ai+K3cJHLWx8lWMgG6e0sdnCHkWdF4uH1SZ/FiNrQ10uRcMeqzLAx8pzecxiYdeZho3cWdbaztrkzUeaXWvequujdhl28m/yT7N7jvyz2u+9szhascckVsabjZFhWfulLgyspgvcxtYxedeUhpXxSn0rZok9GliN2x6HpF/vPaM7+TeYf/dFwFKZCSOOVi8bKBMlg7YG90hnQpRLsQZEC1eXs7YwLIspK1H8oygb25ddvz8B4Mnr90cBLDc6Pk2cA8ALAJ4D8Mz1+YsAPoSyMV5eywb5RQAP2pqyW8n0k9Tr6eMR/BglW7bDmjS2kj30Wz0G1mWyXpZHsPV5FGvZ8vRasXJ+0EQbt2uslisrpsjYz655ywbDypxLG9bcZWFlTj2s1Jv8e4if/OPnl8o/S5f1s3Zu2bC4WnNqBFaLUerLcubXWud4m5IoVutr4HZ7a6x2HUaxmk+JlfzLYqMcAng/RLCTf538k0+AmXFZL4+1joeol6J1rjURWdg6hlrYJKNdiFKfXXQyDstXVix8XbfcuFheTwF4OYDPBvApAF6J8rT3lQBeirIpjsqzAH4NwLuv398D4JcB/Mh13fMom+Ajbvd3tP2RfopiZX9J0fywydVbGEg9ZrsVu5RZF7tWNgrL7Mi4ZexaLjVsj1/pP9JeiWG+RmGz/JM4beIA0ZX1DG9dK9ZE5dkaha3zYC1SrLYzv2z8ZqLZZW2yyhj/vTnqoNRbdjUswzC/ll0NO/k3+XfJ/GNtq9/r9mawMmbLdhYr2y5zI2NmPGR2ZNvYnKzxT+pLbJQH2blWa6vVRxZW+mW6DCt9jODQ5N/K/Kt/BOtSRCYso7dWmTews8mEddhS/obr1x8B8EUAPhXlie/a8j6UzfD3APjn18fPVPVyspHC8mOVa1gtn+yCsS7CCFbqWdg6Tgtr9W3Gb7asx682yGX8Lvie/shgZSxbYSMxR8YoaaNFL4rt8buWjZ72jIh9SpHJv7y9yb9xclf512qvZY7J2D9XaW1bNJ+n6OstbGTtnQ3/tL9BYhJtuLcJYn68xaOM0brzELFZx6Hd8ZDHUWxdx/Jl+dPkSQCvAPA6AH8C5cnuy1E+4vxy3P5Y81ryIspHot+Pshl+H8pT4u8C8M7r8hfRziMvF6ccnC9lYpjtOP2iiNkE/E34cg5DT4493vVWizZuMXvWTQ9v3JWixRyJ3fPL2qHpR/Jn3Tyy+k/LGYvPijmCjcQisVqsk3927JN/t7HnwD+GZ/re2lJiNVueXVYfyXHEloa12taLtfqCYZlkr6uWmDV9VLpevOwa0fpGw0z+jcWG+HdPMcQaxRzAOY92eo2vpWcgZHqaz8yEySYDz08dpyW1ziMoG9tXX79eA+CzAHwByob4UcfWFvJhlE3w/wvgHShPhN91/XqA8/i+cKRfLkGy/DuFZP1HJ9JRuNESGX+sRWNkcuvBajGvNWlGYo5OmppE5inpLzKnRHJa62oxaG2P6Edi1uxO/sVinvw7f/55dqL92TNfshgtexr/vNxE/Fr+LCyqcxkj46Tm18uFh7X6LzrXa9gMD6wxwsNqMUSxWZn8E4YPyjmrs8TS9Wxpfg/ow2rxWbbYudceSzcrTwB4LYBvQfke7tXOXx8B8JMA/js8fCq9lUT6tNfe3rFb+NgTNmovit3Ch6bTMg5GsbI8Ut+C1fS0+lYsjDovbxpWa4+F9eZH6z1yHInRa5/VJs1uJMbJPx87+bdv/rH4vBxEsFEbHraut7Ce3Ug9nOOIbctnRr8Xa8VstU/DRnni1VntsrCTfyvyz/vYrJUMwL7LJ7HSzhF8Ny5tHmDfpZDnzE/EVl0WxUZjtGKqy++jfJ/3qwD8Byg/arXVx5t75TEAr0fZtP8VAP8SwHcD+Icb+G69C5YVq19HYDNPEVrj2CpXa0tPOxh2tD1PtPGRTQTH6t0aVyP2LVnsSywb7yK2WDyZNkT9WTbZOK3psDFfw8o+Yba1hZA1f3hYZsfqH28OlzL5d1sm/7icK/8sO9aaNouV8cinURaWrU0tu1b+Lb9MXx6zdkX7xMJ64mEtO9pYsoiV08jTYy+2yb+YX6Yvj1fjX+RHsLzFdmQx3rNgz4o2EUT8R7GZsloYoRadV6F8x/c/RNn4vhLlb43OUV4E8F6U7wX/EIDvRPlY9DMGpiaqdpzBssmZXYga1tKTZVa/tvgFYjFrA5Q3cPTEnIlP+mN+o/FZ1xLDav5bYo76ZVjNrzehXKK0ziXWQqTFr3eewWb89kjPvNbr51Jk8q9dJv/WF4t/I3LC5uGs/VP1z1b8u8ty5/hXfwcYjuGs4+imJbLx0TZB3gJaW4hKPZBj4HYnRfzKMksOKN/1fQWAzwPwJwF8OcrTVC9/5yAPAHwAwN8H8MMAfgHlO8NHrD9wnfKmx8gbMFG9LWKJLtSysfRge2Le2h6rj27K5bmHleJNPCP8RMbjulyLwWp3FuvFmJlztPkh2pdMl8VnYevYIn3pxT/5N/ln+dD8njP/vLy0tM/KkWU70h4La3FCxqe1X2uP1t8Mr8UUjdnitMc/73rQ2spigiiz+oS1x8vn5N+O+PcSlO9vLk+Cryqle9fny3FtYNFjstQvdo/ifAkalY/lFZkIFnsSW7fhXuW7bnAdk2xvTbZ74nypl1jZntr+Ep8lHw/g3wPwjQD+EoA/jrIhvpS/pzoAeBzAF6J8NPpJAD8O4GPXr5F+ZK4j+Yeiw7BMrwfLpCfmnviiPizslXJsYa/EewYbzTPTi/Il6qOFf8t4J8cKNpYBt8dBNs5I/Xr8PVS4e5XuVVVex1aPdfcEVtqux9pa5DgvfdR1rG1XBCvHaQ0r81BjZcx1HuXcovld7Byq4xor54xDVW/F6GHrnMr2azxgfc3aLrGTf5N/l8i/WuqYpN8FV+etxh+NOsmdK9z2UcfDuBnBSv5Ju0seaqzMcd23jH9azHWfSB7IfMt2aP3sYWt9Vg7cjFlrk9xMXVXnWlxaTJrfOqeyfpHJvxPzb1Fku3BUdZregZTV5fIlbWj1nj9LV+p4WKmrlWk+mB9PXgfga1E2hL8N4KN42OmX+PodAL8B4NsBfCnKd50jEsllFNNia0vs3uPLYCM29xbzKGw2J9q4WB9HxqMoltmI+ND8jsCyuLRYW7H1eWtOt8L2xJyZq7yYJd7yG8UyG5N/k39b8s/KjxbfltiemKPYTHxRv2tj5bGUrF8PW9dlY27BTv5xH1G/KexLcHO3LeUAfhftSqljd/nk3Ua5I6/vBtT19e6e3e2Rd4frNkh78i7Foi/vOkgfEFh5B5RhIY6lHAB8PoA/g/J93zcB+AQS36XJfZSPdj95/f4ogOcAfFDRP0DnpScy/4st1i8HRdezySSDZbraNRjJQUueRmC1th2JbgTb49cTiwcj/Ub5V4+hC866Uw7cHmOuRLn0z7DSr7xZVduRd+blp2dqHBsDa3s1ZrF1VZ1b46e0V88rWt4kth5T6ryymJf4ZN+x+ewKPD5291w+bdPaVucpg5Wxspg1Hkz+3Y5ftmnyz8aeC/+OpPyeKJdrEBlvBiv9Si7XMS9rQWlP+qu5dKjePayWBxaf5vcebvKT6UkeQWCttmlYqSv3HVosbHxhexbpV44VNVbyQPqt9Tzs4n/y7+bxFvy7ISM2YtbOPOMrG0tUvzWeHt8HlI83P4Xyked34PbEf1deHwHwNpRfi34MN3/l+lC9ZBnLM9OTd3oi/a1hNRmN1eqzWAuX8aNhtX6IYqMxe33p5SiDXZtDmfGGxRjNeQ/WimmUfk8M2RxE/UZ4lMUxrHbsYTPXuLSfGYcY1irz/GaxVkyj9Cf/8thL5V80r15/travVXrxGfs912LrWqMXa9nq6Y/RfTn559vfjH9ssNQGscwEwIKI1nsLyQxWi8+yxc699li6APAWAP87Tr8B3dPrqwG8muQqI1sNTnvGbuFjT9jRE9cpJsfIuKKNg1GsLI/Ut2A1Pa2+FQujzsubhtXaY2G9+dF6jxxHYvTaZ7VJsxuJcfLPx07+7Zt/LD4vBxFs1IaHrestrGc3Ug/nOGLb8pnR78VaMVvt07BRnnh1Vrss7OTfuvxTG+0RIBKM1jCLQFa9bFhUl9mXtqw2aratOln2FQC+BeV7sKfedO7p9XMA/g7KXz+1iMyzp+vpa/UeHzKxWHqt8bG6SMxLeVR3bWxURmKzHLLOM34t+5FJwMJ6k6Dn3yvz8NqEqmEiEyaLRRu7o1irPuI3g7Xm1KzfDDba95rfyb/JP+k3g90j/zKckj4y+WI6UayXA0u8fmN+rfgisWt5idiP+o20K+PXw2ri2Wyt92TyT7eR5sHyHeD6s9S4fq8/4y0/Jy8/g84+Y39P6B5w8zPdiw5w83PdV7gZ0+LjUOkfhe6is/iW9he8jH85XuzUnxuv44KovyLHMsbF76MA3gzgL6D81dGnY0otnwzg466PfwPAh8A/n1/zs5Yrpa4uW47Nz/5fC/sOF0gZi0XDyvgYVqvrwUZiXvRkXiLtWGx6fjNYry8llvWzh9W+RyNx8nsxcixcsC38q+3Xx9r3Huuxkn1Pqa47Ciwbe7Xc1fHU9uoyDSvH2Ci2Fu07jrX9Giu/h7lIPadJ7BKP/O5hfWz1B4sxgmXzC7Nt+WVY6Ve2t9bV+mPy7zYW0HO6YCf/zo9/dZ/VfSnjYTFqWPmbNXVsNZbNKzJPV1VZzSE5X2pzCMtNja37svbL+kbDyv5n34df8iL7h+VU88t0Ad4fWsyRvpQxsz70+rKOWe6plpiByb/d8I9NTBDnso4J+8KzXFDLAehIjhe81K1jYHYXnUVvOT4SPRb3oapncR1EOcOyOqB8x/U/A/DFAF6DKUy+AMBfRvmI+COKjrdxtYT1i6fb4r8HC/BrbUS7W3yM9jsay8aZHr8yL9pY0eKDYTP25Vjm+WFtiYzjctysx9assPGXxQbcbls9HtdlTJeJjFli2XyzlGv9YI37DCvtavmQ8XpYmZcI/yf/Jv8m/27a04St52S9hvNi8/xacqheEbuyvTVWy319XOdSw1r9LdfimT6UPmuslScv5gj/mA8Wu1YWHeesusm/DfknFVkdC4TVWVhNV7MXwUq8tMV8ab4trOZXy8lS9qUA/glu30GZL/31dQBej8sT6/rwykZimbQOqnuTLeId6cMbX6NjqmYL5J3ZZpOFpduDZTFrk6s3TzA/1rXh5cLyZ80BLF5Lz9L17Eba2sKhyb/Jv4jdS+CfZivCAwtrvVt2Itg6PlZm9acWh3bNWPqWX4sP1nXp2c6OLV7MzG8LZ6J+I7Zqm5N/2/PPrPTOo3WR+l7R7GfaELVpyVtQfu35V3D6TeU5vb4fwNeg/E+wRXBvkNTKsljt4tkSe0AMq/mwBrgsFkJ/LSzTa8WemkPWsZS1x8cpp5OeOWft+WoEdsq+ZfIv7zsazxrYCP5UuW7BWuuBNfy12IjuH1p1svjJv3FYyj+NlNaiW5ZDOdf8RLEyBg0rRYvd8zMCex/lr46+HsC/wek3lOf2+giAbwXwZSgfh45c2D2TdY9E/UYHk9HYBW+dZ7AZnVGD5zkMsK05thYE1obaGg8Z1hq7GGYUltVZ4zdrp2aX2YpitfxZWC0Gza+XNy+nzP5WfeTFN/nHbUWxk3++3zX5F/FplUex2bKIn4i9KCbaTxG/1nXFfESvI3me6beIXk/Oo/3Ww43R9ib/CN8sQnqGrcBagmR+rUE2gtXis2yxc689APAEgLcCeA9Ov5k819dvAfg+AE/i5n8Ea9IzKEbt7R27hY89YUdOelv50HRaxsEoVpZH6luwmp5W34qFUeflTcNq7bGw3vxovUeOIzF67bPapNmNxDj552Mn//bNPxafl4MINmrDw9b1FtazG6mHcxyxbfnM6PdirZit9mnYKE+8OqtdFnbyb13+pYPTArQaoiVX2tDqaeBGfKzO821hLT912WMAPgfATwL4XZx+I3nOrw+i/G3Uq0jOW8XiyV6xPT6ifs8xL5eAtcam6KSsjbca1vKh2W7xkfFrTawMI3FezD1+mQ1vodDrN9PWiF+G7Yl58m/yD+RY87tH/mk51ngUkYie5deKQ+pkY+xpg+U3Yi+blx7eML+enoVlulG/lkz+xfVW499Sof2yX11/MM6lriby17nqd4mV9rVfLWQSTfZiy/oFOKlrlb0BwJ9G2bRFnlxO0eVxlL+NeiOAVzbgMxw4BXbUgLClZPxGFxwj/Y7O1ZrYA/i4o42rGq7W8X7tNLpw9cZpbyEQ6fsWbL0Y8n4hk/0SpBWLlys2v8k69q71B5tDFx35S6jRXwON9hGzO/nnYyf/uC1Wtnf+SV91TNIOs6thNT/SVqaPlnL5C+AalsWnxabFwLAyfq0tGtbyI+0uZfX63Otbr71WnFbMdTm7PqSO5nvyb3/8uxWMFiQLWnOq2WX1TCeC9SSj62Eith4D8LcA/ChO//T0kl7fBOCLUG4oWBc2K89w6NTY+jxy3TFdy681yHhYy84aWImxsF6bR/j1dFqwmpwKa+l5PNkSG21bD5bJ1lgr5qi/0djJv8m/jL9z5N+eJMpdD9ujsxY+2pdr2M5it7hG9yh3hn/W4jiyUNYMewtWq54dt2K1+Cxb7Nzy+QUAvh2n3zBe2us5AP8jyveBNRk98Jwjdgsfe8KOnpROMfFFxhVtHIxiZXmkvgWr6Wn1rVgYdV7eNKzWHgvrzY/We+Q4EqPXPqtNmt1IjJN/Pnbyb9/8Y/F5OYhgozY8bF1vYT27kXo4xxHbls+Mfi/Witlqn4aN8sSrs9plYSf/VuTfS4Thq+q9Pr4nzg/VeS0H3HzkfK/CLn7q+qsKd0/U36t0ZN1SX+Pr+jrm2v8Vbsd/qDDS9oHYqv3WMf49AG8C8ImYMlKWj5J/IoAfUHQYF++Rco23o7CMSxm/2jUVwTI9Vhb1sVyT7LpYGyvLGDZqL4rt4VALtubKldCpbdTHR1EWwS5jloddzu852HqMrbFy4lzwtc2j4jeKleOvhT0msKy9wMP5jGHrPDEsi9/CLrlhsR1FuYVd4q7r63mvbisw+Tf5d/f4t8TL1nIytjqPC7aur2O7MrC1fYaV7arXnhb2Chxb82YRuX6WH0u9Uo4trOzPBSv9sjWzhpX5lrmy/NZly0dk5dr9Hm7nRsMyOxC6Flb6rds0+Vfk1Py7IdZdAKYbKcvIWviI3Rbskyjf/X0P5g9frfX6DQBvQ/mF7eWvkbS7XEysu00jsayO3Xk6RyzLM7srN8qvlBFY1pdezF4MI/jnSe+Y2GvjVNjR9s4RuweZ/Btj7xyxe5BT8s+bE9aSLXzu6do4lY+efUHGx+Tf+j7S9hhA+0EotliUtiKLQGsRWfv39Ni55Vv74YRe7MtQvqP6MpTN2Z7kwfXrRQAvAHjeeL1wrfcA/EcvTikvB/Dm6/dHwDlSn3ubNHmsnUvxbHlxZWNcziM/biDLtB9OaImpFu2HByzOyJgicWnjSQbr5XERdrdXs+WNgSxGL95WyYxhPdjI2KmVRcaSzFwSHcdbcpNdbHjYmlMazipj5dlxKovNyOTf5N+58i+Kq3/UqNVGi8j5O+svM5d7el7dUr/FujESc7QdVsw9Y5bEtHJo8i9Wt9Sn80QfAZ+5ZCY9NjFky74UwD+C/R3VreVFAB8G8B0A3gHglwG8E8DP4vYFdUD5mPHnAXg1gM8A8JkA/uyG8UbkAYB/jPKjWD8l6uSv88n2yfoMVupZ2KXMw1obsYzfbFmPX6kTyanELvie/shgZSxbYSMxZwbr0WPaaL9r2ehpz1YLsrsgk395e5N/4+Su8q/VXssck7F/rtLatmg+T9HXW9jI2jsb/ml/1cMWc9EFfnYApuwgKQAAIABJREFU0haMWdHuEEQ7jN1p8e46vB7l48+Pu9GtL0cAzwD4XpT/If55AO9F2Qgvr7rvjhXuwbX+uwH8MMpHjb8NwB9Bad/noPzK9SnlPoAvBPDPUTb0HyI6Fgc8qe9caXe/vA3MUdGV59k7a5m7cZZfS9drb32NtG7cM+3XsBEZOYhqNw00v5nybAyj9CwO72kB5F1jTLSxPCJ7avsIGbUhmPyzy2qZ/Hsoe+XfaL9r28ja6/F5SfyT0tq2yb+cvbPhH9sAy80RyPFyrj0hsnCeaHYiOGsRb9myYj8o5UDZHL4Jp/3P3wcAPoCy2f0pAP8CwNtRNrTsSZY8X9ryAQDvr8rfjrLR/FUAzwJ4LcpHkE/5pPuVAD4L5Wn226/LrEWUt/HIbCwXu1Z5xm+N8zai7Dqrzw+K7hrC4rTiY2Jdq8xfy6DLFtnWjQBNR7uGNL8LJsIDLUZ28zGykMyMmZmx1YslqzfKx1plrN7DWvWnwnoy+dfnY60yVj/55/tY4wbCVn6isSDoW8bYE/MpsYDfjtF9xHIn44hiR8fSa69H7hr/zlKiGwBvoxEp+2YA/w6n/YGo51D+fumv4OFmvY6TvWRbrLr7KJverwfwb07c1iuUH8P6GyRmbQPJ6jNYqWdhtdyzc81exm+2rMev1GFt97ASY2Hr91asdrw2NhJzRqL61ljVIj3Ytfz35GJKm0z+5e1N/o2Tu8q/Vnstc0zG/rlKT06ieR8pk38nkpYFrhb4mg1ivqODYEvZcnwf5X9/vx+n2wh+BMDPAPhyAK8C8Cj0fpNlVtu0DdGjAD4bwN8C8NsAPnaidv82gG9F2ZT3bF5YmzV+jyxj/tbYhLVgR5bJcisWL85se6Ect7ZN2stySKsfLZbdtXyuIecUa6toPD1nmfw7H5n8W8fPxE7s2nKObdsldvkf4KtK+Qr6f8cdK916U3LAzY+rLDoQx1qAno6meyXe6zhqqf9vy4qLlbH/7vs4AP8xyg9HfbIb9Xh5FsDPAfj7AH4I5Sn0C7j5sUv2X4R1Xf1/WIeqfnmX/6N1BPA7174/BOAPovw379aT50sAfBDALwD4Ndzk5hL/0l/1f4QdxbHMk8RanJd26/crga3LllxD2Gb/tRjFLq8ItvbBsHXs8lzmTxsf6v/YW85rHRB7Flc9vwcFK/9njmFZe1mfS3taf2T4t0hm/JOSGWtl3Ui/o3QXkfNRVpb+asVukZfMHDnS75rYyb+HuMm/7bEZ/kVjYX2Z4Z7EZngRaZ8Wc2S9G/E5sf3YKMcn/zbG3sfNxZh2LDc52kZTK7d0ej6f3WJLbvYse8zmgv18AE+FIx0nL6Bs/r4HwP+Dmz9utYh2ruVHa6PM7TPX/p5H+cXoA8r3crfcBN8H8FIAb0T5wa5s/2u5sL53xHJxEOdZ/wzPfLEYI/Y1G9E2MpuWfcuv10eeTQ3XUr5I3V5tPKj1WN41HljiXaujJTIme/pZGxYmY6s1NxHuj/ZpiZdTebNnS5n802Xyb305Ff8iaz2tLMqhyHzt4Vt0enJ6Cg5cukz+jfU5xZBohzO9aNkTAH4LwEdx+2na2q+fBvDnSIz1SyuX9RZWwy/yGgD/LcpHkrfOwW+g/Eq19rFv2Qb5LttjYaWehdVyz841exm/2bIev1KHtd3DSoyFrd9bsdrx2thIzBmJ6jO9rK9R2LX89+RiSptM/uXtTf6Nk7vKv1Z7LXNMxv65Sk9OonkfKZN/GwlbtJ1DAzIDo7YwzcorAHwZtv8O7O8A+HWUvyR6qYjf26RENzQw6iT2UZRN8FdunIcrlBsPz6H8/VRkAweho7U7svFZC8vO94j1ODQCq9V5XB2BzXCoF8ukZ/w8yeQx5aJk8m/KKWXyb8qUKZvIMmB4j7GjG+KDYsvyPVqY3SPGPVp/CsBnKn7WlPcC+A6Uvzd6tipfcl5/3IF9tInFe1B0a9GwL17H9CMo30N+JtKIQXIfZfP7Cjz8D+Y6fvaRWm+zpGG9DUwrtr6m2Edp5bVk+c1grY2ghdU+ijMCu5x7Hw9vxcqPOtc4iT0iziGWxwz/tLFK0/ckirXG89HjmpUzz280ZxG/ER9Re5cik3+238m/deVU/MvYnDJlDZn824FonaAtJrXJRC4kNftscRodoKxFby2Rz71rWGtzsMhTAP6QY3+0vIjy37f/CA+/88tuUMhNMPsOJcPKDTTA+0pin0f5Iapvu37f+vP7r8HD/yWu+cT6UbaB5abGQ+hb55pfdjOB5bLuO/nu+YWiq2GP5OVh6/ax+NnmV7ZPbi6PpIzF4GGlPsOC6LL2a1iAtz3KAytvEHpSX+ZVW8RnsGwMqN/lMTtvwUpO1PUyfwzLrotaz5uvjkKPlWl2GZb51WLKYC0Ms61hZZk8n/zjMU/+6RhmW8PKMnl+Kv4xjFbHzlleNSyr0/rF86vFzY4trBZDtC2W3xFYL+4RWFlnYZmtXmxdP/l3Ov5RYQ2xAmaBSHuqMyNoS6L2suIR4CtR/n5oy4/8vg3A1yba6OUzctFqfaaR/B8A+E1sm5dvAPBmJzbvomDHVvstrFemYSODTjTGVmyUJ1aZ5tcbzLVjb1CNjjmRPtDqrfi1HEb5N2XKlClTpkyZMmVj0RZj7AmLfJdPQdiTGYg6TbQnW5Zoesx/ZtHp+X8CwNMJeyPku1B+9dnbFLAbEuzOtnzSxbCLXhT7rwD8y1yzuuV1ePhL3BaX2d14GOdaHdvM1Ofy6YKWf3kuc8rileWZvqyxml849ZHNvcU/LWZZJ/WkRLBsDLB05bm07z01knUS6/GvVXrsnCqGjH70uhyNbbV712QPeZz8u7uyRS68tUJmXM9ybxSHtPViL3Ykj1ttMdzerpE18zT51yYHz0B0IyrteDhrAZoVDcsWsBE/2uJ3KXspyobrcWwjRwC/jPK933dXZSw22QfW5rVevMvcZLC1/BSAH0X5WPRW8jTKDQlvY8L42XJBSWxkAxTxUcfifQzXsq1tGCN+WR0rj2xK6z6Q8bH+0NrIBvvoWGNhrQ2yZivDoQj/tDgzEm1D1EfLYiKTx6zf6E3T0di1pcXHHjdjk3+6vcm/MVhLevgXLWMPc7RzL57ITdlat5VDmq58z+TeWltoktlfePOiZiuShwz/1tiPsBgn/3bAP28Dab3XL+37KRD6MuiepyPaJKMlJdJhGlGX8qcBfErAzih5gPJU9b0o//8rCbQcy5fM9VHBMhvsBoCGrct/HmUT/H6nTSPllSg3I2SM1kByIPpebuQ5G3S0vNf+NL/WOcPJuDIxWn4j/uTNk7pMw8rYNCyL3cNKPxqeXSNWzjV8HTOri/JPlq8p0XGyZZLZMpYeH6OwI/LRYsPC9MQ8+Tf514u5ZP5tIXv2q635Rtnfwm+Gf1td95N/O+Cfd8fCW3RrC1dvQW4FGm2gttBkG+PMHUDL/8vx8CO3W8gLAL4JwLuuz+ubDlJkHXt6aD3J0ux62GNVt/xS9Yt6k4bKEyg/grU8BdY4AdzOhayr22HhtHpmv+ZTxLZlT7Yvi/Vi9WKsN5uWH41/mj2mq20gGVb2uYXVrgkrtiOpX45lXSv/pkyZMmXKaWWLcXmO/fuWU/bP5N/G4iVDWwzLBaX19HdrGXEHR1sAP4ntPv78AOXjxO/Gw48VsxsJB1GnPUljT+hkO60nb9rNjbr+GZTvAj9Q7KwhnwTgZbjdVimyXtvMs5yxDZeVj4wtFgOzG8EyXdZ3Wns1rMYNaSdyty6iy3CR9izH8umulTeLFwtW9jmLMcs/GdfasvW4fOp54JJlVG4n/6a0yKXyL7p2jMat3YxtlZ587R1r3Sxf068U6yb2mn4X3yN9TP45WM+wt1j0FqMR2WIQzMakbTIfB/BYfzgheQFlQ/kBlCeqMk/1olw+yZKbGPlUjulD6IEce2UfQvkYdM9FlpXHUJ4ALzHU74tYG7FFrLZHNnZStKeuFlZ7alr71WLR2px58qjx3rK/1Fm5Ogo9zVbP2GFtmj3x+jfyVLc+j/BPK19rsM9wdoTvLceANWUvE7fH9ZY4Jv/2L5N//X40XyN9t/rstdc6x0VF3vjNShTL5ly2PovISGxGenM1+cftr8a/UQnf4gKJYkcPoHUHPArgkQ77GfkQyg9gWU/X2aAhN74MW9+8kJsS9oTO2jDXdR9G+b/iUyw+6n5iGyq5mZO5kU/5ZBs9bC3apnTBaZtTtlm0/DKbGpbFZfElGjPT1c7r3EZz2tOXUqJ+o1iI80zMmmy5KPR892BbbESwUXuXNrdtFcfkn42d/Fs3jnPgX6Y9ozc1kRs9bB4faX8L6eFfdD0WwS640f0Y8T35tzL/tEUZ2zRFF+SWj5b6tcS6Q6TF9Bko3wPeQt6H8qvKixyV4wxhvCehLVh2/CMo8W8hnwrgVdfH2gYmMpBIrLehkfa9p3xan/Ve4B4+yhVtoyrr5c2RSAzehs/CR8cH1pesziqzsJE4svyLSvYu+ih+jZh8RvmXN3HW9HvJ0sLFyb/Jv1Fy1/m3xVzgzam99s9VenISzftImfxbWbSnWNqCX+pENk+ZBXpWeu7GWgt+Lab7168t5AEe/piUnIjZTYejqGcbFusGhoeFoSfLXlRwa8ijuPmxdGvzwza1sg3a5s+aVJdNT21T2pc5tW4YRTbctV9ZpsXonWuDpZWLpaz2a+WR2c/EZOlri9TIhlTjgbQp2yb7Mso/KxYmvU/Dejbl2fy1+rGwmfFk66d0mr1MTkbNZRZm8i8nk39jsHvkX1TYfKfpRbBRHmnzbBQbKYvKnrDRvpBzciaWUX6z+KxNz/7kn4NlJNFA2kKWbYIsO9H6Fqwm0UHXa/eW8gDle8BStJsQcoOl3Q2Vi3eJRVWm5YltTGrsA1K/ltzH7Y+lWxsSi19sM8PsajYzwjZUUrTBS9uMMWzLgJxtD9uIa7myFicH5ZjFZJ0vWIuDFrfr+mi8Viy9XBkh3g2QXmzrDdCM3y1k5IJ8L09T9hDH5F9MJv/WkZ4nUhGsxsmRfqO2MtdHq71TYaN9wdYca+fP6u/Jv3ZZDSs3TVGHmm7ETrQ+gu3p3KicasH6PgA/VsUQ3bB4NxW8jQPbZGl2pZ0F816U7wNvLd5AxzaJctOfwcq6+npqvfveg9V0lnLvRlAGa+GsHHpt1fqQnUduEGhxRMqYjciYlZkEI2ORl/9aL1IWlRFj3ymeAFjXkNSLlN117ORfzt7k31jsXeVfqz1vvdhr/1ylJyfRvI+Uyb+V5YC2YM/tItnTk91WYYt66wkU26BZOrLcewLGNgZL+ePY7sfCahkx2UVt1HnZ8vqxFlc9nG5pd7Ysag/oe8Ihudtyw6tlM73WuDhigdkSm4Y95fjfy6u7Lj08aNGb/JtSy174l5lfRvKtd5Pe+yRylJz6xsJa9rS9QuSm1ugHa5N/ugzh33JnLfNkyLobl9lQ73kT7W0et5DHUX7gScZQX4zsaXrPE/SjKK8v+vpiPAp9aeNRbPdd6Yho/enlIyPeE0vLT3QTJfs9EnM0DsuWjM96+lrr9UrtR7tBwfge2ZBb+qw/rGvNk97xZFQuR0nmacypxs89zy+nlMm/bWTyj8te+JeJY+11wWiO9t5gb9XbO+ejm7cePJPeB3CTfzG9tF9vUcnOI44jT3WySY/euWhZlFo2TnVRP4ny68bLJoBtPNiNCZnjo1Inn/IeRXmNk/1v+T2g/CjV1htg2Yb6XdbJO3rsTpt2c0jD1lLnUGJZ3jXdyPmBHLMN63JcxyHtRGLWYtCwbBPL4mebceturPTL+oNtniM8kLFqMVvXEIw67zqu2ybjYvryxqN1E1LqsTJtPM9gWcwaJutXthfIxWwdaz6ifq28WP3i+bV8ZWNmWCv+yb/JP8tXNmaGteJfi3+WPVafwWp9ynBevZZTrV7OY1pMVr3Vl1rMll3Zn15btZyzOnmteTFbsUf6Wotp8u/M+He/KpBgbePEFqZyEcmSwPxIf/JY+tAwlj3Nr1Zm2T2lHMW7PK7LJEkkVvavZ0OWWxw4AngC230E+gU8/L6xFlukT5nOUsZyb4mWH1bnXUv1u3ZdSawWs3cNWe302i6x7KaCd43L2JiPnuszguu59jP80/olwrWWsS3qa0usZieK1XQyfhk2k1MNG81Lxm+UQxG/k3+6nShW08n4ZdjJv234l7WXwXp9mjnPtLenj3o5OSLm1rxEzusy73rKYHtiztRP/tll6Zi1OyMy4cfqBaVMHktnvROMhcnULaLdObCS+ivY7v9tnwLwh6tzdhdIu6OitT+Kte6qSOyxKluwT6NsgreQD+Bmn3gbJItrmbt2DBvlsZXjGmvd4WrFRni/YC0eWVipY8Xk9QGzXdexMYfdcJO+tb7S2q7d4fR4ICU6vklp4YLEW+dr+GXYLfz2SNbn1jGO5sGp/E7+6X7X1O+VS+HfOcieY7bWkT32RutmbY3m2J770JM9xz6Ef/WgsizK68W53HTJDbO2gc7G0CKZBX4vqRf8s9ju142fAvBq3O6fWpay+iX7r9aRWLkxqTnA7Nc4hn3kOu4tnwA/D+BD4H0s2wHczhe7BmpZ2sZybXFQbqQYRvrVYgLBsGtRa89IrLbZle2VXJKiYes+0O7caTFrfcn4Kn1r45nEsrxoPLD4J/14wm4iZsa11puC3s3LU2MzNiMS9WldD1GsV8ZkNA8m/yb/MthL4J+G08bxiM81sN6N5bX8RrBLXTSvrX619ZjlU8MyPe2BV29epL0IdvIvjl3quvh3XxhoGfDrIOoFovdEpvbJbEQkYs/SY2JdFFvKUwBeC31DYOUUVR1rT01ma6LXsGyjDJSN7+twmh/Akjdw2I2AWleWa/m0nhRqvGexWFh2vbA4ZM41XnhtXc6tes2vdo1b2OVY8yXL5SZT21QflPK6TtqVZSyeGm/xQsthlH/MbkZGY7eIZbTfjJ+17Z8qB5eCnfzrsz/514eL2Ds1tmVtulXMUd0INtpey5bXPm/tnMX2+t1TX2o6F8U/bccsG3usXlDK5LG0FyVbzyCesaHdObI6+J0o/3G7ldwH8KUAXga+oK/P5V0nqc/0ZD0TzS/bjLwcwJdg2w3w/wfg7UpMlnh5YJsp686i51fbDFkSvZM5ChvBaDm2cqRtTK0yidX8slxqG+eIsBsSXmz1eaZ/szKCDz1+94rNcqpFb4/YU/Fg8s/Xm/y7HL+nklP177nIqdqo+b20nF88/7KLwqheZkMVqZd60XgsyW5CgG0/Ag2UjeTno/witJToBoPdXNDe5TGr0/rkiPLU+i3YbgP8AoAXATxQYlok+vRt1J0qb6Mm+87DQtRnY9P8ttjxNrjZu73WjTPpV25kvZitmw5ezNqTX2ZfO4/4ykj0DjOLY4RfzfYW2KyedWOkxUfUL5MWv9GbQlmZ/GvDZvUm/2xsi5yKf6eSLbhxznKqNvasE89JLp5/0QkhOuCwJ8WWLfZkxtqw1eXaU50Rd161RfYzKN833UruA/gclCfA98EX3PUTK+0p3LHSkzhmSy7+ZTnDPYHyv8WvI3GuJc+ibILrmOTmpW673BBp7UHDObspIzde7JzhpS32ZFHDSV12nWhcYBtMWa7FoPmBUq5xVfKPHVu5YnEyDlhYJto1cCTnEf5ZflqFxZDFe7iRE1skHx42oyv7Kms32oea3xGS8TsSG5HJP1t38m+MfQ/byr+RsURsWH3p+bbm1qjfiLB1QtROTwwjeOCt3aJ+o7FkcpO1t4aNO8+/TCAtT86ydrfERu3WOXoXgN9cySeT+wDeCuA1uP0UWN5skBsXuXnVsLLeqmN+F/lslKfVj9tNGirvRNkEL6JtFNlmkLVLYqHoSrGeILJ3qS83TJr/zADOMNadS28DyzZ6kRhZey2s7CsNay1yZB2LWRtIPawWuxazxj9NWvhn2cmO8T1PzJhY/POe6FgTc+YpUGa+8uoyT7/WmNt6/LZiJ/9ul03+bYfdin9bi9WXHic1bOscI+1LXbbu8/qzleeR+gi2xUZmLGixsye58/zz7tRZd1DksXxtIS13Znrl/QB+YqC9iPxlAF9ZncsNliQF29Qu7wxrLdA9LFA2vX8ewJdHGzRIfgLlb5AWidzxiw5wWv40bJ1Hz6+W4whWHrcOAtZGjoncpLfcxVvwFscs8Ta9Fi6zCI3YY9LDv9ZYmF7kpocmo7CtNjRszwLkVIvgHr+nwjKZ/Jv82wrLZEv+tfhd20bWXmRd0GP/XKUnJ2vfcFrL3uSfIdodTrkgPYhytumSG6VLlWdQnjxuKa8B8CY8/FukyBNBbQJmWPbU0Lr7LbFfAOAzUT6qvaX8W9x8AqxJ62YtI1rOIpslrT+1u+Gsn7ybWZZ+dlMZiVPDMWwrJz2OS7+Rvo3c/MtK6426yHW+1Hs3GTSbkhORmxtaP2X9MnsaVt6ki8Yo56otxoJev0D7HDqyvZN/N20Dk39r+j01/7w42Hm0zuNf1keUv9m2tcYw0m+PrNGXHg8zHJr8s89bYxjp122gRojIJNNSpsXoxRfBZnwC5aO+Xw/gauPXjwL4agCP4mH/RCZiKQybyUeNvY/y0ez/BcCvbJiL5fWnUH55WsbN4mXlET0L45VHJXt91efZgVfTi0pkMvDw2UE7Yt8b7DMDLbs2IjFm+HdXZIuFzkgfe7U1pU0m/6bsRTIL9h5blyCX3r5TyOTfHZBox0QX17LsZSi/dLz1Zu+jAH4L5UexXkpiZBtiWa5tPqJ1sv4zAXzNCXPxeBVT5qZMZJMjdSNYbyPl9U/Wb7asx6/UYW33sBJjYev3Vqx2vDY2EnNGovpML+trFHYt/z25mNImk395e5N/4+Su8q/VXssck7F/rtKTk2jeR8rk38qiOTtlAzL4noEx88XvWp4F8Mso3wV+Meh/hNxH2fD9TQBvBvBYVce+AxwRT8/60vkrUJ7A/s2gr5HyDIAfxsO/P6pFtp+dM9E2MDVG+97sAfp3gBlW+tjqo2oyLs2v9Z1cC5eNh9nOnPfYWiuODP+iCzbvo/DLeXRM0zbpI7HMxojFaPS768yvdY1bPluwTNeab9fEajL5F5fJv3asJqfin/Rj9aEXo9UvLKZomzPXRFbP6p+W+SlSF6mPYHtsjP5eaoR/Uk/Dan4n/+LYNP+igUjdHqJ7dS0L1VEb9oiNF1E2wb+Ibf8TGCib4LcA+JMAPg8Pn4B6RNE2NOy8vqBq20vdfZSPHf+p6zg+M9uIAfIMyg9geQukJf7IIsjb2LEyqa8tkuDURexHMT1Y7Zpn5ZH2ZIX1neSjJt5A3zo+ZG4oST8e/3pvFmg3pyJYdh5pZ8+NhaxE2hfxL8e/EZN4RjKbNFk2Atu7mNGwk3+Tf+fIv0wcnl3vZnGr/7Xak7HduonZWqL7kZ6bNZ5M/sWxu+FfZmCKDjZyYIrYjtRZ0uKzZwF/BPBjiP0A02h5BYCvAPCfonwU+r6oXxbc1h1oTerFuraheARl0/vXAXxxOOqx8izKd6K9RUm2b7X2tywCNKx1Vy6yCY+KdyedbX41nrCbRJm7nS2SXTSOnJC9m2JRPrSOLVl/ll4mL5G7xVnp2fD3tGf0Aq2lT1s3Pr1+e7CTf7b/yb91sVvxr+UGcQar2ei9qRHJxagHQkx6NlwjNlWj/Y7kQet+qtdvxsbkX8KxXBBrTwchzrMTR+sT5dGTTDTu+wDeCOD7sP33X+vvwX4Q5e+RnsbtvtDiZ32kPXmT2M8D8N8D+NgJ2/3vAHyzEp/WXtZWho/kyrKp1Vt+PV2GzfRvtL3eoKXZ9bCZXGk8jMZo2fXi8PxKHcuvFoeHjdo8tewtninryt76e2/xTFlX9tbfPfHsrS1S9h5fj/TeoNuLTP4NkuXp4QH2jjpyJ7H+2Et2d67d9eu5++iJFqcUrS3vRvk7pNcA+NSBcUVl+U7wXwfwRwH8IIDvQfmI9gPY7bM2doss2EdRfvjrywD8+wDeQHBbys8DeAduf8xqeYLJ3lHpHoW+rGNYmcel3soxwzC/Ulgf1OePXL9ecf16ojpfYvp4FE7ev8a8AOA3r98B4HmUj5E/C+BD18fvv36XsXjtO5DzCO+062qpk/YZJtO/Wn+wGKTf2jbzKWOP8C8jVj4jefdkBLbHRtRHi1+WI4+j1nyUwfb0vxeHVtaTK00m/yb/rPJz5F+0XzL9m6nr9RH1O7o/eto7IleeWO3N7kt6/UZiqo8n/3wZyr9lA9w64DLDowjVYkcuxr3yqE2G+wDKRuy1OM0GGCgbny9A2aC+DGXz+97r2J7Bwx/pkhuuenOwHEudJ69fLwfwOgB/AWWzv/V//Ur52euX3NxoGyW2KZEiNzuyXPqI+tWwcpNl4R9DudHx5PX74yib3lcB+AwAT6Hw4NXX+vdRblo8jYfX94dRePF8db5seJ9B2Rz/GoD3oWyIn73Wfb7CeDm1ciclspGsdTW/0o/Wv1rMLCbml9nQsBn+9Y6VR3E8YoEZGSul3/q9deEsz73Fe9QvizvatgyW+ZexZTYjXhxamVXfuhnSZPJv8k+WnQv/rJgz61mZYw2b5Z8n2vy3vFu2etbqGb6PxC5irRsAm3/RTWdLLNlrafJvx/yTG4JD9ZLnsqzGgdRZ/hg2gsnUZe1a518I4Jtwuo8D16+Pofw10P8F4K+ibIBY/HWZVfdWAH8HwHftoG316z9B2QQusTLuaLyVbbZ418JZr0zDWhx7LYCvAvAtAH4G5WPva+X2Iygf6/96lO+Zvz7ZViZe+6xjNqZoubP6L9IHWr0Vfy//pkyZMmXKlClTpmws967fI3cCojvuEXf2eqQn9qy9R1F+COqbUD6Cugd5HuWjri8AeDvKx7R/CeVXq5ene8tHXl+F8jTxMZSn2K8B8IdQnia+GqV9j1y/n1oeAPinAP4uyg+QeaLdoYpsQNbGsrt2S/mrUTa9fwLl6f4/+ZpPAAAgAElEQVRLUfpo6QtvY94rL6Jw58Xr17tQPlr/oyh8+jUS/3IMcg5Rjqrewsq8rI3V7Mi2jOJB9EmTJqx9W4zRa2AjNvcW82isxwPL1ppYK150YPfUH5N/d4t/vXKq/rzLssecn6ov95iLsxTrI9C1sCcg1uPtliT3YLwB1vIjF7pWDEv9ovMCygbhn6E8dZW/yHwKeQwP/yP4PoBXojzJez8eboyfR/kY7FN4uLF6AuXjzS/Fw03XXuSIEu93onxMl9WzDWbUtrZZ8nAQWLYx8nh5QPl489MA3grg01H67FXXr8cUu2vJ8h3jRR6/Pn8dyseovx/lpsqv4fZ3hjWR1xuMc1mubaiXMpZ3DavFIe2wccDa+Pbyj5174xLzkcG2bgbWmDwvdULO3IiN9G/UT3Q+i2In/85TJv/6bnpo0sOXS+VaRC5t89XTlsm/7YXmvGVxveWCfIRoi+cR9l4G4ItQPpp6yl9HvuTXcwB+DuUp+7K51/qjLqtfGTk478ynh5HYA8pNhlegbHz/awDvQfkY8qnzbb2+HcDfRvn4/6ei3EC5L9p5AG9/Tz9EsKx/WrB1WYRDa/GP2fZsedgovgXLbEhcxn8GKznHzjU7VtsyWG+e2Rpr9aUlk3+TfyOwe+Wf1reZ9maxli7DWrn1YvKwFj+96yyDtfK/JjYSs6yzsJH3KHbyb1/8uziJNorp9ZR9F4Bfx+k3KJf4+lGU7yPX+dfIrF382iDkYdkFpmHZwMKwQNnIfzWAt6H8tdOpc5x9fRDAtwH4bJRPEnjtrfPC8rZGX3qD81rYSMwZGT2mjfa7lo2e9lzk5HYimfzL25v8Gyd3lX+t9lrmmIz9c5WenETzPlIm/1aWlxhBXIn3e9ev+vxKYO4JHLPp+ZN2s8L8M7uyflnY19gD+EcGWHy/jfLx1VeTuint8gyAfwHgH6L8ujXwsK/uifPl4rknzpf6pe5IsMDtfq11rwzs4od95FZiPx3lL6X+S5Qf9Ho1gE/E+U08H4fyBPgLAXwWyib4nSjf1T7iZh+x667uD+Bmrqy+XPK42JB9xPpj0auxy/FVB7aHfxmJjodMr2c87RmH6zGVlbdgMzG1xB6JbQ05ld+oTP7lY5r8GyfnyL+RNhbR1qPMZwvvFyzz29qOPWGjtiRWGwukaHufVpn8y2GZmFhtA1wvUpdGy40CI5e2kdDKmL9MQ7WNtuwkb9GpbXitzb70+zzKhmD5Hu2UMfI2lA3wDwH4KG7ejAH074jWG7D65o2GlXoQuhYWlb70C5Tr7Pej/F/zl6B8ZP7zAfxBAL+PxH4OcsDD/4h+EsAnoXwUuv4BrTp3C0bmWeaq3jgCNzedqI7lhpNhpV5dVsdhYWv7Hodq8fi31YLzVAtbzW+k7XuL+VL9biF7y+nk3378biFa2/a+6WfSsznoaWvP5mP0jzXtub0Z7ORfn9+IhPnX85E8dqx9DDDil9nwPmY4UnpsfzGAb8bDxe989b0+CuCv4eFT9QgPNG569ZmPT3kckXafAPAGAH8f6/6N0SlfHwPwqwD+BsqPri0/pDWyD1r7yBpTsrqe7972RMSLpzX2rL9RmNY+bPXn+VjL7mj+ZWLw/Pbarcsn/9p8T/61263LR4zdHj4ia/jIcDUrvXGM4PJadlt0MzGMiGPyr093rbH0rCTayB5yWGWvB/CTAH4Xp9+UnPPrgwC+EeUXkWW+D+IF8g6lPIuVehZWXoAHFD78XQD/tjMf5/T6GQD/A8kJy/Wafakdr42NxJyR0WPaaL9r2ehpz52Y7DaSyb+8vcm/cXJX+ddqr2WOydg/V+nJSevmvUcm/1YW9hHoA8oi9lyFfcSJtYnpjSj7GIDfRPlxoHP8buce5FmUX33+BpRfRn4RJY/1R09rucLt73FeVXUHoZfBsu+cMqz8uO8nAfhjAP4LlI87vwI3/17okuVRlK8DvBTlF7yfQflu8AE3P9K85JzlVH7sGNW7h73C7b6p/6qoF5vlEMNmxtioLhuXesbyEfPAaP9Re+c8hzHpmZd75/TJv7y9yb8xWCSwa/AvGrum1+Nf2qznT0vYV/6i7WA6DNuTlxashfF8LMfRvpD2otgMXyIy+adjh/CPbYBZ0pfNhyQUK+/9jlvvQAviPzowRvUs7AOU/6r9LJSPvj5phzxFyAMAbwfw3QD+7+tz+UNJtcgNVb3ZQHUsNzfHSkd+R7Pmdm2rvplRb4rk90FfjvLk98sAfDmAT0HZFN4V+X0oNwA+CeVvnV5E2Qj/LuLf95U/MgU8HBvkplj+QJXsS+nH8mt973spqzeyrfzLjHHamMgmakt/DxJty5q+owurrSSyuDvlRnLyb6zvyb+cnJJ/p7zh0bqZ99as2fyMvhHUgrUwng8Ly3JxSq632pv8a8B6P4JVnzNCsfJTDpZyMWzZjD4Vjt59qJ8AfxjlV6FfirIRnhKXDwP43wD8Tygbp0W0p7BysyP7X26a6k0re8rH/MinvMDNTdpR2HsrgD8P4GtQNr539VMALwPwmuv3d+Dh3z3JX8dexOtL6yaF9cR2OY74lRtvefNFbp5b+ZcZ57QNszYu9Uw2zF6PaItUKdExuufO75V4t+LZUrKLu61l8i8f0+TfOLkk/vVKxJ58MCUluyG8FGnd7Hr5tOz3yOTfTsVa0B9EfXbxfxDvLf4z+p7vqD1Z9giANwP4b3DzxsB88dfHUG4a/Fk8/N5v3R+yb7x3VOeMkxn7DMvOH0H5oat3YH4HvO7Xj6B8lP0tePgL6Vaerb7UyqUddg1rehaWlUf4qGEtXa2sR87l5ouXn9Z5ZK9yqra1zG09svd+WGTyrw072u9d5d+UKVM2lpfg5o5b7r618yunri6vj5lNKVfi3dJhtnq+B1J/TNHCRr4X/DGUXzF+DuVXjH8/7tbHYLPyHgD/GMA/A/B+lI8+AyWn9VM++XHVWsf6yPJSzso8+wwrnyR+BoA/DeCrUL7v+/G0lXdP7qGMMx8P4BNQ/ibpAyh/Gyb7DaSMPblHVcawtW/LB4wyi0N1bCzmCP/kOCP9jhLNXs+d1jWwbMz1xmFLRudxtJyqbZ7fyb/Jvwx2tN+t+JeRPT+VYrHtOd67Kqca79aWs+bfS3BzM6ttHJeFpvyPXKbrycjE9Gx2WSdFJ+vIBhgoT76eRfkxrFeifCf444Lx3SV5BsCPAfh7AH4JZZMkP8oK3PzPVfbf1DVGbmjqjzbLGzUWtv7oq4b9Ayg/dPUXAXwu7s6PXUVl2QR/BsqT8Q8CeFdVb/Ul+8iy/K7wGtiRHGJYT9aeMDMbE1l2KmxrmZUPL1enwlp6PdioTP5N/ml6l8C/DLZnTTk6z4zPXtlB0YvEp2GXPcEeubsn7iyyxr4kgp38y9f93qajfj8o57KsxoHUWf4YNoLJ1GXteudR3f8KwA+Cb6Tu+ut/RfkP5Uhe5TGr03jr2ZI+o339lSg/2HXqPJ7D63cA/GuUH4e7D79vWZ9KHVnu1TE7Wj3jgVaX5d+UKVOmTJkyZcqUjcX7Eaz6/Yqc10+FZb20J8uYP4aNYGo54OaT6qUsYpdh5V2GjN/645u/iPJfsL8J4PMCsVy6PED5GOxfBPAdKH979FHc/oGjhWfL61jVLbLoo9K/ws2nuAsHrgReYmu9+oetFqmxnwDgz6D81dHnovz68RRb7gN4HMAbAPw0gA/h9g9PHUiZ7H/ZRzWWjU3yTqLGA/k1CMm/GguBrfU9/lnjSHQMHImdcjnC7pZHeTH5N6VXLo1/I+32PKUbLXvK9egnlVq9x03LfsbPSJn8G4v9PdE2wJqTmgjs107lQtELNtoZGTzzjaBN5iPql+nVC+HnUX7h+IMof4vzCMoG6i4+EXoe5WbAdwH4PwH8xnWZ/Lix/O5m/fHVWuSGx/pFYInXsHVd3bcL9jGUj7X/NZT/+/0DZoun1HIf5Qnwr6NcE++v6li/yxtw92D3pey3+uaUhwX4mAJRF+GQxT9t8K5vAGUH+MgvVe5VeueCteWc/EZv2lrYyb/Jv1a/l8a/kTaja8wtpMfv6Jij9lryZ3ExswfI+Bkpk39jsb8n9Qa43sBqHV6Xszq5iKyfxkQTb5XJOznsT5lZXNHvCkcHXWZP2xTXT7OeQ/mxpwco/5H6FMpGSm7oLlleBPBuAN8L4H8G8E6UHwzTNqCMU8DN728uOZY3ZuqnhjUfa5vyqTL7C62DsHUPwKcBeCOAv43yA2d3qQ975YDyvfj7KDeE3oHy9F9eL8DN733XfbCI/L5vzRG54azHjOW43nDXdupYF5E86eFfbZ9N0NonDyLYyDgWvakY8WthoxsINqZGyyIxW75b4+t5atHqt4cHGezk3+Qf83sJ/LPqI5xpfaDT47c3Zs9GC0bGp/VPS9ssbDTmnhxsHbNVN/nn6/fwjxqW7wflXJbVOJA6yx/DRjCZuqxd7zyqK+ueBvDVAH4FZQN4dQdevwPg21A+Av64k7tIHiWvPN56tqRPLaYnAHwdysbt1Dk999d3o3yHWvYBG180HVnu1TE7Wj3jgVaX5d+UKVOmTJkyZcqUjaX3O8BXuPnkReIWYU/WmD+GtTDazj7yHeAoln2cJ4OtP85Zn/8uyveBf+wa+/EoT4QvUV4A8BMom99vQnnq+5HrOpmfOr+Hqm45l8f1ufy46cJP+cu88mOyNZZ9BLvWuwfgK1C++/tHMX/Vu1c+AcCnAvgelKfAD/CwP7SnqXVfyj6XdbJc8oB9YuUgsJKX7CPaLfybcv7i3dWeMmVNmfxrk5YnVJZOtB9a/a4RT08s7OnaFjnYKn8RXM88Pvm3A/553wGOSKQBoxZ80vYVqYt+3DlTZvn1yrSPxj5A+f7jr6MskH/3Wv8plH65hI/UPkD5z9d/hbLB+V4AP4zyfV8py4an3gzXUn8kVj5Fk5uS+mOudX3dH9rmqt7s1LEBZbP7UgBfA+BNAF5G2jElJ4+ifIT8F1C+C/wc9M0ucLsv5UZUu6HCsEhgpX8LG+GfNh6ygV3WaTi5UY9iPb1TY71JbnSZF0NdZ93Ybe3LXqylt5bfyb9xZV4Mdd3k38O6DP+YHW2dWmM1/xFsq19rsxUp1/IWWStrWJaP6Dp/hN8WLJPMvkTyQO4/rPZP/sWwp+LfLafy/aCcy7IaB1Jn+WPYCCZTl7XrnUd1vZy8GsBfQvlI9LIZPvfXcwC+D+Ujz/XTbZbDFn7IHHq89WxJn7LsSQBvRfnRrlPn9pJeH0XhyZtJ/lmfSh1Z7tUxO1o944FWl+XflClTpkyZMmXKlCndkt1ctdjL+GWLYKlf69wH8LUAvhPAb+P0m5OW13sAfAPKhmb5r1etvdomQau3MLKenSNxLrFvBPDjuJwbFHt7fT2AzyZ51zbDQI4HGay0EeGM5tfbBPfcOIvE1Oon4zfqpwd7iX6i2Cj/ev0wrKyb/LscP5N/cd1T80/KWlgLNxLr9ZfEjcRqMTFs1NbaPJj8G4s9RP8GSb5DHC/n8juTLSLtZuKDgpVlS6ysXLapxluxsXbLBb6MabG3fNzz6vr9OQC/BOCn8PBjoI9cv/Yqz6D8KNR3A/hmAD+A8jT7w3jY/gPsDRCudY6ivP7YqJbTxT4qPCrsUehKbM1d+SvEVyhP6D8fwJ/D3fvl7q3kHgpffhi3v8NbfySa9eVBHC8ivwfs8WDRqXnIPtp8VLBAjH8InrM6rd6qa/GT8Rv104O9RD8eVo6ZGWyLLsPKusm/y/Ez+RfXHcE/NgdFsVLWwlq4kVivvyRuJFaLiWGjtta+bif/xmKv7hOFehF3rI7rd3nMzqVNuXiUx9IOq9PE05O22PdImZ1MGzMxeDn4BQC/DOBHUL4v+yaUDdjTKB8lfgKn3wwf8fC/jd+PEu/PAvjXKN/3fVHBsPbKTQfDwahfyjW7EfH4+1oAn4v9/VDZEeW71s+i/NjYi+DfsV5uoCz/wfvY9fGe5PUoPHo5bv43cC1aP1ljk8YPy05kjPLsZ/gnxbpOWvDeecbvyDgy2Ay+N38Re1tge+yfMn+Tf5N/e+XfKfkTzdMa8bT4PUfOZvjY6tfTs+on/+LYVe1f4lOs0QPsiDK52a7LvM34UvdKAG8F8B+hfBT3aYLZUj6M8mvOPwbgWwH8PG5uWiI3GA5OuYbV8sk20bI8i13kGwB8FcrmbE/yPErefwDl/5V/FcAv4vZT0Jej/GjXJwN4C8qGfo8/4vUjAP4BgP/j+rynL6Ecr42NxJwZ1M9x0b2W/1ELlClxmfzL25v8Gyd3lX+t9lrmmIz9c5XWtkXzeYq+3sJG1t7Z8E/bAGc2eKjKWcOzdwysO3Vr3zEYaU/b4Fq5Yv4O1fujKE/uXoayAf5jAN4A4FUoG2T537oj5X0A3oWyufpBAG9H2Xh9CGUz/OD6JeMG/BsD1gZY09N0omXepqTGfjmA/xzAFxKbp5AHAP4pgLehPHV/F8rT3+N1HXv6Xn8X+1GUTxE8DeCPo/wP78uxLn+i8izKRv5NKO2RY4F148jaxGp2Ilim11u2xiCvbcJbbOwNm7VtzSNT1pHJP64/+beNjODflClT7ogsH4HUFohysyZFDjJy0dcyIB2VYyaj78aOnECXdlub3/q4zh1bJD9Aedq3fOz4GZS/GPpJlL/m+TQAXwTgdRi7kfkAykeafxxlw/t+lA3X+65jWTa93oLf2zh6G4jRmwcWj2b/S1A2i6fe/L4L5QbE21H+WuqdKP3wLHj+UZW/iJv8e+Ya9yGUv+L6wyhPhd+CskE+lTyOkus3onwc+gNVnbZ5leLd0Mhil/PR/Z8dl6KLanbTMOrLusm0JZblX6vz8tJ6w9WTU2NbxsMWv5N/k38Me2n80/pW2oxK70Zc4jP2WrEev7NyqptS0XZs1d7Jv53zj23K6ne5mZNlUjfiL7sobdWNlvX61rAsV1q+WD4jNp4C8I0om5mrga+fA/BlKE+eWSzai+lpbW+xZfGvFiuPHr/vX7f7VwB8ZEAuW18fRfnrpX8C4K8CeIXR9pY+AMr3b78GwE8D+CBO/0vXX4dyM6eWTHuZXl0m8ZY9ZqOXf3uVnrGyxfaWsrX/tfxtMXedSib/9u9v8q/P3hay5fp2DbFse357sK12R8nk33gfd0r+f/beP9iy46jz/MSLFx29PR0aRU+vRtujaRqhEUIIIYQxRjZC+PdvbGx+GsZrYIZf6wGzyzpYgnA4CJYgCIIFD3gZFghsvNgYY4Nt/AuMEcZ4jWyE0ChkjZA1jaa3R6PpaZqepnnbc9k/8h3fevkys7LOPfec+96734gX756qyqqsqqyszKo6dRZp+GWF9XEEqdDqco4hn5H59wzriPw5cBeyK2iVa/Fcq5NO44Vn88b4jxPeQnsNUvf/j+kcwb9Fbtd+CdLHGZnywgjSwfyCrJ8B/mLCOv898IfA89mJ1r70fi+bNsNzC4bWaUOXu6w8FqnPenIcDmv5a89vLX/D4aDKX9/8+swxLfnvVSzSJtl2HxJr+VsyuvcCIbdtXz57cVF+i0KXaSF7/KDPkew+tFGbeXmWAlQ74jG2wirL9Y4WeWEZGbHy1+ElrZWvl5emowizaE8gx5+nmhQeBd6DfBP6U8hxZfDbwjoC6IVZ8TPkeP3PAH8KPA/45kUqsAC6d9uPI8egtRzAbjmJZNKiLcOHorVoPNossse8FtFVi5TbkkcLbSa/VcIidZuKNoO1/Pn5rRLW8penzZa7iD27aJta5Wbkue8x1RbaRbFsmbGQPQpv0VnIyJ+VrqXctfwtBxvAbNMp0HJudXz5f8jOiRyqvpNZ3zP5Q8BzfiPntbVOqzIpl/1Ua99oISDjsHq/a86qJ0sW7THgyYk8h8YVxNl9F/Jd5XuQd3Y7eG0RQddB17dsl0e2w7aQ49a3MP7nn64CPge53O0JJ00kE32NZIs2O1Zb5G9qtPAxFc+r5Kj0XXydknaVsZa/NqzlbzpMVb++zkZ2U2Lo8deyGTJkfllaJix3Eazlb0ny530H1HNCcJ7LsI7W21GJDERv90/Tl3GRE17LL9q5Keui65E1cqPGr3VqVK9VGRBeWB9hX3SXTJfjOdHRANGycAzZiRwbl5ALrn4OeIydtzp7Tp+WF0/GorYo8ShwBjn6/n3I0eixFwJOATcC99I2DvRYbZ2Us21kISt/nl7ResrSO97iRZSHx6dFb8HSlVYZlr61ys3MC7W28OrZ0p4WnxmaEouWm+HLkwPNR4scrOVvd1467Vr+dpe71+Uv02+6fhkZrclWVA+LD53Wk9eoXG8OqvFQ5p0p16tDTaY8Hrxyo/7yytX1aS239hyVm6nDWv52/y7zXrb87cKG8X/DedZhVsYbRphVXshUQNMS15pv7TmbtrVNamXqsDHeAS7Ltfo624+Z+nhx+rcV58ltLa8SdwA/xTTv/H4Icf70AlVGhrx2rNFGffL9wB8MULfWv78Cfknx4vV/VL+avEXxURsvKn9rrLHGGmusscYaa4yMaCXB8t7L/9oz1886fx2ny8uks3jU0KsQmo8oLFO+V25Em3WMvYUFK76W75Aoy7PqHy2EZOszq6S1aL3ydT9YKz+1hZuTyPHfsfFh4O3Isd9y9SrjVGWdxOyCQhf2u8A7kV3hMXEceQ+7+6xXJH/l75pD66XV8ujlEeWTlT/rt/UcYUjaFuwFJ34v8DgUhuzLtfwNg73A41DYi/LXt4xW2r70e7XcKWjHKGev9sdBK7cXgUVYO+6SQeQsLgvRsZwaonaI0kS0Xfmlg6fzLsNnKr31W9N6vA6FyLG3Fj5Kmiytrofn7GhavRjjHeXQbVijvQ5xvsbE48AfAx9FLqOyFpgsnq266fa0ZMcL03QPAR8H7lbxy8Zh5GTDtezcDff6EuO/9TtDO4QMRbQWby26amja8v8yaKNFiRq8hZkoD0uvtCK7kDI1rdUffWnX8menW8ufH7fX5E/3Z5a/PrTaxutTbqv8eXZVK/aC/Hlt6uUX2fMRXy0L4hZt1J9r+bOxdBmyDDWdsHTcynCrMaOGjBjOCpKmiZwrXb7Hlw7zOrov7Uz91sJhGdG6HF1Xz5heNspyy2dUmJUu46C0pANf5ijiy/+6j6K+/VxkF3hMfHz770EVHo0h3f5Wf9Rou9+RHngI+c70FYvxJeIocglXd2Gf7ktLIVr9bI2fMr6Mw4nTtIvKn8YiY3kI2j55ZGk9nZktw9ONfcrNIuJ5kfruJdos1vKXLzeLVZKD/SR/uj9b5K8vrWXjtdLqsCxtCyz+suVOQeu1qZd3a7kR+tKu5S+Xfuky5BljOqFuvFkQZhVuNWAL456j4hn1mUav1T16bqX1FhJ0Xt7Cwozdxn7Ex7JQllv2teVMWDxjpPWeo1WnkhcdZ/V/yaPVbjrfq4EbGP8I9A8jnzvSPHXPJe9WfbzVsQxtF+7J3wXgfuCtzG+JHgNXAU9l/h1q3ZeR/GGEe/KJ8ayhaYeSvzVsZBdN+8SvsUYNa/nbn1ikb1alX1eFj2Vhqj4ao11Xnb8MVoWPheBVwjKgLSMzCl+0zBKzRJpVhWUYW44x7HYqI6M66+gPAc8h1ygdktbFiXKRZIPdfe6FWflEqMnoBuL4HgnSDI1zyKeOHkNugLZ4Kv9bcR28seLJkEXryekV4L2M+y7wYXZeCGbpG41O/qL61nRUhnYR+athPxsAWWQXTfvE7xXsRTlYy99a/laZdpFFyEUXMIeS7/0iXx5a6ufZMWPTZrGWvxWB1xh6t0g7J2W6zDEAz5HTeUU8LeLwLWJ0Zld6Mw5fa16tO9lTGA/eYggMo0xqRx00rdUftYWE8vcGcvT5MOPhceT92guIk6nHQt8TDd4ClQU95i3aDeT95EewHfVl4DDSH55DH9UvcoRriwFeOiq0i8qfTqfz8/SNptULaGD3a422TFOj9cIsOg8RbW3RImqrSLfXysjUzRtri9JGC1qttBFPrbRr+bP5ayl/LX/Tyl8UXpO/SKY9Wiu+hbYWl23nGq3XtmW8J0M1HrK0VrtEaVrLteqXHTMZ2kVkaC1/u9NqukHkz/sOMMTHmWvwaDJ5RTuE2bR90/XBUHnrTm/ZrdtQYUPDWuSwVqKiHWwd75WRobXK3cBuiw0n3qPdRL49e5Tx8BjwbsVPCf1swTIcdV4t8uHRngX+DLgJeFpDfn1xBOmPQ4qvFjnQvzO0UT5Dy5/+rcM2jDhLl1rprDANL+8+tDpsA5+2lp+mjfLLtFlUlpWPl7dHm817CL6GKnctf35+a/nz+dqP8qef+9DqMEuGMmVbz5FcabqWclt5iNLq8EVoszxly7Xs5Kz8RenLdJG8rOXPz7eFhyitDg9pLQc4M2Foo25ItOS5jPI1svm3CLxlkOvw8tmitQZlxlHqA2slZ8Zu5dDFZ+utaWr81/p7w0nn5euluYrd3+BdFs4BDyNHoDUfFhaRd8+gy5Rb0j6IvKs8hgO8gfRHlk8LXT0ztJkFlxptVv68PLJKPoOpaJdV/rL1/UHHWv5i2oMmf6cQ/XsEuY3/GDtPR30OcI2i2QL+Erkv4nRjeasmf4vamEPLy5D5Dd3Wqw6rbpn+zdoAy+jrtfwtEaWR3zFTNrr3v0uPQa9/R8jSLCIELbTWKoYVni1Hr5Z4u1JZ3mrtNYbweP3funqmaWs7d1E6D5bS0k6f5ncTuQF6rCPQZ4D/QHykuMZz5NxZbVZD1KYzZBf4M8m8hsAG8kmq89t/rU6wJ1ORDGUX+YaQv7H0W0Tbqo+GpF1G3bOLuNm4IeaqWjsNRVvjX4et5a8f9ov8XYVc/HgNomePbP8dA/4xMhce2k6jF4ePb4eV2EJOUL0nWaep5C+DofNeNr805D+2s7usfl4k31Vtq2WVu5a/At4uVwtjWac4CrPK1M6jRevlY9H2QUu5Hr2n5K24qF2iCbDPrtiiyDirZVy2brX66nbTbacdbkQ2H8EAACAASURBVKutIsNpA1n1PmLwuwycQRzKjPFq1Q3s+lhOFkZ6S669/uj+n6V9ZX9RnETa6jy728eTP6t/I/myxpQ3PoeQv5p+y0CnP9ZI3wczZMHmSvEMef5b07fMIxFt66JGKQNZnqN0NX5r+r1vuR7t0PKXpbXGTN9y+zizB13+DiG23+b275PInHcL8KWII3wc+RJCH2whc8ShIqyP/HX8jbUYbc0tkf4un7MykqWt5ZN1CBeVXYjr31Juq37QfNTKXzR+kUWpCEMuaK3lb0D52zQidaNEBluNKYuZ2oTZWoaFlkkwU0bf/HS8No69dq7lX+Y1I98ufRFNVFGc51josCjfKL+afNWUR6bdl40nkInXg+X8Uzxr6LQebZnWCvec4xlybPvxgOcxsEi/ZeQgMzktKn9dmMeb/m3xWtIfAt7h8DoktoDXIreBX8Af5x2iOlv1aqG15i2LTtN76XS41c7ReCnbwqqPprPy68Ksvs7k29IuQ8of+OVq2qhci7eMHKzlLyd/NwNPQj4vdxfi8C5rwXcR+TsJ3Al8q5FuGXgGu/tU81TCk22PNho3Wg7LfK30JV1NJ0S0Vhm1PtJhnm1h0VmyYNW9NgY9HWLx29LmHq0u19M1mlbLgceDLqOMW8tfnGdv+bN2gLXi9QTWMhY1c5GwWHFWfPfbm0x1+ZHCjepRm5A9vry0UblWfla+Osxq9zEmBmvS9iZ/iz8vzKtvZFTUhLoMswwDXY+x2tDDI8huqjZcOtQUVpQuYzx16TYStGU/XkK+C1xeUDUGonEDO/vZG+c1hRkp4JoustJ5cm2VZdVDp4v0zq1OfkPiMnLEcROf/2y9LBrPMJph00Z9Hs1TEQ/R74jOosnSZvnJ5ptJO6T8Zcrtw3trXBR/UOXvekQ3vBRxLK9BjjQfY7n6exH5O4y8d3wr49k5V4pni7eoT2r9le1bS/48eDohktdaud5za9psn/eR8ywPtXIzbeyVm9FlLW1c86s8PjJxUfyBlT/vCLQ22qwJL2MA1hj1Oj/TUdFE5qX16C2juGUiK9vKorUcSI/HrKJvMSQWRTT4rXTewoaur/4d0etyvD7LKBHNVzbtMvDXwMWCF8/Agp3tE6WpObwdurS1RSkLW8judd9jcn3hTVq1iSRa7NJhLZPiEPJXU97ZPoFxjkBfRuYOb+GhfM7w7rV3ph29cr1xZOmgrN4ZCjU+xsTQ8rcMXrw+zqQ5yPJ3CNEHtyLHm78YeD7i+I51yWMNkfxtAP8dUocpF6mnwiKyMIUu2YtYpXZaJV7gAMhfVgm2KB/LiatN8JlJuLX82uTlOXW1SaimsFviWpxrHTeWUWLxYv0veZqxu26RcdHR6vBsu0S8aXpvJ27qCTZjfFkLUjqtJ/uW8WXVv2ZETiF3JTyeo7aJFqf077KcEl67lPGt8qfz9eClWaVJxpPf2rj3whYtt0/asdpzqnItrJL8ZcvJyNBa/mQH9Sbg9dv/rx44/yGwSjpsjTXWOECoXYJlOYYZZ7V1kqnR1pyjLo036ZXxtdVjz9HK0nrPnpOSWc22ePAM7WUg2uXy+KzVNxtGkM5zDL2+jNp1FSbiGi+RwZSl9frH46Wjndrx7RA5kjUd0KFGa5Vn0S4qf5aTXVugqfXb2Ih0A9h10Okt2qjuWu95beLl7y1ueO0Z6dha2R6tJRteuX1kwGsrHVcrr6Vsq9+tvrPKjPLQ5UVtupY/uZX5Jchx5xcGtGNgEfmbAlH5nixHY8Sjz9h9tYVWiy5ahI3K9ni14I2RSOe00Ho0JW9ZWoveQm1sZsrN9lU2X4tHsMv18vbo1/KH/Q6wzszKoLWTokktotXlRnx6HaDpLb4ifmZJWp1W59OltSbPaAC00C4bZR1rQh8ZCxtFHOxsy1Joo/qWYbUJ1uIJI25VDAXLuGpRLJFCBp+2LCeaVKZsp658S95q44oizgrL1NWSrT7y5+kKS2fp31HY2Mjq9i6tp5et3147RXo7MgZq+r7Gew0tfGbzrxlGtbwzbeWFLSJ/Xrkt+US0NXvAy28/y98h5N387wG+Ajn2PLWuXkT+poAuP7ITa8+WfeOl1WG1+cSji+aivvooo3s8Oe9Lq8v1+M/QZlDjOas3rLha20d5reVvifLX8h6IN+GUcVrZes6oji/L0Ia4zr/WiVZcdjB4/HiCUcurFdr5i9AiTIsiKsPj02rzaKBYzrU1kBaFl+dUhsIhdn8uwhpH3f+MgRfBS2ONPautuvBNxNia0sDy9AXU65jJs5U2g6kN0mUiY9D2MUqG4mUvY7/VZxk4yPJ3GPmG7+3A1yEXXenv867RjqlkYJHFgaEXFlaBtjWfdduv26BKaznA0W6ezlQ7ppnJJrsKUVuB8ZBt/L6d6dF56axdqGj3tKT3HP7SGB9zom3lubaI4dF6KzgebSQbtdWg1pXCofGPEEPFW+TxnjMLSllaS5ZqbXoYuQBristULFnx6qDDLFrwZQsjvNbOHq0nfx6NpTusMTElPD0ULV5FCwx6oaFWX0snWeFRuRZvLe3szZdWfTzea/nq/KJ8dd7RfDG0/EV1r/G+iAwddPk7gVxw9aOs1ru+i8jfFPDavDYmFqG15M17xoizZDerW6y0LbReXh59rdyaPGTbzaJvLTdKm9HDLX27qAwtQntg5W9TJZ6xszI6Q502UmplWNZYjOKzStEzMjNhUV1bYQlYxIMlpJrWMrLGRit/mYFRy0/nkzFSvLb2+MWgGQMnEeNFjz+KZ9hZX0+2rHbRtN2z1RZlnKX4uvyOIE77FIZWVmmWbVeGd3H6OapvVE6ZX6v86TKs9BYv3u8p4On2iC8vztKFOn2WtgwvZbqGvu1slZ+l9+YdL49MG0d81cruyl9E/qL+iOhqvEW6+iDK3waih78XeDGr5fzCYvI3BWpt7sVH46VG642RjF3i6YSMzHnles+tabN93kfPZnlYZrl9dE3L81r++tNG9J8Nt4zl8rc2uvXzzElr5W8hio/y0/9ryDaOlW+ULgqzOl+3oRXv5eUZ8BuIM9J912/oHblDiIN2DNn1ywperT304I3oI4ffasNyMHpt7jk7M+A8O78HuExch3zrsIPl6EaKKGNUlWkz8mfRle12HJGJMfE48rmoPvJnKeMW5Zp1BnTaSP72IzJ182Qsq8uzc0q2zYcqN0KfPo/m1RKtfE3lWAyFPo5tif0mf5vANwNPYXyd3Ad7Tf4WsTEXyS8LzxZd9jyzSv1oLfD3pV003dBYy1++3GboHWDYuWJpFZaZALzVgMwqRUu+1gqIZ5B6OzTWDpplfEQLBH3K1cjuGh1BnNJNxCE9hDi/1yPO1GEn/744AnwhcA44iziHW8i3QLeKv44/it9ev+OEZfLw5DNq69ZVtyeKOi0bJ4B/gvTnFex2Al/+dJtY47ZWXyuNVU73/wTweWZtlofOAda81PrcW+iw5M+TvTK9186t8qf1rf5NEG5hSsfa4i3i2ZtrLHn1Fse8/CNaK48ybcRzptzswqW3EOXFDVkuTpxF10f+an0blevxbZVV4+0gyN8hZNH7lcCNyFy9avB0Y4dMX44JzVuNp0yfeWXUaDU/Xt7Z8Z95bqnvIuUOoeeiuGzemidNW4ZbcR4PNf0X0Zbha/lbTrkzYGNTRWZgMeAZiSWssCiu9qxprMkE43/0WyOaqGo8WQPAGkheXh6fTwJuBr4A+cD9Uxje6S1xEvjftn9fRhzgjwN/BtwH3As8uh3v1TcjC15/Ru1oGSxlmg2HJvo9A85s13UMnESMlxPAaYMvT/Z0WK3drXQ4dF55XZvehMjhmLiI9ElkrHvjq2ZURXW3xqkX59F6ctYho4+y+nkKLMJzVv9labJle/NDJs+W+nrzWJS2hWbIclvLqKWr5evp+0y5Q/G8l+XvRuS93ydXypoSmfpl7bEx0CIHmfhVoW15HqvcIfRcJq6Wd0bn9Bnzy2rTvUi7kvLXegt0bcUzU2jG2fUQOZh98rPyr+XllevVyzJ4rXKt+EOIg9s5vDchjtKR4u+QQbcsHEaOv96JOEAXt/9OAw8A/xb4FPAIu48Qe84CKryWTtMMuWLc9cO/Ay4NmG8N1yBt+mvbz2VbaMUQLfyU0ItR0XjR+UTldicCbnVrMywuA48hO/IeXxrWam9WrjLypHVQX0T9scZi2EttOxWve6mN9hqW3bZHgNuAb11iGcvGXpC/lnnDStO3jou2zV5o2z6Yql1a7NK+5Xp+Rabctfz1wBDviy6ys+vt2tTybeWnxWHN5NfCS/nfK6d73kQmtpPIe6EnkO/5Xb8ddorl7vZmsIm8D3ysCLse4e0m4IuAP0ecljPIsWnvOLHepSsdtTLeo9NhnpPn5e/RnmW8HWAQB/irEQfYq5sXZu10WvXr0uh4y1mMaG9Ajtofd9IPjcvIAoulNzxHV8uBbhurHTSthSi+Vf6sRbFFJ9mpsaiuzNAOrcvH4LmGqfp7r8jfIrIxRhlTyN9twJcic+9exV6Qv+wiZ6T7Fym3r0xmy10F/deCRcurbUR5aRbVP9kNHStsLX/D0wJzB7i202Q1RmlEWo6sNvY0asy37NRoXjOoGdSRo1Tjq+b0W0b4BvNv+T0beCpytOm6SnmrgM4hvn37+QHgI8AfAnczv1Sq5ojU5KbsD28hxZLR7rfleGjaGeO+Awyy2PF07PeAF1nQGTKsa/vbEZkc6+RB5wCX7WLpJ5wwjOdafTMytAit1i01p9r6XaMdC1pXtvKcpdV9n6W1+M3QRvyW+ej0Hq01r+i8anNQrRyvfjpvnDiNPn25CK1Xn6FkaBHaVZG/Ds9k+a8/DQFLtsvwMm4V4PGr46znLqx1zGfL1ciU69FHtNkyW2itNNHviGevTTN81/pD/27py0VoW+RgLX/ttJH87cKG8X/DedZhFgMbRphVnsd8jaYlrjXf2nM2bdQmJ4HvAH4b+Pt99PffgP8CvAF4IfNPNFht2Ec+tFzV5LaWV4m3A/+VcdvrB4BbDF48Hq1x1Zc26pMN5heufBr4m0o9hvz7S+D7kZvONZ9ZnVOTt1rdvTZeVP6GxhHG6ZO/Be5CTi6sscYa42ET0cN/gIzDqed46+/vtvm7bcG63gK8HrEjxuB7im/ar7HGGhPBG/Az9V+Hd7+t1Y4oP7A9dtcTV8jQWKsXVlovPKqzxXsUZ7VJF38UOTb8NOBZzI897ydsIPV8LjKZvRT4APAJdh6NnhGvBlptbZWl6bu8N9iZl7X6pcs4jRzjvjGo39D4OuTY+GPABXbLXvff2oWIZN6izeySlOWcQGT1WsbddbiEnCgo3ymPVigtmbHaxhub4NNHq4yt8pfVeauKZTryZRl922noNp6qz/aDrOxVrKL8HUZOhh1n3Ps/1mjHeuwOj8j2XmMn1u1Sgf4MkucQRMZ1adCVRqVlqOv0JazyPVrwDVGP1ygvXZdaXhGtVb+Sh03kPcobEKfwGYhjsV8ns66+p5CLk44gx6UfRJzMR4gdsz4OH9j96DnUFu1fIc7omA7wrcCXIw7wRwteajxnnD0dpn9743GG7L7eALwAWdAYw/npeLoAPMzcAa4dYbHkqKTz2sp6bm0rHabz9RZhokWITFtn0w0Jq30tHjK89aGtxVm6o4vDiYO6/JRhHk9eX2bL9fKvxVs8evNkludlyV9Lud6zNY768LaX5O8w8JXIHDr2mO8wQxavu0XsLeQyzA5byPxeXiTZR/6mQE2uvLisPdlXRj2a7Fjpfneo0db0X02uy7RWfIv+s/Iu823RuxFPFm3fvo/gtXNGr63lb0D5q30GKVNBr8Nm6rnFgPTSWRWJ+LbytPKKwnVeUbkej93vQ4gD+C+QXdGbgjz2G7rLs74ReDFwD/BO4P9gt8zAbvlpUWTl/5qitH7PkE87PdajnovgCPJZC5g7wJYsls9RmpocY8R3KNvqFGJ0fWOiDkNiC3l//BHm/Jb1qOkc/buE1/c6PqOA+8ifp5s0H5Ge6ZNuaNR0bBSeSZPRs7X4SPfX5oWWeaOFtjUuE+/xUaOZSv5ayvWeD5r8HWHn60RT4DLyXfb3AP8JcYQfUmnOIwvIHRYZM2MiI1dZ3V2jzYRH8GQoU+YyaFvyW0T/1cppHVN99dAicltrl7X8tdO25DeD/BFoy/grn7s00SqfR28x6aWzjFyLl9a8WmCVG5XdxT0Z2UH7FuQY6X7d8c3gCHAH8imllwJvBj6MODqw25EoMTPSQNz+ZV41uenintj+Gxs3AF+LyMePAOcUX1bbRKuHEa1emILd+d4CvA64a5jqNeE+4E+M8BrP0bj2HOgyrqZHrLZeRP6isvYSFuE522/LyHuN3ejTZpHeXma5Y9Cugvx1nyG8lfYdm0UxAz4OvGP7/4PIAuWs+NPpF6nz2PVbY401Dhi0A+xNYNHurbUC4TmHWilGRn3Nu4+cmIhHawcmW7+I1jKcN5Hjoy9GdtBuRd6lPMjOb4fN7b+bgVcg3zn+EHJ79GXs/qwZEtHiiJe+LGcTOeL7fOCrEAd9bGwgRs5dwMuBjwH3F/HZhSYvXrertcMJ0g7XAt+HXGZyFePjNHL8OdrdpXjWu8Tl74yB2yErbxot8hctSmiedD3LMB0+NqLFQE/eIrnTfefRevNIa7m67ay+j8qt8RfNS1bZVh2yefahHVr+rAWhzKKchsWzt1B1UOTvOHIaZ+zx/ihyYuttyE7vGWSHF+ry14X3kb8pEOnlSOd6dcj2ea0dIp4y5fZp16jPavnWaDNlZ8vJ6tGWModMW6ZvGQdr+dvN76Dypx3gaDIon63JIzPh6vx0ed6EGPERTaIWMumsycejtdKBrNZei7xD+q2IEzHlsaVVRefs3Yg4XWeRo8fdp5M66L4u+8TqL2tAomjK5+Pbf9cB34Ts2E91y+0RZGHg67Z5O4ccOYOddQe/7iW8Z2vczLbLP4UsAHz99vPYhskV5ETAQ/hjXfd1GW7FefrH010Z2r7yp5HRY55ezOq+IWHNAZae9HjzZLI2P9TCa21eGxuL0LbU3zNoPNooT0sOsrRl+DLlLysHVngfOWgtdy/I3zFEL4+JJxDn9+3AbzppxpK/MaD7yeo3j89MH2dpM3NEjSbT7hlk8/Xsieg5S1vjf4i695G/RfKO9MNa/nzaweSv5dp3ywC2Jm2NWTJdBKsSkWPaKsgZAanFa56uR3Y2/zl741u+U+ME8C+RXfJfRCbbC9txXptbK1u1idRzml6OHFG/k2l2Oy08EzF6Ph/4MeSiEcto7hDVXRspmrakuxlZBPgOZFFiCpwBPgncW0nnKb0NIy4a51qXeItg5fMi8mfxtKzJdxkYSpcPjWgCXyVkDcM+efWlHVP+Mo7fMrCX5e848HlLyDfCrwHvRl5R8jCV/E2FqcbqEPTLxCrosEWwTP23ivp+Cvplopm3vt8985zavpNahvHa7rFOFxmw2TJa42eIw3In8IPIruZ617cNtwI/DLwI+CHkGGx3JNpy/rRDZx15KP+XsnvddnmvRi4kO4bsdq4SbkYWB24D3gh8CjmSZp2s0G0QObtdfEd7CDmx8PXAy5AFnKmcX5ALVk5j97nuS90WsFtXeHqhhJVGl6Fp+8rfKk8ka6wODpqsHLT6tuAEMh+MgcvIqzdvR+5iWGONNdbYV7DeAYZ4h9XbzY2c08zOCIn4KK3e4Wpxfr2jXNGRSev3zcix0RcgjtWUDsRexRHkm8hHgO8Efpv5e0dgy1Gmj7v47ibuu5D++iLkuPNVjH/MN4PDyFHsJyG7sjcjF5B8AjmeVn5qwhtj3vMG0h63IpdvfQHzdpladv+I+bFvqC88ZdKV8VY6L6723CJ/+rclc3qBMeO8TwXNZ/m7D+8ebRfn0Xv6Pio3s4iK+m3xqWm8+tbmwOzJglpbtpQ7pPxlytV19OgjObBwEOTvCOMtqF8Cfg9ZhOzmmCnkb2x4Yz56rsV1+Xoy1VKOx6MVV5ZbxrXQ9uHJK7fP87LSerRWXjqupVwr30XlIMPjWv4S+UbvANcmr1pnlP9nRpxm0qP1+NHKNMqzBi9NJs/u91XIzu/LkKOra/THJrIb+f1I+74PeQ/2cpGmlDdrQGCkPYz003XAdyM3HJ8YkvElYQMxfF6OfDP6QeQd2QcRJ7H7FuNsO7w2brsLyA5v5/si4C5kl3lqx3eG1OUT7HSAS2g9ECm7iLamcHUeHm1N/ixaT49Zk62VNqPXxoCnh63/ej4oYbWJpvXKrPETlRvlUWtvK75Gm+Hdk6dWOfDmLytNh6HkL5qnI36icoei3avyd4jx9PMF4L3b//vKwaLyNwUyNmc0NmvPmTbM2rot5bam3Uu03tyr5a9vOZbeyZQbxS0iB2v5G4jWOwJtGdB9YHWYxZilIC2FqXny0tQmyQie81Ar9ycQJ+Igfdt3DPwA4pj9CvI+knYkSuW2UYRro+Uq5PNCLwJesnSul4drt//uQnaAH0Y+S/E+4AFkp9xTaEeZf0bjy5B2vYPVOqZ/GrkJ/DQ7x7K1MGY5rFEc2DqnZhjD7ry7fDPyFy36aXiTzl5AjedMvfvGL4t2KgzJc0teQ8jfVHKw3+Xvf0BO6iwb55F55aO1hEmMLX9DomaHjlnuGjaWOXajPKaSg7X8DYTSAbZ2NDIrAFFYlIemzTqaVnnRzo23SmMZpZ6j79VjA3lX8sXAc5nu1uD9jtuQz/E8jlyKVH6f13IsSjk4BdwOvBI5Wr0XdnyzuApZcDmB7AxfRI6rXUYcyK0i7fWIo3tom677m3rHV+NR4C3YfVk+4zxbjrClV6zx7smQ58hCXf6icnVeXrlWPb2wsRHx2PKcbZcaLNoobpFyvcUUK11tAUfnAzk5aKlv7dni1SvX4yXLc0YOMs8ZflrL3SvytyycRt77nVr+psCQbV3ruxZZHoofGvNdpA46TTZth0Xrn5G3RfPP6oRF27AP1vK3M82utJsqUYeaE6kz8yrmOY2WctNhVppIMVplefnocO93xMcmspN2B/A1iHM1tTG6X3EMcdRehjhx9yLvBcNuhwekb44jq+W3Ak9FjqUfZn/10aHtv6sR+QNph8vITnD5GamTrN4FXxpnkF1sfemK50DoeII4Sz9YE2TkyEb6rE+5teeMLprKUPTKX+S5lbaEJxcWFuU5yq9lfhpLDvrWt0+50RjNPi/SH/tV/g4x3tx1Dvgrppe/KTBk2ZZM6LCWdsuWVVtAiNK1yHE2vkzTUqeh+iKqT3axJdtWWR5a4/tgLX+70+xIW7sF2luR7n7rtF0BUZzFbFaQPF4WEUydf1Tn7hnEmXgl8ELG/zbfQcQh5DNJNwDvRBxgS85miFzfhNzu/GQO1meoNhDZHOOo3ND4BPD/IDv9Xd9GY9lzemtxUb6Wcs7szOlwrSezk8Ma/bBKRvRBx0Fs+2XL3xFkDhwDlxAneI3FMOaCZdap8WhaafcL9nNbreWvguxnkCxjz4rz0pXhNYO2ZZU1MmJrKxJRWFTODJmM3oFcorQ+9jwuno4c3b0AvJWdx3xPIEfRXwo8m/6f+VpjfFwA3ozcPAq7dYm3s2TBcn5rDrFOp8vNnFxZhOeDgnV7CBZph3Ub9sdebbubGM/WOMP8hJWFvdqGq4BVb7up9NKqt8t+waq386gy1DkI3pHmyKv34rK7tLU02W30TF7ZlYYM7c3Ibc83s1qXBx0knAL+BfAYclnHFWSn90WIoXCKtfO7l3AZ+GWkLy+rOGuBreZYZhfcdHp9QiWjv8p05f/aopu3i2zVwUrnncQZG5bDr3/jpMmEZ+IjGbFovbgaDzVY8mn1c6bvhqDN8luLa5W/TF96tDVky91v8jf2OF8F+ZsCQ7XzEH05lG6K5M/CIm1Qm9dqtB2GqG+fPKaiHRpr+UugcxI8I8+bzDWTVlxGgdWMxFb6jJO9SNnXIBcqvQy5iXeNaXAcufTpBcCfI7vAz0NueV61S53WiNG9r/xOZEGj3NGP9ErkBFuOazS2Lb3WOcORw22Fe06uzq/mWGd121SGolf+IjxnFioycZm+9+L6zkfe4rHXz57MWGmiOA/R+Mjks6j8ZdpsEdnNlHuQ5G8ZmFr+pkBtPrGevbBMXq38DDVmWvLpI4OtvkAtnyHoF237vuVaaPE/1vK3JPnLfgapC6vBU+baqMwwWVO6WYM2k1cZFgnbM5Hjtevv/K4GfgB5V2mL9YLEXsVjwMeAu9mpY7S+8RzRyDHFoYlg6aRoYrLovYXCFkzt2O4nZB2XPvGt6YagXUWe1vAxhvyNiYMmf622aUtei/Cxpm2jXaU+auFvLX9LorUcYOu4S8bxXPZKc0t5QzbYDHnn91bkUqVbF8h7jeGxPoa+d/E48B7gDUZc6UBmjslZjm7pCEdOaY3W039lGo3o+KOVzio3wqIO9lBoKd9aEI0WETy6VtTa1Fow0XE13q0ysn1Z4ynKy+Kre47yqI0FEPvgMPK6TxYXkEWtCw6/Fh8tx+MWkYW9LH9TYGr5mwKZfs+OdYs+WpzNpBuiXJ2uTJudr7JjpIXnKKylrTSvZbqjyBcxriKPM8hGy8Wg3LJs3VdDpNP1WMvfAG1lOcCesecpOCutDovy9GiiuFZk6ax0h5Cjz69CbtZd9U/JHDRM7QCs0Q+XEef3D5AJBuwxqh1hT2nqtCW9doJr5VBJp53gElq/1eQz4iWDPvpwSLSWr/vQo1+0XbLlWPE6rRdXk4VMuVmeanl5aWt5bCK35J9AFhO774MfA/7BdnzL6ZrLwHngbxCD8QJiPD6BjPPuNYdse1voawdYtHtN/sbEGPI39JhZFFl+WviO7ORWvdO33ChdjY8oXUbOhwrLtFW3aHcS0WHHkFfmrkFs+X+A6LnDRlkeLiA3o/8NoseeQHRct9j3BLtf3arx2yddnzAdvpa/Iix7UZD2/vV/y/D0GEwxpsr10rdMNmm1lwAAIABJREFUhJm0VvzVyMVK38za+V1jjSGwhRjD7wA+xc6Lr7xxGjmjmjaTVsOjtVaWI30WrV5aZXrphlwAHAut/EWLoVHbZPLMtmmfNCWi+aoFy17cBZnvOwPxMPNviN8CfDHiCF+LOMPXsdh9CpcRx/cM8CjwCHJfw32I4biFGJWX2Pm98kVwEOVvaiza5jj0q7qw3VcuOmT1xV6Rg2XrrBo2ET12BNFpRxCn9zbgcxFH+HrkFMthFrsc9TKiyx5G9NpfAfciuq3TaRcQfVbqtCHru5a/nVhI/rwj0DPjP8b/XRk6DNZWyT26Whl98/JglfFi5Mbh9eVKa6wxDB4HfhT4OPXvTXq6RRuamRMoUdoINV3k6bfaKZlON1oLh1pvWo6+Dp8C3o65txBgLVqU4dZCRVRfq08zjo3Fmy4v287efOnVx+Ld483Lz1qQ9vLu0h5DjMGnAE9FjMRlfS/8MOJInwCepOIeRha+3od89sw7AZKVoS5sP8vfVBhS/spwivBaX44Jr68132W81+9Wek+fl2k3VPpIf3h9UtNbUdoWWi8vjz5qC6+uVp5d2hPIBtXzEL12iuXdB3N4u6ybVPhZxDF+AHmd6zSyQ1zrS68P1vKXp/Xy8uh3tEV0BNqrnC7MS2PliRNPIj6aECIerIbxoNO8GHgGbe9ArXFwMEOcud9Ejg0+DTEw1/DxYeC9wPuRI5KQczi0wmsZzxZtZLBqeg+RwrbytnSYV0aULkM/FrzyI75qNNb80bWHRXsYMXpeh+xcTnFS52PAHyLH+jt49dHItpXOL5KdDtch91Y8B7gRaafumPNUJ5quQ3aebwe+HXGI/wzRo+eRXWFol6GvRwzhGwfj1EZLX1v9dyPwK41lHkWM/THwYuSzghdrCR1sAfcjzkD3PeFWPREtOC0TNd0a6aIMbSbtDFmsOgn8BIvvXPbBReCXkPn6CSM+qnsUVqOt6crDiP64jfnXWI4zf32j5WjzUDiOjM/rEZ32OOIMfwhZ4LOOR2eeb0a+bPKcIZl18NuIPnugwpNGbU5q0eFD0kb0nw2v3QIdOa6RFx45uUMYA9pgbuEzgw3kWMWzEONhv+z+nmf3+1eHkfqtv5ubxxVk1+IRZBfz9xHlewb4l0h7HpqMu9XFx4APIJPq4+zWGRi/tfPYxXtj3lqco5LWKtcLLx1oK1/L4S3jo4W8EhnHdhV2iIZCrS5R3CngDuR2/u5drzHxEOK0nR+5XAvdEeebEEPxBuCLkN2RE6zGXNYdwT6OGPnd31HEGX4YMcT0XFXDCWS+vn1IZg2cBz7dg66T8SOIvK4qrtn+64vO4F9kgWWV9doivGV09tWIg/cM4E5En429IPBBdh/lnQrdEefbECfzcxH9difSVlPbWpuI7jqKjJuLzN9BPo7sDp/e/t+Cq4DPZxxdcT+rMTeMiprTo402/Qy+MVnSR4M+MmYjfnTZ2fxraTaQdrkKeDZiXO01lO1T1v0RZHCWK1LHEUOpuxWvNNinWoVdZcwQA+gTwLuBX9sOOwx8FDHCr0eU3xpzXAHeAnwEMW5LfQK7ZS1a0Ysc4SytBytdGeY5uDqt9+w53d7inhXW6kwvG616PrtIkTkttIk4PK9A9NjY2EI+4fXbyPtgfU8peXE6D9gt8+X8fAQxwl6KzF+rrosOMXeAn858kay7efUKfn0z8/8yke3DVRijUyLSy5H+WwX0sU+tZ227enMXiB57FvA9TLOjeQX4debv60f9V6JFl0fjQy+GX4Usbn07cBfT6PkWHGV+VPrpyGm3DyBHpTt9lpWpVUKmf2vzX5/8Ogwufy3vAEeGnVfpTKfWDMZaGSXNojx0ZdwA/CAy0KZeXWpFt3p+L3LD7mlkt627wj2alG9gfqTkqxDDsjs2t4YYZb+BHO06w/zypo3t31vIxPV65BjZqfFZXEncD/wU8FbmbeYpt4zBoRVazVmaqd8ZZVxzojNlt/BoOdLWgmOGdkx4E5QOj4xfz2lAxetwgB9DFp1uy7M8GB5CFnS+E3vC1mH6Pyqt/m/JjGUcdP+/BzkCfAdtn/lYJdyBHL99DfDTiPF4D/YcvypOkkbWuD8I0As0LfpvCli6pmVBSsdFi5XWOD6KvMox1Rj+BPBG4E1GnF64xHnW6S2dZqUt4zYRp/c7ESfyyTn2Vw7XAd8BfAvwIPCTSBs/gt0Wq+AMR32bcUijeVzTemm9trHiesvfpkqsB2p21aa2AuAN+paOrvGTRc1Q7t4vuItpVt9acQ4xxO5HbtnsrmU/jzi+l9jtdHgG6Vlkxe/R7b93I87wKeCrEQf5OvZGuwyJBxFD90+Qdn6cnUeDykF1CVk9/Q/A1yGLCAfN6OlwCdkd+/3t/1eInUJLGXrPlhOMk9ZyxjyHt1aOTqvHUlS/KC/Nu47L/B4TkfEXhWdoovmj+30N8FzE+T0VlLUs3IscE3z79rPHuxfWEg+2rM+YXwLzMsRInOod6CHRHSn8BuALEL37Vuav8MD0RiK0j89V4HlsROPCCp96rswuglrxfWlnyEbLdcCrEZthilMbv4vsVN5d8OXBqnt2EaPWbrciuuw5yHuw+2ED5hAyT70aeW3uD4DfIW6LqdDCkzUnZZxkr5yhaCP6z4ZvWoEGPE/cMzS1p20NfEvxaUfao414tujKMMvYLtPdAHwZq717dwXZ0T2NOGR/gRhk9zI/NlYi42jA/LMUM+Y3c3YXzFxAjJEbkF3hE9txU09Yy8IWYnA9hryz+gHk5lL9np9eldpC+uES83dXum9sHhTMkEWXjyIXXn0MWfGE+U5Al85SXNYuWpcuotX6I3JQI1rw9UNN19VoLSe4hKfTVmFiLDElP8eYO303Mq7DN0N0b7ewc08l7RDl6bw2kLn7FsRA/HLg5chi5X7Rx5tI3Y4j+vM8okfO0v9ypjGwauN0r2EvtN8i+tijPYW8p/8SRN7HPHk4Q+zI9yF67ZE4eZhPX3SLXjchl4l+FbLzu19szA3EBnwK8wu7ziOnNc+zGu9aD4VF5GBU2tbPIHkFeYM6Mia9tDUHuYbsCryX11OQgbfKuIAMnF8Cfmv7uYPVb1FYzeC+jCjEf8PcGX4lcuPmKfbvbnBncP0qcjue5UiBvVhzGXl/5j5Esb2UvXuEpw8uIYbqa5l/EgD8ExxWWPncIaL1dm41ynEQlWvpLk+febrJ2/316ueVrWXMW8CaAt5OcLSSW+uX2sJE99mLF/fgd1FcQfTh25EFsWi+tOpTotaHXn6biNP/WkSvnOpVk72BaxAn+Fakvh9BTjxlV/uXiaiva4vNBwXRhgbE+m8KeP0V9Wetr2u0G4jN+e1MM5YvIa8blJ8kg7pesp4zc5vVbkeQuv84svC1yCVsq46bkI2k25FXLT/O7i9iTAmvbzWsec/q24jWSttC6+Xl0e9Im/0MkmbOMzY9RrwKWvDysZzxaMfGi4sE7A7k+4i3BPxNhSuIovpl5Gjyp5i/dwr+zhbEfeotcqDCZ9vlnUau5v9FRGm/ArlsZT+g2/V9E/A2xNDqbiL1DHQLpez+LHJU8k7k3eCjCfq9jA8ju76/heyeRwtZkWOn02qFF43nyNHU4bVyrDTZcjS88efB0qHR7zFR0+WRPqnR6Pjy+eXAq4C76iwOjseR0x3fiSzwlLcUW7x79YF4gaCM1/mdQvTu9yGG1EG4vX8D2TX5aUS/vBm5i2FqZPq6HPNTG7ZToDYGVq1NdJ96C6P6t5UuSzvlPQb3IY7vW9l94Vx2bvLSZunvAl6AvCt7hIOh0zaRRb1fQOzDNyK78KswHjJ9q+Myc3drOUuXvxZBswx/T4FFBk7W+F9kQNXSengBYmCsmoNyDnkP9W7EuXgY2fWtLThE8PqiNildKf4+hqxcnUGOrZxk710a1qG7OOxPmV9ScBG/nTILBiCLBo8i7bWJvNfSfaJkv+AyIqMfRI6F3sf8xsNFERkRBOE1RzPrfEYLShp9yjlIWKQdjjI/fXIL4588eRwxFN/Nbue3D2qLK/q5u+36RchC7Sn2rq7ti+5TKCA69WFE76w61uN/jr2mD7OOe6u9CnLU+U5kQet6xnf8HkB02juY3xNjYZE+89pqE9FfL0Y+9/Rk9u7FfX2xgcxpT0Pa4/XIBswqvOIxtC2zSrSffbYuwdLPtR0bvbqZdQyyzGYRHbGprcx1g/GZjPex+SzOIytDH0EuV3qIehvipPGcidqChRW/hRggj27zOGNumO2VY9FbyK7648jOwoeQdtaOb23hpmwnK9155peLbW3/voIc89nr77g8gSyAPITszHyK+eJMiaxCtXSF1baRrtB6TCNyaMtyrFMV0U6yLiPi2dK3mqeaXJR5jQ2rbzLjpIO18+/RdhfE3IGcNhnTUJwhY/YeZPHxPYix2M19Oi34Jwq6NLX66t3hq5hf+vX1yHvPBxXXIW3xp8ilPVfY+amWseGV6y2c7WVd3wfeiTOo678poMeeNVajRVFdN08GjiLj+JuQRZ2x3/m9gNg6H0I2MjydFNWjDPeeLdoN5B6Hk0j9b2d/bQi04AiyIXIK6Yt7kPllSvnXNg/Y/ettDLWMc4/GKzfix3r2ygyhjb2N4k8/6zCrQMtYsMprYTabXwbHECX09yv293fAryArRPoj1Yu0p9dPOi5D2/2/BjHO/gz4b0zfdpm/v0QWFW5j90U6fWS2FtbhJPBC5CbA/7IC7bDI3xuA5+Ov3lrt6Mmn/m3pFCuNDq/FReXqsIh/HVfTm15ZQ+EI4/T53wJ3Md57WtcD3880Y+W/IjrtJqZb2Hsm8g3tqcf6qv29gZ33dXw/8MkRyn0vclyzL1bR1hjy7++QuW3RI723ILtiY9kTYy6sPRc5/jpF//xnxK48ufRa2jjK3FacWlZX6e+vEb3S2fp3MJ7e/wUO1j01QH7ARyuX3u5JB73Tkckjy1MUlym3wynkXdZVwiPIUdzXIce8LhVx3qqqtaPb9xhDa1+eQ3ZRH0HeDz7Fat58vIXsWr4J+GPkuO4TzHd1YPfuXossdemtsC6Ps8iu8IOIAfcViLLbCzs7FxG+PwX8NnI64Txz+dTy6O36YfxGhet218999FLt1EMmXRkXObQHccdnSGwy/yb7XYx/RK67zO6HkPfZt+LkS8F3IRd+3TlB2auOb0YWYc4gp5HWWGPVsYEc+30VsrExNh5Adn5/ArFDxsQmcuT3exG756aRy191HEXul/hcpH/WtsOS4R2Bzjis5S5HdBRvzK18y4GxjO4S3fG6VTIwHkHe9303Ynh1sBxfy0Gwjgt4Tpw+5mA5zBjhurwrzK91fzNitD2J1XKCH0aO6n4K+azRw8gk4LVb9KzlS8dFO4db238XkTF4BvmU1VcgR/BPsFo3u15CFgkeRY7ofAZpu0+w87iz5bBCXXZQ6Tw51zrHWvyxwlrL9RZ++tDqPPRvnQYjrnUBZi9C17H7LMZLED1yknENgi3kds4PIE7wMo+lWf17FDGQn4fspK2SHl0VHEMukvkm4KdYfYPxIIzjRVCz1VYFffvxKsQB7I49j/2t30eZX1J5euSyDyP1/TbkRMsN7J1X5cbCBtIuF5EFggtx8qVj3+srvQNs7X5EjlaJyNj0wlrjW3eTy2cv36OIA/ykSr5jYQtxLN6N3KTbwVugsMK9No120LydrszOcukEXwH+r+3n7mj5qhgmn0La9T3svETMqouus7XQE8lvmdaT2xmym/rg9vPTkGMoX4FMloeQMdr9jYWO/yuI4X8WWdj4EHL76kV23z7eMq5RNB6tt9iT6SOr3Ey6DSPMK9dyhL0yLFmLHN4SVlutirFYc/wtaP6tRaROL78CWQwa+4KYs4iueBc7P+MF9UVGbyE4ii/jDiGLYK9EdMLYhvJewinEqH4L0xjU3uJbh2ih9CDAGzORDpu6jSy+yrCMvtO0G4jzewdy/HdszBC78r3A+/H5r8mvFx6l20AW8G4C/mf2/5cwFsHVyGegvgH51N7Y8562l6wxG/V95K9F86cuo3yGxeXPtDk2VULNeEaha6Ytp1krDysvz0HwniMnvOagl7+fBHyJUfYUOI8YXK9HVus6ZBwtr20iByDjCNSc6ZKP7vcF4OeBjyLXu9/MatxY+sfIrYfWd2mjgQ+75cczfKJ2x4gr2/mj23+HkPc5nwt8KXJJxNMT9RsKjyMO7z3IO9KPsrvNrH7vUHPyPNrIufTK1fElPDnP9JU3Dmo8R46Opo10lIammdrx7dCXH09eQBZ/Xo586mfsT9JdQRZ4XobI/RNOumi+8toi01Yz5H6AVyC732vEOIwslLyOaW6RteQ4Y8scFETjvEX/jYlWWzST3/XA1yKvU4yNi8iJrdcyP/acmWtqYVa4le4oUvfv5eDd9NwH1wDfiJy8u37kslvGaOt4jmgjuih9Rv4svTwDf3WhdXCXqDmfUR59dhEy5UdG+M3IsYOpcQ45avfTiAPSQa8ca8M6cli9dJHTbDkKOm35rJ2SDlvIUe4fRd5nOMn0TvDnI6uQj6vwso11vaIVbIIwywGyFoas3903n+9GPs30duA4Iqf/FDH4TiGrhcfodxlRdxv1WeaG/lng09v/z23Hn2H+frR2PGsOa/lcprHGrrcoYOkEb4FN52PpHc+B1uXquuhFPN3HVptE5Vr/PUTxNdox0MqDJ/cd/ifkc2GnFuasDZeRRZ+3IAbjJeqLWxqL9uVLgJciO0Vr5HEX0q5jzjFZ+2ONtgXK/YRNRI99HyKj+rLNZeNxZOf357Z/D/Fpwiw2kQWq7g6HkyOWvR/wbNYLBkuFdQS674pmZPTVwqI8MvzpeG9XRuMQ8M+Y/n3LK8yPmN5XhNfar3WHKwrznBGdn2X8W2HdO8HdrubTmH6h4QbEAf6ICm9ZMNGI+ke3dW1FrEy3hTifZ4t01zN/R/gk8A8RJ7hzgI8ST7DdkeZL2/8vAv8Rec/8CWSCfATptytB3VrbJXIsLR2TSdci+5qvPv1hjZfI2a6NNWuBoOQ3o7+8RYAx4ekCgmcv/WHknc5nbf/XN98vG93dAO9n5ysSngxpWGPDSmOFH0aOSL4IOZU01g3b+wUnWPzbzK2w+tLSjd5YPyiwFvxK1OaKMWHpM7D1Vc0G2kAcmBcjJ7huYNwjreeRTxx9ALHBunsMagvMXVwHb7Ha0/Nd2iOILnsmYneNrc/3Oqb4NFTUpy3zmWeHjSl/UOFZD0bPYLMUeK2hLOPMMjrL8vRvi3GLxorXYVbcEWQH+JRT3li4hFxO8CYVbrVJFIYR1+I86LiSpiYblsBvIU7VW5jf6DolbgK+qHiO2mnDCCvRusAQ0Xb51/r2UcRBLfMp09yIKE1v/FxkfpmV52hZfLY4ghrRYoLXZiUdxOXqPFFxnsFV0znROIh4rhl6nvNdprGeawbhVAajxV+LXi5/H0NuwbyVaS59+nXkfoBHi7BsP7WkscKvRi5ifAnrC6/6YooTRpEcZMfufoduh0ybTQWPR0+/Wb+7/4eQRa0fQZy/sd/nfBS5kPSDyNzfIdLVFrJzkn4+DnwrYmOvdzL3BrJyH9HUaMeSvyj/GciAtAw4K+NoVb9WaIvxZqW1nInIufDoSxxGjI1VWGn/WeRygjPYRrRlYKPCrN846azwmhPj0UbxXdyHme9UPttJNwZOIk7i1ey+vZjit+Wslem0s+rlocM8Wk1jOV4WX5r2YXKfA7ForTpa5Za8RbTeopmna6y2Kmk1/7W28JAZI55ui8ZiTR9mF/mssvYLojq9HLkd9SXEbbkMXARegxiKj6m4MfrhJLJL8pOsnd/9iP04lpeNsXXA0LgK+BZkQW/sMX0OcX6fh9g5U3y+7S7kNMs/Z+/35Rr7FJvExllmVT/a4emzIxaF1eDRWGGbyDuhY7+TUaLbIf0QorAsp0o7Q9Zvb1fMM9a1o5V1umtllP91fg8g342d0gEGmYxuR44EdRODt6hgyZO1EFPCimuR+bKcMp3nlHth3rjsw7O3AOXRRmXU8q3VLZMuyi+jgzzdZtF6fNXK9RZWvN8WP2XYVNAy641/Lx7k9YivRo7LjV2f7ruYdyOGI+zk0epLb6GnREtb3Am8gPURwb2G2vj05syDhkhHQKzzpkLNJtLo4jaRnd/vQF7lOLlcNndhC7gfuTfkAvNXmSKeIx1WxkdzV4kTiE57dpD3GqsJbxPAsvu9edGKH1P+rLRmvTZV4poRZxlwNUY0Q1Z+NeM+C0+BWnxvIkdip3SAzyOXrtzPTuOrrIfnMIAtZJGxFYW10pbIOCOnEafzDHI0ZqoLsY4iRyw/zu7JwRpY2jEKB5QTZ42RWhvXxldGQZVpdR1aePbqGxkJJY+WEWjVt8ZfxLN2VjLym+0PzwjKtEuNB82PFe49e2FjIuLR0vnl70PIgtQLkEufxjYWO530TuT74BYs3ZbpOy+dDjsFPBV4CtNfEpjFFvNP3nnYQOqzV+rUB7Xxqfu6k5FLiNy1oPuG7Bgn1s4iC/N9v0O6hSwsdcdus+20iO03NFr6tsRh5JTZ1yA32I+5+ztDPqn4UeQeg8sqLqLrUNNj3bNlu3d4MqLTxr7BfxFcxr73pMQm0/oLY6DF/tA2UWb+q5U5hPxZtCaP2XcSPOPbM+aiFT6LuT7Gg6csPWNZ/95EvlE75bsJjwE/g0yIHaK6Wo5YTWB121uOSosQaQfNcgos2ouIwfkbyHHHKV7wB+nvL2b3J8Aieao9Zxyeklan85xsr5wOmb61wj1HTD97jm1UjlWu5cx7ToTmL6qHxWMfReu1hUfv9a23KJIdb6ti/I2F48jR3+9iGj38S4ih+IkgTbZP+vbdqxDn/0RP+inQXZh3PkhzBHHWTmKP5YOITkYeAr6ykfYO4LuRY7XLxnuAXyQeF8vAKuq/jE1Q4hrg1YxvW86QBYufQk60nF4gn0XTvQbZXNpLOI3os0tBmquRfj0IWPa8txLllk5AbfVNG7OR8xsZ6V7eGt5OVPm7tiPj5XsUccCuY/yLCTqcR97X/ATzo7jRDlX3HDmdXttrWo1aH0W0LeVeAn4VmcyncoCPIpcyaNnv/us2sBwljDArnbdwZD1nd0QzO459aDU/Xv2sMeY5kpGseeV6fHi0On1Ea40dXa7n2GbGphWu87b43y+o1bEMezLynetXM77zexb53NxvMP8u5tg4ihhU/4rV3VU4h8xRHwb+CjESH2C+U1KT4U3mn4E5BXwestPdXdZ30LBfx72Hg1bf7hNmX8u4rzNsIZspr0Zusve+Xb5s3IB8w3yKG/wzuIzo+08Bn0Ta7AxysWjmBvkN5ETLUWRh7wZkM+XJyALm+v6GPQa9CwbxblS0i2GlsZ5ryOTj8ePxqvM5igjsVM4vyLHnP2V+NT3EdW5xfvX/zIJBpoworPvt5QdiOD26Xfdrmea7cIcRY6wmK1bbZ1eDvQWY2rNnMGTCvIWfFtpMuZ5+yNRXhw1R3yytdmAjWqseLfLi0el02cXC2rgsacdGbcGxRJfuWuQdsWcgu8Bj4gxiAH0Q2cUsjwnWnPbyOVqgzeAk8o7cKhlNW8hJnfsRo/A08Blkx/L89t+Z7bQtsnsBMTYfAP4t0v//BDkieRMiA6u6CFBDixxE86xHuypOZHbRvUQtTVaGpoLFj9ffz0S+XX4H4zu/9wC/h+i1c9T1cSR/GGE1OxTEMTyBXLx1pMhranRfvrgPWcz7DKKLHmOu07oFg0iHleGHt2lOI0fO/wTRZyeQeyyuQ/T6lP7FIvA2Qix7L7JDxpS/Ft3xWVprB9gz9iLHJgr3lDpFGi+uxIzddJZRGzl03f+rmH4F+l5EcWn+wO9Yy5i2+s3rhzLPKJ1H6zkAXn5lXPf7PPDniBN6kvFxCDmmdASR/yv4bWzJd4marNcGbzSOMGh1Gut3RjlEY7lWbqY+Hm3Ej/Vs0Wr+9bNHm2nnjN4ainZmpCl5tHRwpNynNhq9eaNEtyN4G+L8Pmkc1j6LS4hz9/uI/tWweK4Z97V0Jbr26d4T/KYEzRiYIYbi44hR927kPcJHye8meeNxtp1Hl8/HkfpfhewWPQdxgrsdlL1mNGbkwHNGMrRTj2sLWq8OkU/3XOq/KVDTYXqu3ETk+WXAXYz/qcczyAmNt9B+mmUR+dPhxxCddgerMYYvIzqtW3h7J3La8nRAk63rZaTdzyKONUj9r0M++3QbYt8eZ7UWOLOI5KAmMy36YEj50+PSwi67y9oBtggso0wXZjkHmrGaAxXxosOjSUVXVP8/Dvwzp4yx8BeIAwx5hWvVP2o3j9YqI0KL00MlHGSl8vOQj8NPhSch7X+avBPqOXe1RZtIeXj9UxvgNbnoQ+uNy2jxJMNzlNZzDLXOscq1nM4yTtN47eQ5pLoMTVuWYcmBpzczY7FlTE6JFmP4amTR6y1M813M30FewXj/AnkMYfDfBHw5cnRuasyQHdp/A7wPeX8wS9cnDsSAvAz88vbfDchN4K9D5uZVPD65CBYxElcFQzq6mbRTtVGm3DLNCcTx/R8RR3hs/DCyqPRIA80y+vLlyPHvVRi7W0ib/Or2/weXVE7ZFue2/34QaYPuIrT/lWnkYtkYSx+00DbbTJ4BYjmOmZUx63dtVyyiLWmieJ23ZaCXz90FHVPho4jjpY/fgc27dgAgblPLUYjy7VOuV0YJr9z7kPdwLzKdwrwmKNta+AFfTi0HLdtOkQNdWziyeK6NtRItfQ12f1rjLMrb4qG2Q5IptzXvGqz20OVaeixaIKi1m3bsa7xkneoxYMlOGXYYOfb8GmT3b8wdnieQxa6fRHY1NWo6NdMfFq2nW1/K9J+DA2mLTwG/gBjQ+ihgh6z8WYuCmbY6gyxKnEZ2kL6S1WifDGpyX5tjoV3+xkKmr6O4VjmYur4dPPnXuB05+vztjO/knAHeBHwM2YnM6qiojzRq/dEzW/xqAAAgAElEQVTRXovc+jz2iR6NS8jJnruBX2d+k7mW1UXrW6O9jLw28ivIacfnIXPfjdUaTA+vrawxH8nQmPLXytNnf2dW4C3D2oovf1vK0WPCyq+M8wzFyFAvy7H+H0GOLEyF7rNH3WckMsZ8FBc5B9EEHBnpmUku4tnqn47mAqKcHmO62wKPsXPSqtVFw5N7r380bRmu8/EcrJq8e/xZ8RGfUX29fD09kZG5aPzq+Jo+8srVZdf0mTWGZkac1R6WMad5jvqjtW9qbTEGoj48hOzwPYvxv/V7FjGK3oYchbtspKm1ad/+0HlsIgtvtyJH5KbCFuL43oO8v/ZR4rso6BFn/fbm8UvbfxeYzw2XkBNCR5neIYoQ1TOjpzNhU43vMeQgSjcVavxtIPbDXcgR/rGPPT+M7Gy+F9Fvl/HnnO5/1nbI2jBl+qcA1zPdF1WuIHrjbkSffQyxsT2eM/JVs726MCuvK8jmTvd3GdFpT0eOR6/yjnDNTszYMGPKX40/zz4DmNUc4Npqn37WFd1Qcfq39WwZ1J7hmjXU9f+pHeBPM1+ZKg1jb5B1YZ4TosOt/DzHI8ozSqPL0GFRnUDeBX6Q6Rzgf8T84hVvoSSKq8Vb46N8LsOopPVWuTS8uCi/qBxNG7VTrQ1q496SmUy5UTvXys20s0Ub9W+NVv+uPUd1t2inQDQXbCCG0SsQA2Dsyf8B5Gjvm2hv80zaFtpN5OTLKaabf7aQuefNiMF4P8PKX7YtrHF8CXHKH0Te17sRaatVvSAro/8WGfNl3BTo07cZOWkdX1Mgmtc3EIfvRcjO3pi4gixYvQ1x9DrU2ly3p6ezrXws2i7dJnKi5drGegyJy8gJljcipwutd6E9+bPssr6636J9Ajndcg/wH5H3hE8w3ZiuoWbj6bRd+BTyZz1naD/723KAa4rMytiraI3OS2Plk1WKXoOXOI4YIlPhXsQBrLWz15naAI8mYSphVntlaVt41vydR5TVS5gG1zHfXai1X4nagK21Z/es00Rps8ZB5LBZzxE/VtrIeLXyjeTFa7eMEi1pIx48Wcyk9cqp8WjR6nSWLJSKudYWq2Igl2Vb4/wQ8s7v25BdkrFfd/gI8GPIJTGwu508+dPxM2zaDjVd2KU9iryzdyrJ/9C4hBjNP4gsDGwxvPxZY76M0+GW7F5E5sinAt+BHDFd9e+K1urryVBW/qZAVq7L8DLe+53Vf1PA6q+yDscRXfZepnl963uRhauHsHm05M9CF2fV15JFi/YQ0h5jfJvaQ/eZttciesOqc61+tXbqENkxHm0X9wTws4je/Qbg65luxzxCTaZa0i5b/qznml20o1zvFugyYUZYNAORE1RDzfHIpK2lO8S0q8oPIKvwsNsoiCZCDYvWc05wwvRzC23U17V+PI98EmMqHENkwOPXalvPAOwQtV3NePTatEbr8dxC28KzVfeWcss8LMVVk8uI1irD4rlVR3nlaJ1ZG4teuRmdF9W3Rb8OhZrxMEOO+j4bcfjG3PntbjT+KXZegBKNnTLMaucabdR/M0TXXIt8+mcKw/kS8JuI4X6a+es3Q8qf5cR4aaP5ruT5g0h//hDSfoeMdKsAT1ZaZCiSv6mQ7duajaLT6/hVqCvEc8IJ5BTLNzD+JX6nEcf3I8gOp+6D2nizUEtboz2JvNoyFT6K3Fj/YURXlHNxCWvhBeK+1rDSem3u0YGcuAH5rvprkXnRc/SmQh8ZmkL+amk9+s+Ge7dAe0Z6DZ4xlIWmrSlGawKxwq1ypriqfcb8fQBvBSNq+9oKlLdg4dGW6aK2ztJa/3FoLzH/puQUOMLcmNL8lvAcR6+uNVorD4sHq/88Xq1x00KblT+I615z0HV5Xlrrt1WuR6v59Gi9MdhCW+v/Wv2g3mZWuihsDGj+Nd83IcbRcxj3UxCXkF2BjyHGovXOL8RtWZsLW+akDtcw/+bt2OiOTb5v+/85FT+V/NUM0C1kAeMi8CXIYsq1rM47dIu0R1/5mxJZuffslBbaVUGnwzeRS6+egTjBY9qP55DTcu9AjvpeiZMvFWX/nAC+agIeriB6/QPIApn1SbssFpG3PrTdO9vnkLa7jWlfx9xrGLS/hh7EnjFYc0y1sdkhqmi0Ch8ZmFPiEju/qxhNEJYTop3eaHKxHAhNW3N6dV6e82PxXjPyu4sCVgGRc1+To8gJ1o6UlXetb8s4a+GjZqC30Eb10/nXaC2HtDY+PT0QlQt2O3vOp1euVQedj+X0ec8W71Y+Gquiq1qh+X4l4rDcPjIfZ4DfRW58HkK/RHq5BTcgiwFjYwtph9ciu0ja+dUYyqEdClsI369FjgzeiRjeBwWrog9a+NC6tg/tqmCG2MlHkHsM7mT804P3IotX7xq5XAtl/1wH3DUBD5eQhYBfpq7PYHnzbV/a88gp0B9FTimtHeA8Bu0v7QBbxrhFqJ8jx1cb/xq1nR8PLXGrsqp4CZnMvZ2/qO6WEd2aztrVsmijncLI0I/qofM+z/wY+JSIdvo8ebZowW7XWhtH+WlYjmJEazl+tXTZsKyseg64rlP3u7bz6jmhXttnHPaIVqctn702sMaBpvXGkIUMzVT6TfN0Avhu5LuYY35q7gqyW/ha5AIl/fmLEt5Yj3Sbl4f3rHEz09x38HHgF9l5K2qL7JGk02miMVArS7frDOnPn0Dmz+9hNb43ai1kEoTpuEXkbwxY8l2Te08n95GFKaB5O4RcePVG5JWOMd/b3AJ+C/g55NZ2q91aZa+Mt/o0q9euBz4fcYLHRHep1I8gJyk9vVMiGl/ZMWe1iy7X4kPbWR22kFNKP4ZcIjble9QlIp4tTCV/nm3V1JfaAfYMOquTPcPWEhIPNaO0hpojaeFa4B8m8l4GZsWfZ+jTI0yX0Zof+AJpxXnxmqeaU7IKiOoCO+tiOUWRDHv9FCljVLilWFtoNb81ubBoS56z/NXCStoy/1rdLJ5r7YwRVqtvybMuQz9rXqIxovPRfEZjwwqfaixZMnQKeDLwXGRVeyxD9zKy8/sGxNG7QL5NZsb/WptafRjR3gh8DuNfenIfcuT54+yUZ29M6N8aGfnzdL0l75Ed0YWVz6eBP0KOkX+bw+PY8NrUC6vRr9L8aOk/Hd49W/1npbXCsvI3BnTZT0K+43oz436S63Hkoqtf3f5/KUjbR/YsufNorbxuRpzgsdqjw93Ah5i/B90qc7W2atV/UVvV2rH7HN01yFHoW5xyx0Sm72s0GbpF5a9P2l3pvCPQtcnfMmb7IMusJ5RWo9XyPM5q3r4GvvFgOTGaznJCvfaJVlSiNo0MHbCNHYunbF+NBWvyzToqluNkyavnTFkOt2cgbBjleuPCc9QzMhXVpzZBeIaQlwYjrebTk8Mab7V+qfWR1U5WOWV8NLasMjPxEaYaQ5rnY8hx52cx7rHnGWIM3QO8FTEUM+/ItUyqUXxmbNyE7JSMeYHTFcTx/WPknegIy5S/rDGaMaLOMX/f7+XIUdQp7vLosMjYW0T+pkCffs7GLyJ/y8QJ5B6DFzPuu/sXkCOyH0J2O5eFRRYbbkEc4DHxBPAHyM6pd7cDLFavFrqWcry0jyJO8EeQRYWxFxSmxBCLXQvl0eczSJHjo+MHYdLho5W+Q3n50VSwjKY+K+9lXGSE6TJq5dX4i2QjMggX7cdlIFo4qDk9JaJJPOqTWltY/GXKseoS1Y1kWqtva4svlvxpOp022y4ZxzziXeen0+rfES9W2poMRQ6ztyAz5CLkoujKfz7wKuSCmDFxCfgd4BeYH3v2ZLO2OFGmaW3nSE/ezLhHBWfAY8DbmX8r1FrIKcM1fRfXKn/WHFHGWeGa1uKti3sMcYQ/DDyFab8/6s2JGOGwmPxNhWjej8ZErV3K/D3aKVDW9weBZzL+ztzdwK8jC3odTxYsO92SP4+2i7fGeI32y5CTLWNhC/g1xFF8ZDvM0i04cWWYp9Ms1PSfLkvT6jiL53uRXf5vYXX8kw61tplK/rx2rfXLDh4tB1gbcpFTExXaYphmEOVRK2MVJpISWlAi40n/1vmg0kT5aCek5gh4zlc0OUeOg+c4T4losNUcRi995FC2jo/I4PCMiihfi4/u2eufTL9n28qTR4owi1YrZU2bGf+ZMZKRUWvcWTzq+Np4ieIyv6fAUWSn5EcY93KiGeL8vhZx8h4pwnU663eUbx9aq4+731/OuLsl54HXIbtI3U5JRpajuNZ28WQ+M15reW8h9ftxZMFlqluhrXZYlvxNhaiOLfXpI39TYIaM1VchpwzG3PndQnYEfxpxijLtXOuT7PjO0nbvRF/HeLf7X0EWvX4BedWlT11r6VtoW8ZBpo27C2F/Evg65Dj0lOgjQ2PJX0vaqs6JDHkvzDLEI+j0tTJb8i7LqOXf4SyrcfkS+I5EGWe1XeSEeM/R7w18Wh1ntbVFq+M8Z3sVYNWvbH+vLaBeP2vcWM6WTufRWjxb/amftfMX5es5vyWNV5+orTI86nhLwdbaoqyvx7PHh87P4s+jjSYDq26L6Dyd79jYQF4luQW58fkU411MdAUxhN6K7JY8QnwkrkOmr72wbHwZt4kYiWMaixcRI/pjiCOs9UuJMeQvW25LP8yQY933Uj/evUy0tttQ8jcFIn1OIm5Z8jc0TiEnC57LuJ/c6m42/lVk4er8SOW24hCy83sV4/XbY8jO72nid6E9TC1ftfI7J/j3EH3Wp45DY+o2GwXdDrBlHGbged3aKfA8ccto9OItwzzr9Zdhp4H/5PCzbGwgbR7Va4bdLlGYdmh0HjVar3wvXwyaso7ZcldlkFmOq8W3Tus5vV6YNTas8q0y+sh+hj/LSayVW+M72y41ni09Ysltplyvnl65XntE7dIyriMnvkyvaVdlzGwAJ5FLr76HcY9tXUAuu3oDYjBcJm4/Dc8Y1+NTwxu/Vl/OEF1/DfJ+9FiG9FmkbR7BXvDx2mUI+SvjrLHqtVnNObLmncvAJxEZXIXLY8aQv7FRkxNPT2u5wYmPyvJsxmXiELL79izk8quxMGN+j8HPI4tYUTtmnsFu51raSG5nSBvdxLinLh5CvoFcLnJ6usRrN0/2vPpm2snjw7OhLB7K53uQ+ewJRK9NActWXSX5i+xwL19vLvqsA+wZ+9qIywqdxUT37MXXjOMWhejlNzWuRt4Hq7VXqyNTM7Q92lqcx1Nk1GT6dANpi6kGuQXdnrUJudVhKvOJlKbFiw5fBm3Ep1aKNRnT5UY8Rr/LMI8/zatVbqYPorqX/Edxun66Droty/IsZHTDFNhAnI5v2v4/5ncxLwA/g+z+PlSE1+YPL1y3a619W8o5CtzBuO3zceSoYFQfHTaU/Hn51tq4lcfu9wcRg/yFjLfDXqI2hpchf2Miy0umr7Lpp8Q3At+OjNkx8SCymPd/s/N0YtSOfcZQNm3UH4eBr2C8i2QvIrfZ/6YKz7bNMtuptayM/nsv4pf9Lw5Py4ZXn1WRv4g2E7fjf3aVsUUR6jwtgy/K3zJiMzxFTvsG+bouE4eYHxO02qPk01oJjlaHrTouQuvxZAm+V66mLdNtshrfcoT6CpJuR/1sOVlgt4vVJ+Vvr71a5MJr93IsaEdTx4Pdt9qx82h1Ph6vOq2O0+Va/RTlVabx+lL3dTQWdJnaiY54t/jdi9gEXgHcwPjvX/5r5AKkM5V0Q7XxIvkcBj6P8W4qPofs/D64/bwX5cybnyx0n7/qPvO0SlgF+Zuq/MjWWGW8BtmgGAuXkfH6euT4a3n0dVGbdVltfwjR+2Od+Lkb+PORyloWWvriAeBP2PmN4ymwqvK3SJm74j2js7XhtcLLevM1p80y0mtpLQfN2nHJfCpjGTiEHIsrDcey3ayVimiV2HIGrHS1FeYovKT1Fjisci3eOxxh3EtzNC4wPzrZsnCj28Jzfj3amUNThtVoYTetlUaHebSZcnWYprXyra3I1WQ14tVr+0wbWfXV/a3b1Cqng5ahVtpmxd1AuwxsIIbi1SOWfx45IvZeZOf3IvH8UZvDItraXJhZJAHR9ScZz1h8EPgM4giDP0+gwpcpf1lavRhV0np9cAUxFP+IaebzqeRvTPSRoZqdEtFOiVsY7yTBDFm8+R3EyTvNThn25s+W/IfGJmK3Xst4Oq07FryKyMqtp78snEPucHiY6XwUWE35W7TMXfGRs2kZdZahHRnfVjmaIc+41mHezkofbDHti+ad8agNeY2MceE5mNaOkw7LOEQRrZVHtNNV0lwNfGFUuSXjNLuPG0VyFi00RLDy1Hlp56wPrRXnOfVlmiytB0sOvLw849Ci9fojoy8sPqK0Fm0Hi+eoHlG6qE03ij+Lvoyz8h3biDwycpkPAz8HfAJ5Rypq2+h31FZaZmq0Vp+U6BzgsXaA70YWBzJtoTGE/NXazuKhjOuz2HAW+F2mMxbHkr+pENkl3ngYSv72My4ju32vRxZxrrC7Xa1nK07/9/rEy1en9Wi7E4zHGU+nfZKdDrDXLvq5pq+jvFp1faaNW9r8IjLPbTENVlX+WtrVo9+R1vsM0obxX8dHNF0Yxu++yObR8RGFPYEon6cMwFcf3IZM3GfZ7UB4be85nt5vy5H1HN3WcqP+zpZ7DXCn20LLx0VEwVh10INQx2knx6LT7eDlpdPqcK+frXI0Ty312VDPntPmyaGmjdpU10fzFembqK30s8dHph01vyVtxJNH5/GQaUdPDsry9zN+HngnchOoJZueXgS/3VplN0OrcQTR9WMdE/99ZBe4Ng8vS/42HFqdr1Vu1Jc6vCz3AvKO4KPIYsMUr9WMIX9TwJPrWt92z6iwVvnbr7iAfMLrXcwX4bNyghOn5yCr/T3a8lmP4RLXIhdgjYEtRJc9wvxEi2frWs8aFq2ub0SXtf9a5glPX5wF3gJ8M+Prs1WWvwyPmqeIdqOmWLVyspSZV1iU90YQr+M2nP9eOZYS1nlfYj6opsCXIDeDWm3gTYqwW9h0essQsfK10ltlRH3slYv67ZV7NeMpUwv/mfkpAF1XXTfdTjUHzeqnMi7quyhf7dxpWq2ESp5Lulq/o+LLP8vYi+prlRuVo9PXeNTlRmNAx1s8WW2s8/Lyjdqr1tfec0va/YYt4E3A+5AFyyu0zUFjtXkk12PslG8hnwo5i63TNF/Laosh5LzWl1qXdL/vQxa2x8RU8jcWFq3PEPK3nzBDxudPIqc1um/a1ubF8lnnZz17c3mWVsd1tEcQu3UMXEY+c3YJuz41mYnqG+ksTduq77K0UV6XkQW9J8h93m9IrLL81WituFAONlUibXDWCvHSZYxFD5qu1qiZvPTz1A7wrcgxkmjVt1ZPr30tJy3KJ8pL02q+vHxqE9hVSP2vraRbJs6x8x3gDpmxoOPL31Y/WosRFi3sLs9zyCK+yjI0amVZZUROr8VLi+zpvDRfum29cnWbRrxY5Xt9mZkcvXQtYZaitpx6j/f9houIU/c25D2wx/HbHhXuLZZ6bRrJmAVvvJdhhxE9N8a7ct1lOueZH5ur1ceqPyq+Vf68MVprR68Mq5092r9ALuc55ZS1LEwhf2Mh4l8jGgt95W8/YYbosIeA30AWq7p7DKy0HXS8bmOLtmYDZmgs+iOM9470ZeTyq0sGHyWisRLVJZo/svRRnrV+iHAFsU8fQ+zkMS+arDm9U8qfNTdknt0y9WeQLGZqBekwrbiiuA7WpFlTgJFBbRnHJS4hymgq3Mb8I+sXt8NaFb7XTpGjEDk0mlb3WY1WlxX1z63A5ztxY+Fx5t/bg93tGU1MkaHXp500vL71HDzv2Wp/Xa7XXxn5mBnpLJ51eCQnGUO4LNfKU5dbm4Bax4FWrF4/bahnr02tPKwwbzztN2MRZMf3ncj7nR0ybeSFeXG6/aN5I6LTYdcBNwb0Q+IS8Cnmr3RoXjB+67Ch5C8r29kysvzdB3xlUM6yMJX8jYFF6jaE/O0nXEZ2fX+cnZ9vi1Brk9p4bOm/TH8dBf5xhaehcBnRaeUOcIRF28oKy8quF7aobD+AXBR7TU/6PmjRP2PL36LPu8qsGYYlU9rw9p61cegZ7dZqYBlfptOGbuRAlManxcsGcvTkk0yLL2L+sfUNdtfVWr3QberR4jxrWk1fwnImPCcjkiPd9gBPY9wPzVu4h/mnVKJ6ZNtV03T/I7m3nDSrvaxyarRemR6tldZyHi3n0OM3cn41D54zqx1Pyyn12knTap48nj2HPnKqvXIztBYyafYrHgXeD/yfRVhre9TGaGs+q9wfF4E/ZX5cbgie+9COUa4X/xDTnurSGFr+psKqysFew68Bb2b+ibIMDnL7XUYugrpYSzgixu6P/5edF7WOjX0vf57xbhnVJWpeeunweqsAntOraTOOt3Y4NrB56MIuIMcLpsRtiBOonSRt6M+cMNRvnQ4jnUdrlYtBq8Oscj3aLn13+/P1TIMtZPf3EvObFz05Q4Wh0mo5y9Dq/5aDF/Gj+fBoLX4xePb+W+OxpLfq4ZWh+Y7qo+XSgle/iLbWNl77tZRrObdeubUFj0gHa2feSrOX0b0i0a18Z2TCawtrEaqFtkNm4aKM32S8T4VsIUcqS30GMc/LkL+onaO8dB41nq3nxxn/fbkSy5a/KRG1e/lsLR4uIn/7CTey83i+NX6suUPHZceGla9VRgvt1Yzz6cqLzG00S4Zq8ofz7NHUaFvn3xZaK4/u/6PIay1TYdXkryYHUZyZ1mr8yNmKhKvW4TVow7tFeD2ePZqLzA2GqXAL8GXIsRJdD5xnbSBoI0W3ge6/mUpXwivX+m3lHfHc/d9EHN8bme793+6CAV0XSyHC7rYq05a0Xj9Z8uwpXz3WvHgrP82LpvV49vKwxmNJb/FvlWHJqNcWVruV8OJqtJ4Cz/Sll0f5p8eIRWfJB+q/Nf6tPDMLJHsZx5AL8p7CbifSmxOsxQkd7s0NXjta7R7xUsYfZrwbPK8w/6JArb5aToeUvw0Vr2l0Op13dhHLoj3P/Gb/KTCG/E2BqC/189Dyt5/wZOCpzJ1gS5Yzch+lsZ41bU3+onLHcoAvsPMVxb7yV2tTi9bSYV7aaNxmaa08uv+PMa0D3GFV5K8mBxl+dsCbiKJ0+jly0Mp8I8XmGbtRw2jl6k2wVvxlRLAeY7pV46sRJ/hrEWMpGsQb7BYGPVA9AbFoO5Rx0QQU9UWZhzW5lX9HgVcjn6uYCheZ3yjbITI6rGevrmUaSz69vo3Kscos00fOlP5t1SkqtxzPUZhVjsez114eT5bjWvIS8REZ857c6jDPqPfGWobnFsV9UPE04EcRg6u8BGSR9ulD27evrgU+t0d5fXAJ0Wl6LmsxNrLxQ9AuS/4/A9y/AP2yMbT8rTrGlr9VxhHgLuCNE/OxF7DFdEef96v8rWEgs5pei9dpLQPPM0oz+WV4qJVv4QpyzfqUZ+xPAK9ClGMHy4jWbRctQFCJ89rHcsQyixeRE1fSHkUuhnk+412lb+ECcrtg6QDXFmeybVyGWYsJ1rPVtxGtTldzvKw89a6nTltb1IrKsfKxHNZMW0RjnCKNRevB2vG1eM7Qeo56NIasflhjNw4hR6B/HNkNnqqt9nJfZcfC2OUui3Y/Yi+3x1Tyt6o4jrz69m3IjeURDlrblHgCOD01EyuA+5GTPVPgQMjfpnrWxqm3c+Q5uV2cFa93Ir1yo3gdZvHklauN5CvIhQS3GeWNhaPILvDN27w8zm5eo50+XTePFiMuorWMeMvh0nzBzn4p404iuzpj3mhn4SJyY2j5TdHaIo63kxi1U5lWy2aUTpfjybXlZNXGSCvPNVqI5c1LZ/Hs6ZZam0YyHZWrf9fKjeJb2iWTt+Us63EXxe0XHEZ0xh8j4/bhJJ3Vrn3a1EqD8ezRjoEZu9/9hZ08WnOlfh5C/qy5weO5JrsRrRU/Zpt3yPC4DPkbC315hmHkb79hEzn591LE1iu/ROHVuTZOvP6w5hidvqUvxxxfl4C/Js8z2HXtQ4uTvkZr+U4ZPiI9OsUrHd5ct0ryZ801Fm11/tl0MtMV0QXXJjBLsCJhswzFvkal5sF7vgJ8GhlsU2ET2Q19FnJ87YntcK8DrUFmxWvakiaaYGuTrjdx6X7ZMHi9GfgaI8+xcR65Xr/bAbZk15uorTDdzt54qdFa4TWlnEXGgNdlWLzUyo4mkqjOURkRbUmvab2298rVaSxab3xFtGWcN1lHumymwjU8fbhfcB3wHERPdw5w1jjz2rjW9iWi/qnRjoHL239ZGdLPQ8tfVG6NtuOnDKvZAZpuTHhyUMZjpFlU/saC1/eRHJTPQ8jffsQLkVvbH0ZuL/f62JKbjMxY6bL94cnfmP1xhblOy/Csn1vSDpWXpcsiOa/9XoUxv2ryV2tjL19vfM02nUxr2FC/deUiw7/WWJq25C2jODV/nrK+DLwLeCXinE2Jf4XwdIadt1NHE6hVR8/ALuPKMKuto4Fq0Xp9V5b7TMT5fTbT4jQy4XQXC0SOSG2wWrS1sGz/lM+RYVk+n0KOWF1l5FXWaQZ8xMkrO/llxmyZzlogidqxLFO3o9d2ls6xaHTdsnW3xoium8Urir42vmrhrWn2A16ILBSeA95Drv1KLKONV6Xtz+B/V3SV2yZL683ffcpcBqZqp1XCfh5fy8KrgS8Avhv/NbxF5HyocdPHPxgSQ4/1vUg7FVZd/hbmxToC3UV6HneGmUz6ssxWg8ZKZzkw0TPMLw85xc4r6sfGEeDpwN8B/zuxQ4URH8VZDoB2MMDPTyNKpx2GQ8iRn1cgN7pOjQeBvyiePcepjPdgyWzGWfTK9fIuaU8h742fQI6U//eIY3AVIkOHyH165bu3/18E/j1y8uAsYkw/giwQ6BvSrUUvi1+dxpLfTFt4beClqTnJGh5tFKZpPSfXo82MYYtfry61Oi4LV4C3AnchO7Rj4AZEbu9BHOHy5I6nj1rb1JM5Tw68fMfsj5YT0o8AACAASURBVGPMb2aN5MOSsTHlL6sbO9T40vWYEmPI3xSI7I8SmfBF5G8svAu4nXEu6bwKef3tu4B/zU59VpP38jnzHyO/KM+IjzGh5cSCN448WktveM+aJsq3hlq5Vt8dZrePtmxk9G35PKb8WfrEQ22+2YDdjRsZgJFAaaZaJqRWo6NE1NCa1nreAv4d8lmcU1mGl4BNZBf6CrLD8TDzGz2jSciqu2WcW0Kp271lkqqV29XpauQdvqcx7c3PHR5GnODMICNI503YMxUWKdZafpvMd3S776LeAPxTxOk4hdw02znAfXARkf3HmZ8++DTiDJ9DVqbPILJYvjPdyYvHuzUWa/WNJpas0VTjJVLKFk02b51XC63mKdJ5Vlyrvh0CM+APkfG9wTifxjjOXJd8Almo0brMm3yjdqu1qdW+WdoxcJR5P0R8eu2xDPnz2iBKp2k0PxnaTXbeGL5sTCV/Y8GTk1Y5GEr+lo13IuPpODsvJl0GDiE20dcA78f+5mvGhs38t2ij8AzdMtGN4ywfWvY8XWI9W3Kb1YEtbVMrx+q7YyxfDjWy7VY+jy1/WV1RpfVWFyyB8lBzykp6j2FLUdYqV1OoWTwAfCFwVwPNMnAMuZDrNcDrEYXYwZtowRYW3Z5lnDVJZwXJ61trsj6EfPP3RxBF//+z9+5xmx1Vne+3nzRN0zRt08bQtk2MbciE2IYYAmK42CIiV0VFVMTbON5xHI5njoN+ZuZw+Dgexw/DYfTIeKLiBRS8ITdBiMglAmZiCBmIMYTQxNC2bROapmmaTvO+54/1FE+9611rVe397Gfv5317/z6f5/PsXVWralXVqlW1qmpX1axMLhr/gBjAOb9QL7Neg4omCLzJopxWy/I2RPE9AXgkMiv9xIr8NUU6hE3jKNIubgL+kLWds9fGwZdFLWdeBxUZwbm7JX+RjrF0hWUIN+kYrbq16tyKq0mHW8IQA5QVZDLptcjugR/sIc0J0iZeiFyPdBfdd46WX6mDbuK3CGxj/WDR4mVRPDctHy9cUx4s2i+i3xsGhpK/odBUhvqQvy7xB8DDkHHLgR7S24XsjPsW4C+Q/jZhqDJZhrrYCXxxg/Dz9KdtdFUbtKG/GJncHALnhfx1tQV6ngGeZ0CVZj4jHiw/j4+bkNW059B+Ja0r7Aaei6y8vQF4O/7kgpd/b6XLM4YtWlT4PIxXJ3nYXcCPAt8DXMl6g2AoPBZZ7Xw1/oqdZ8jUrlaU2oIOl/s/DjF6H4t0jNuQNtr3NpiLkFnwa5F6TAbx24A/Yu3phJFBnBDJZR6HZWB6uqjG8C21hzxcjlo50LSWHNTqN08eI+hy7BtvRb6rvwyR1z74OIjole3AK400rTKxytJzS4gmY2poTyC6pg+k3TbpRNmcJ6tP9yZ8crSRP6/NeHJa4s/jw0t3D/3fMjCE/PUFrw69+rVo5pG/IXAd8BHgZfQ3Hvw54IHIuO9O/DqvcW9KW4O+ZXA3srsNmrUDS7ba8N00rZJ72/LbSb87WsCfxKfSfdnkL6TNB9bWwM5bJYmMBx2XNdCLBpAlQytHNDDOw+h0cpxCtnneihggQ2Mbs9W+FeTAolQukVGr3WoGFzm8erLqfUW9p7Bp68q/QU5uPRCkNwSuRlaRLmW27eg47QYiXmceyZ41OLhs+rsSeAQy67efYe9KTrKW6jOtSF+IzJB/GFlJvxHZHp3LAfj51WloGYK4TEuDLq2HonSt+KK6tHjWfnlcJVrNq6WfageBQw0WzyIHMF2HfMKxi8W39wnSjk8B70MMcOuqCF0mNeXr1UfTulmZ8vfJIEyX2IbojPzTmZwX/Wz1lV3JX9P4SvxFfOTulzDbCt4nanjzws0jf30g4rlNvpvK3xA4jowFXw08j362oO5Axp6fAv4f1p6AXCNH2r22bppgBTHQ+5jUyw3gpu2gtryaxtMkzDy6NMc+xAjuE3l7XDb565y2iy3Qmk4nGA30vPCaD6siPNRWWIrzHGIA38hyGMCwdlvqnYhS1tc1RQIXdaJW+VpupXR0uLQKcQnwfcwGJMuESxED82qE95sQQ+44668S8WSuJkxkZMHMoLwIWfF9PDLp0ce3lG2wAym3VHa3IMbHWcQAOYnIpz44q2aAV2tkNqmPaDKnRtd4/JR41ijRNtVtXvxD4ijwZ8gBVZfSz8TNJYisPQ45uCb/Pn0edFkfZxAjuA+k7wkPN6QbUv5qaEt9d44DDL+Da17MWx9DoS3Py5jf00g7eg3SJ++nn1W4g0hZpDNgTrNc5QKiz44XQ82PncjYaBvd6faNiP0MO4beaOXeWJdEKzRtYQ0idVp5WB3e4qlkZNSkZaWd/g8Dv19B0yfSCYEvQlYINaLZca88IzcLNbTpfQ/SYVyHrGYum/GbsA0xNH8ReDnwy0j5Wp1caWVYG7nearHGXsTwfQ3wEmSmeVmNX42diOHxvwFvAv799N2bKU+ryWBPClir6hatF17vQkjpWLTepJ5loJb4ytP35EA/W+9DzYp2hbPIBMiLkUnEvnAAeCliDHc5QN2I9bED0WFtzllYuln5lrR76f/AmEVgGdp0U2zENhPhXuTzs2SM9oF0KvSLWN6xwFnWL8QsAtuQ8tjHcpwdMxQewWwlfEQZjXWJtwJcWvGoDVPLWM3yeU2c1oqmh5z3k8hWvpuQgdWQ209zbAOehczu/xXwe8hqdSmP0aqa5WfRJDdNaxkKh5Crjq5FBqR9b0Nri7TV+Grke8a3IVvO07d0liFTWl23yikZSjuAn0S+8T2IKLeNquAnSCf1XOR+57sQY/5mpD3VrHRasuUZo56B6k1KWLRWOI+/UnvJw+TvJVrNl155ttw8WMZ630i83oAMWCb0c993kr//iExevj4IW1vOTd2itI7RfEW2LXYAj2L92QZd5deD1RZL5TJvutZE1ArwNfT//W/OQ4RFydqiYY0baicVk9888jcE8jy8fMrHRfQjW+k6zOcg45GbO46/jSzlNGfpb1fLDuDRwPXTdJvw3kSHebRt0HVbvZL+J0MWqWuGro91cZW2QFtC5ClCK0wUdw2slZc2hq9Fl7+fm/6uB57B8hjAICupVyGG0gQx0O5Eth7m8MoqGtR7Rm8UNrmlbXdXAs9kdtXRRjLo0r25u5H634MY8DcgBl26oL4ks9EEA8i3sxcjEwVPR1ZrhhisdY0Jkrfd0/+09f0W5NCsfFt5ZMx6fpZh7LV1z9iMZFyHzZ+9uvT0oRWfZVTrZ6stRu3TwhCDRT0BcQKZQNyNTCjtYX0fsQgerkEMzbtZO2D0yj7Sh55ujNwsrCArJX0OFi9HdFnULprmrY38ldrOotI9iOigvlE75uhC/vpGG7mP3LpoW4tGnvbdwLuRvvp5PaSdJvW+mdkVhceVf9uysSaMm2BlytO/tKRvim3IOOkGmuuFHPPkty2i8UXklrADMXx30f8BqJYuInCrRRfy1xZunrZ6HkYEkyysx1QKVzJUo/c8Xs14k0FuCRaPb0I60itY/OCtCfYgp6xeiRwP/wbEuDjD7ACYvKz0u/bTzzWD/7z+t095uhZZ+e1jxWfRuAL5hvFJwK8i25/uYnYHLtiz1Sg3lP/OabyHkNMed7JcstUF0p3FP4gMxN+AbCO7h7Xt08p3rVKN5NIbSDaJWz/Xtolo0GfRDbm6sWjcjsjCtyJGcB/fzl2M6KFPAB9k9s1Yn4MlWF+vZ5npjkUPYrYjOmbHNC39LX5faNIfd9UOJshg+SDLNXHdt/yN6B5nkLMuzgHPZrYIsWg8AdlBchPSj0IznVZa8GmKfJLzyBzxNME25HpS3Ye06dObYh4jrzQJVINdSP+5bItJQ8vfvLSRcf8FaEO3psGXwnShNPpQPBPgPwAfAFaX+PcJZGbyB1l/8IdVb5GbVw4W7Q5ki/iLgL8HPrsEZbGo3z8j3+geYjapUyojC78EvH8J8tPn79PISdFXsXYlMCpDz80r2zZxLSrsvDzqnxU+97PcU/vso34/i7SLiwyedyL1/rGeeEm/f5rypE8C9srKatNQV85WHBbN5cBfA5/pqQx+kvWTtzlfi5a/KF2rnGrrIvLbh3wm1Gdf9CbkpoOacu5K/q5Ftvr3kb/rkO2nFv9WXmtkqI38pW9iP99TvrcavE+Qyd0XAR/viY9VpA/9AKLPkuFdo3es8o9ovTZu0e5Adtz0kf/PI6foX81aWPyX5LGUv6a0te2gxKPH0xXAK+iv31gFfoO1bb62bPqUvybl6NGvCWvNTFurF9a/ppko+pwJbwUk8tPvtasp87iBzPg9BFltXVakAxNeAHwT8A/I6sd7kBnDtAqihclb1crrTofbjnyr+mTg4chKw2Vs/gMKdiMzsZcA7wL+EtlieUKFs8p4O6LEvgsZnJ1vBxmkLTy/jKwGvwcpO2uXgqdLLD+LNlr9tWD5r+DHY6Wj20ypDeXpoPy9mchIT3rPQ0CnfwbZuvcHyG6Ka3riYzfyPfALkWtM0nVATcuqbTlb9XkOWcnpa0X2a5DPY26bvtfI2SLkL0q3idzXhNkDfB1+e18kop0jUZimcQ6JKI8l/uaVvyFg5fck8CpkTPho+vkuczuyu+UFwB8iu2sslOokqqNSWP2evgE+PeVvkXU0YTaZegLZjad5arrKOE/bbNsOmpbxCjK+v5bhxtdtZKgP+WsatqhzonuANWqEvWaApweGkZFrDUatuNq4ebgT+J/IIO5ihlPEEdKVQ7uRg5wuB/4VopjvQYzgk8yuTzrN2vshvXLciRgvO5FZz13Mvov9BsT47etagKGxDTFc9yLlsBMp3w8iB6bpAfYko7sKOIR8T34pyylDi8SE2d2GaULgBPJNlb7WoNReLaNZp1UaiGpj1Uvb0l+WkU3mFvGch/OMCU/v1nTOJZ29SHgyfQ6p679E2s1++pkA2o58JvIEpG3e2iKOrsvzLHJWQ18G8JVI37WN2cExJSxC/kpGcVNaD+nTi8fQ/7dyi8CQ7XkR6Er+hsSE2X3nf8Xs+sJFy9tWRH8+DdltdxJ7+3GTxZ0aRLTnkLI4Rj8LIFuRSb27mRnAfea3K9omaVyEjLf3szF02jLVR+O48wL2BnwWQ7WDUDdh4z1y9/iYB15c9yCH+LwDOY1v2a9W2MPsJOPnIgb8nciM4TsR5XEEGYhFA3GQgerF09/XI4b1JZx/K5gal09/3wL8EfKN8BFmRnDeVnYA3zMNe0nfjC4ZdgBPQZT5ceSU2twYKCnPvN2XdEoUV40+Kq1WWGlFbcmi9cJZq+A6vLXCrI3wPlGamHgXYpxcSn/6YwdyJgHMDGBvNT7Bm9SwJi48eP3lWeCj9GcAPxo5NGYHs7MhrF0+Gl3KnzWO0Gl5ZWq1Scsvxbsd0S1PYBhEO0+iMsxRK39DIZoMLLUJTZO76zQs2iFg1Vdy+zNkIvwx9HPn9ATZQfNNyMqrPvjU6pOs9mbBk9US7VlkcWgP/axQXot8TnV95tYmr7m/ld8mtNbYw6PVMqR1mubpMuCRDGt3eDxqDCF/Fk+efvHovxDWWgG2Bp9WRxQxsIgZgNr45kk70d2JHFiUrvXZSFt9L0W+030y8HzWlsVJxMDPTxbcPw2fkDfYoQbXy4p9wL9FToR8B7K995VTv+1Ip/gmlusqrWXAQeS7sh1IuaXtXJay8vQNhrunl7SfNcCqddNxWgN/jxfLMNKKOtKXnuGsww45YPQ6yBXgL5CVk8fQ3+FvVyEG5zbgv+CXW1TmVmdaorXiOoVMBPxMkevucA3w/cB/n75HcpPcFiF/K46fJ/cl49DC05BT9ZcBpfzq56byNxRq67Zm3NZU/oZAxO9RxAg+AvxubxzJWS/7kbHbrdg8luSvRmfV0J5BJtkuo59JgKsRg/tm1p4IDTH/TfPbhDYq86a6Ur9/K7KQNSTayFBf8ldLm9xC2tJAM8rcSvZDPXvxaLTp9HK62gGVFS5yO4cYi2+lv4vQu0QyXrcyu+onXfdzCWKQpN9+FWYr6w+DGDHDBCnHRwM/APw8cAgZjL0AMX53DsXcEmMrsjr3DPzv60sdmhVG++vnpigNSmvCaz5K/HhGfk0ayzBw9HhIW4B/HRm89YUDyEDicvxB2jxlWkt7BtmBc5L+VoEPIJ+rpBOhLb40+pa/0gRDDf0e4GuRCY+hUNP229AuQ5vWKBmpXbWZZR53rCD67Ebg7axdSFgkJojB+VO0vxpnHpnKac8iW7JPzxFfUxwAntqQpqv89kl7LbKAtayLJxuxTENaryFpy1sv40OsqEodgzdb4IXTbpq+Ns4Sj/mMwRngbYgw7qef2a5FI307PGI+bEW2ie+b/n8JUq6PY3mV1zLgWmZXwxxFvlXX13ilZ281Nn+2ZvhKqxCRu47XSyOaVawxIDba4Lct0vfAf4zM5O+iH/2zB1kJfSIyUD3NMFcDnUMGyceR1eA+8r4XmWC6HJm8PRkHX4c+5G/eNCbIIYNXsryfmWymdgz95WfZy+0U8j3qmxB9tot+dgjuRSaPfxfZVXNs6t736vlZZAfXKeKJ4S6RPnPYjejys3Hw3sqkSTpR2LRg9VTE2N9IZ+ws0+6NxohWQa1tfzUrwNZg1FtpjuAZvzVhm/p7abweeDNyH9uIERpbkRm7f4tsOzwQBx+BGCUvQL4NtlbK9epQ8TuOIFxE6+1WSYi230TplFaxrXT1z4o397Pch1o58dJO7ueQ7Wuvo189OgF+ETGEt2duXlmjwoBfzlYcHg3Iqcx93Z+5FRks/zQyQZfzFeW3C/mzaKNyqq0L7bcN+CFkVWzIwWKUXy9MW/kbCl4e03/UJqywVvylMukTNbr1HPDbyI0hfbXrdBvHzyG7HjRPkfxFOstr4x7tWUSfH6dsiHaFC5EJ1KuQCYdIt3h+2j8KX6K1yr5pGef+W5Gx0PORicuh4eUhaqd9yV9N3Uf0a8J63wBPjP8EPeDUNBqeu4cm4TWfTVBL8xZktu3RyLayoRX0iBEbHRchV9YcQzrTdLhH3iZz/ZK/J7dSu7fi8mijdEso0eb+UboWvJXttltHF4Eorzn+AFmNTKfW94FdwE9M0/y/DZ4stC1nK9/p+b3ITpErKtLvAjuAZ0/TPYesBLfpm+eRP08OmuzUssLsRcrx2Qy/UuLtSimFaRrnkIjy2CQ/XYwN+0DNbqIJsgL6CmQX03/qga+EJyL95jbgjZTrpMluoya0tyETbH3ptO3AryDjhnchK8FN+LX82+j3Ujy1aeZjhcuR6zJz435ItMlf3/JXE7a4YGoZth5BpAx0fFG8pQqOmPZo2yjRWpqTyJaTP0CU3YgRI+bDNqTz/A5kYikayOo2X9NuvZnaJohmJkuKtdaIXrbB37zwBrkgW6FvA/6E+it65sUEWSX8OuAQwx1m2OcKcMJO4JuRA8i89rXR5C/dr/6dSP42wjUhI3xsNPlLWEEmlg4j1469lf7ysgNp09+MTAYN1Qb+gX512gTZbff1yGrwMqCpbWPRpk9WntqQfkQHiAxKa3YuN0Ijy7+J5V5b6X0Ih8V3uvfsFchMep8f/48YsVmxHfmm6RsQY1hjJfvp3Sl5mPxZ70rRtN7Kaw0tGa0Hi09PF9ZsMSpt/bG2/QyB0hap9HwX8BrWXiG2aFyIbJ37DmYHyETbpfLnmm1XXvj8dyfwcfrLc8ITkAHjxQGvlltb+aspr5o4vbAXIYPfb2lcEotBjdxHebPiiuj6Rq086LAereUepTMErDry6vYE8EFEp6VvYvvAFchK8FVIP1rbHiP3Un61+x3IAX99YjdwCDlrJa2WluqoJL9WuMjdk38Unf636LYhq79fh0xqLAM8PVVqq33Ln1cHTeKeeEpmwtpBXE60Qh0TFuMWvFVkK5weiEaDy7aweD+NfO/xq8iW6BHLgzNI5zNi4+EixAj+z4afpXO8MLBeH0S0ls6xJuZyXZdP9EWdn0Vrhcv12Urlzws7NGr4hdkq8MuYXYXVBy5Gvq96HDLZYpVbTRlb7174/HcKyfe7OsxTDS5E2tfLA14tt7byV1NeNXF6YX8a+D7sCbMhEJWT548RTrstSxuvlQcd1qO13KN0hoBVR1HdHka+B34P6+/pXSQuRdr1AcQIrmmPkXspv9r9RuBD82aiBR6D7AD5dmQys6aOmrbTyN2Tfwy3SOYniB77OeSaq2WBp6dKbbVv+YvqoDbulQuwsTr93zJ9Xp0+o55RbiuKLvdfxUfup2lraEp+k8o4Ldr8/Z+B+5DZpwOV8Y1YHP4b8DvAnwOfAb6SjXVn8wjZ0vVg4Bbkc4PPTt2TPkn6YAtrdQz4Omfi0GqdhENr6TqLVuu1VWbGbk67osLUoInOSrgf8AsNadrgHPAq4F+QdpdQw/MW4B+BL0Zm9C9aBIMOLkV283wY0eNQ5rm2HqxwyW2CDFIvAJ7UgN8usB0p6y3IBMSxOPgX0Eb+uoCV7oXIQYPPRvrd+/XNlMKHkQmcm4MweT6isqyVv4cCj8K/Qq5L3Dz9fZx2cpDLfVsZmiC3K3wVspNBjzkXgRfT3vD+CPCliI7pY1vyBUjfeQ6ZYDtcCD9vXWjazyN65Uvofyz8IGT1+2PI4tSnjDBd57dL2m3AQ4BfRj4B200/8h3h74D3I23ewzKXaSta3VDzlQ69KuI952HTfxMlEqUT0dSGtcI1pU9Ih/bsRK5f2IcooRH94jgyAHkTsr3wHLOrTq5AOqELB+NuRBNsR9rRtyED9FPMTpfUK7jWjKC1epu717R1T/+UaL20cz9vpVk/R7Q6Hgz3tgO3eWHtmIH1POd1cgR4NzKReAn93Zt9ENkSfBS4nllfVSpnyz+qO4v2CNJ3nKLfwxTT1XfPRHTkBNm2Cd3LX+m5hlbzcwDZ9vxMZCV/mfrbqA3nbto/f24if31D766p2VGzYoSNZCBPxxt79g1dH1Y/o/NzK/A3yIF7j1s0g1NsQyYH/gnZjnwYv35yWHpZP5doV5C73d9D/5N6O5GzHb6D2fkG6Z75PA9ePWKEtd670mG5+1Zk2/O1zK7NHKp9W/Darde/YYTrQ/4iHqpptQFsdYCeEvAUnk6wFGcpnOemlVGbQWob3IZ8y/Yo5DuMS+aIa0Q7HAauA25AjN4VZBX4JuQ0ve9CtsqMh6RsDGwH/jViFB1m7SFJJUMR5abhDaqiyT49kVerX7R+iib3vGeLNhp8DTlQ1OlH+dVh3jX9fwr9GYTbgUPT57dP//N6hvU8R3kq9S25/zFkkHwMmfDp+wTja6e8bEP6sFzGupK/Wvm2jEVrsLUVucbqe6f8Lxsi41f7l9q75zekMeiNuSxZ0HmNxmtWOla6Q8Gqj9IY8jSi07YjstoX/1cjk2vJAC6Nr2E++cufjyInzQ+F5yH8nUbKIMp3bT1GNgnGe63+S/KwE5m0SLcTLBui8irpIW/ssyj589K33Ew96m2BzrcO5lsIYe02Px12C2u3vuRbgFBu+X++BXGLCqfD5jxo94TIr4Sc1nv/PPBORIAvQmbYR/SDNyKXwf8u6+v4FPC3wB8Cf40MNB8MPKBnHkc0x/2nP4APIO1M65wV1uuK3F9va96iaFH+Wuck5PHluish+ent0Vr/bWH99mvNpwdvu3Z6t+IYegt0KV8532eRU/X/Fln978sgfDDwZcADgb+nfH5Ak09tIv8kFzuRTzWG6DMuRrYOfh2ycnMGqUsLbeSvFh6tjvclyH2/j58jrUVAb4G2yiMqvyZItENtgW4i4/p93nxfxMbZAg3yidwRhNfL6U+nXQI8AlkQ+DSiW7uWPwufRvL7dGQS8/5B2EXhq4GvRXaPfYS1Bw12le9IxmvxAGR34q8hCzRf0ZKvRaFmC3SEReu/eWHGU/oGWBupSTnk3+clf20w6wKIBoC1haUN24n69+KIBp25nzXYtfKyBTGC70UGgF8BfFHA94j5sYKsEL5y+v9J/MkTkFnB26e/TyKDzgsY/luLReMcIpf3IAbK8elvB8N/O1fCLsQguYnZaeu5zom+AdYGqqbV7d+TGz15tyUIX5q8m+cb4DYY2gBuilWkvvcjhuGe+VmrwgXI93ofRAZxfR2it4qU12OQ6y+8/neRuB8yCXAhssL6KaQMlgW7kEHtzyBXgzyUYQbWEWq+Ae4aQxnAQ2KjGcAguvHjSF09iH6M4C2ILnkg8knYp/AnthaR9pcjOvyLe0pT437IJMADp/wcZ3bGQ47ayWcLFm1tfBcjOv8FwCMR/btsuxO1Adx1WS0lom+AI9RuJ7Di9Ja4a9K2ttmU0ittzS6l7S3nn0U6iRVmp21eyHJ9o7RZcC+yved1yMrFXazfapUwQZT/MWSLzmHEGNyJKKJ99HvwziKRTsA+iZTRqenvXqQTyDvBA8iq0zZkkJl+u1keZbwPmSW9EtmiqtvcJHtHuVlbKHPa/N0LX/pMQ9N68qfj0FtGrW3dGlF+lgnRtvTk7pV5umLuTYgs9nWmQrpP9huRNnQvs08pmpSvl7f0jnI7hxjddyADtiG2wKU7uJ+BlPUuRKemq6l0vwjN5c9rtzqMdr8U0VPXIAdeXVKZ3lCIeLPyVyqLobf+aszLS5SfGv03BDxdXdJzCaeRAx3fg+iZK1l8/zpB2vGTkC3JpxFDuLb+5pG/FeCvkDZ7CcMcQroTOUzqHLIQtQP5zOM4s/NEEmp1WqnOrb5fj1G2Id8qp103T2b57QNtW9WMT7R7HlcNutB/Nf3vuv66yTfA2t1L3DKKPb/cP9yrXaDRBrbnh+NmdfoJET9nkOuR3jcNdwjZ+jKiW9yC3MP8SpobMHdPf29Hjs5/JvKd8GbAUWQl4kZkVfx2Zt/CaKTtlxcinfKjEMV8Lcu1hf8S5Ju/d2RukVGq/Sn4WXpGK/1o4EPg5+lNL10dr0aN7hoani713KznP0GMwYPIgKEv/OiUh5uRLXQ5T7Uo1aV2O4W05Lq7UAAAIABJREFU1QsZ9huwi5HrN54G/A9kRf8e1t5zP6/8RX2w5f69yCDxSpZ/oAh145RamlJZDYEueGlTRkMiGhtG4TRegej6SxHjdNHYikwefdf0/U66basR3VuRz1gOMuziwrVTHp4BvBS5srTmaqoa/VSrw9L7dqQsfg4xzg9U8LEMaCLnXeqyLvRfE1tvnZ9exYj+0/NEPVvhNCwDs/a5NDugV1s82oiHEq2HXcCPA29jtg1y/M3/ewkys6m3ElkyZ9VTHm4HsvXwGuAvmX3jtJF+HwZ+HzmA7QBivO5EZhu3OuWQl8HWaVkmY/hSRG7/FDlNcuj8fR65CukA608HjvSQp4v6ptWw4qzRJ21mQnfQTx19Fpns04OdGv3sYR8yMfUpRAb6krcPAf9vge+28PJ7IfCTSF6Hbm+ryLbsjwGvRa4bSjtF2ua3tp/ejej2FyNb8D6DbF0cujxKvzcB/6ZFucyDaxG930f+rkMG7W15bzJuiuI4CLyI/vRBlyu1W5Gt27/SE+/p9zlkbPOcDvNSg0OI0Tl021xF5OXTyDk9LwW+e3HZXoMJszvn/xT4BFIfffZnbX+/wazNnzdI3yDlKxZbsudkIXsHU62q5/zdg/bTcUbPUbyap0nAU8SD5a7jnLCe5j6kA0/fH3w54520bZG2MP8m8Hpm3/EmJNnU9asPIYK1svl5RCF9Gqmne5BB6F6krpb1++BzyEzmm5FDwN6KnCh7nNm1QSl/up3C+vZ535TmDCKzJ5HJgI8h5bCH4WR3CzJ4eB+yKpfXe16nefuOdBGKZqVAW7r3t0QbyZ/WSbk+0QdmlQ7P0jSp3Pr+BvizrP0+W+vI/B+D5/Q7O433Icj3jn0dXHc/5Fu9v0f0wmex6wPW15fVb+j8WvV7HzK582BkK/bQuB/y/dwu5ICwg9P/C5HJslNIPvQuCF2HsF52tRxcNo3/scB3Iiu+j0Im4nbSjbG4aKRvgG9hPjkoyVfuP9Q3wF571XnO24Q15rLaTEn/DXEPMNj1CbZO0/WX3leQdn4K+e7zgfRzBscF03R2I9uhzzEbF+Tl7PUrZO5e3vIw6f0sMgH7CGQb8pBjqS3I+OWByCTtAWQ8/hXId8oXIGMe3V/V9Ln5e7pi7mFIHT8JWYF/AqLX0zkPyzquzBEdguWNPUr2mA67SPlrlW6a8fK2B06UG5l7Ds/NY6zJdmeddimu9G9tWbTCefFZbt7W0pTebYihchLZ3nYZy/WN5UbAaaQMb0Vmpe5GDDVdD1omIlnKw6aB9uuZfY+3A9m6vod+7+isQfpG8UbkdOtbmF13AM3a5YrhdpbZ1V63TN+3IZ3GkHfUPR7J52HW6yCI2zdGON3urbi8vOqwHm2N/OVhI71S2oq0LFsHS1sGa7c2nUG27/8psjV/B/0cILMbafvPZP091Bo1ebHC6PBnkfb2OmS73jaG1zlbkT4r3WN6I6KDP4QcSncS0c1nmenQ/LqyHJNpfClf26a/7cgqw1chZf44lk/fNsG8clBDMzRqx2qRn0fbRP/1hSZ1WtLJ6bv6tyO7W/ra1r8PMcauRiYyjrJ+TJzQdGtvgq7TI8g44kZkFXQZ2vSF099BZOLotunvA8hkX9Jn6eyDpNssbM1+26f/O5idW/JVSL919WKyMijmGXuU9F9X8tcq3UUYZtZAPB8AWoyVjOLI8NRhLOPWC+fx3kSZ64H4vcidtHcg3zR9P8t539ey4lZkC9afIIMusOUj1ZV+1/WRYMnXXci3Mq9GtgE/HZm96+ObnVrchnSgv4gMztPBVtYkQCT7nhGX/M8ixuZ/nab3Pcg2v6HK4hnIFqYbp+81k3Irhh+KJtI/llHtTb51IX8j1uIkojvTtTcHe0p3O/C/IzsgTiLtYNG4a/r7WeS792X6Dh/EUM23xN2DTEbegQx2/3H6f3I96Rc+r/gKRH/sRybUNuPg8HzBPDrrfNZ3J4D/iOxwSDsqFo20MvkiZFX7rXR/0r1Vp3cCv4z03frzpaGxj9nEQMJdiD67HTGGP4rkwUIypr8UMXgvRvTavgXxOyJGJzrFM4DbWvgW8oGkN5j04rMGlE1m4Wv4ahJv5K95vQsx5N4JvBCZHVq2Qc4y4QiyvfflrD+MBfyJEW+yxQtjGUggBvc7EKX2M8jgb+jToq8HXgP8BdKB1ci1N1NWmn3Ln29DDvH4X8CvMswqzT5kW9GdzK4babLLxHJrqhdK7vPIXxssk/HcRh5q+f8N5NOEC5FtZH3hR5Btly+hvr21RSqL/4xcj3FogWl1gb3IjpDLma3+nsO+biWtAG9Xz+cDlqmNDoWxDNbiFNKPHkUOnusLlyMT2TuB3+shvVOIQfnbiKG5DJ93RNiPjPGuYbYCfMYJm1Z/t6nfiA2M6Bokzyj0Vjk8wyJaRcnDW4PEJsvgTbc2e7BW1XQ80WA4uactfaeQwysOI9swDjI2nBzHka3INyMHiN3ObGudt3W0tJqZh7XCWKuIx5HZ2qPIVuMjiGIcYtXiNCIvf4x8C3sEf+XTe18x/mtpU/pngD9CBucX0+9W/nSq5WXI1mxP53jPedimtF47b5tuTVo5rNXnifKznvtEpHc9XnTZardEezci9w+l2WFD8+IAcl/jU5AJsYTSpEbu1rQub0Z2OexluW8QSAPAjXA6c5+I5L5Wv5QmyPpu23m6UZ+SQ0+merSaZt7xWtfweIVYv5Xq81ZkUveq6a8PbEfGLycRPXM7MmFlyaV+t/o9nLDpfQUZM7wBmbzcx3Iv+iQjdtlWq4eE1849vVX6p/LZ8st50uiEdmsWKAlw/p5Dh9ER5olFhqs3gNNoqhjnUZhaeXtpRmlYvJ1DDKvfQVbVno7MoqdDl4bq2JYBaRXhNuRAnbczu983R9QIdRirrrzBRS7POe1J4A+QQfhp+jeAVxCZeQcyCL8387N4zunI3Ly2Ukt7CjGCX4Z0YrsR2e0T+5GtY55SxXCbqPfSYC13y2m9gW2Jtlb+Ip1i+UXhPP8+UMtrbfg0iLoZaX/Poz9duROZpPwBZNfFGWb3A2s0dfPyew9yLdIeZLLnfO4TNiIiuY9k3PqvSaNPdMVzja4rufWFmvyVxqCWHNyD6LS3IDqmr3Z+ANFjh5D+/DT1Mhu5RbTXIws9B1luA3jEenjt3Brb1P7rseii5a+a1jNYEybBvx5Ee1Y9rB+Uaua8eEyms3DRYNSji9w0L55/bbq5343Id5yPRO5dvKOQzmbGaeSi+F8Avh457fnw1C8ZLVDXUKJZH8/I04ZRnl56Tt989I07gT8Dfoq1xm/t4Cq9a/+SIZaXS14etyLfEv1aHfud4jLgqw33nGfLMPaMT+1nyYEuOy/eeeVvRIzjyIDxvyITY31hL3I37o/T34rsG4HfQtqataV4xIgRGx83I2OeW5ndO94HLkO+Bb6G/sY0fwL8EpLPsb/b+JinDpe2/i3DE+os+/ynV4dLRqjnZw0cPePbotF0liFuvWsD3TLYvffITxsaZ5GVteuQC7J/AVn59E6e20w4hxh0r0YOfvnPyEnMYK/q1hgPlgFTMog8w1AbVZfQ/+Flp5GVpz/N3KLVR8vY89pZjZGc0+VldRhZpXq1Ec8isQvZRnWA2W4Vy4Alc9N+0aSU9Zy7RWnAfPI3MX4UnjWd9T4Eanj2/j2dPUH04quAG5AdGX3ih5FTivexvmy9yd9SXXphJ8jE1y8gn2CMRvDGQCQH+t/76XiicH3DaptN8+bR1pTFkKjhUZcFhXAJv4icrO59b9o1tiK7W34C+cRDn+nRVP48fZj/7kU+XfpN+jX2R8yHGpmP5KLULiL90CSdNjyj/bxv+ibUrbZqv5yx0grVxAmn09Ju3kpYbrjqMMnNy1O0ulai1Tzq8tB5Tdt+70EMixPIttuLkdWHzXaq3Dkkn/cgKzl/iayGH0XKQpebV36RQWMZz14cmt5zeyj918WtwN8i30RHeW7iBuvb5UQ9l4zoU8gA/U3I6tgO+vkeOJ1meSnrDYOoDLyJDQpuVrl4bh4t1Mmfp089vVmjq/pEja7XPHv/Ee0dyEGCe5D22Nd36Jcjp1EfQ1Zo01Zoq3+pzU/U55wA3oVsH3wMIvPj9Xn1yK9l6uubvpIceHVtjR+8OIdETfus5bc2j8uSf2vS0vKPnq13kHb+COQApj7udQbRJdciY7EjiAGe0ET+Iv2X+52epvMm5DOygwx/qOhGwxlmZy/0hZpxSS2tJ1fz6L9a+bPiWtf/eoOYnCB/tixrHdaLxxqsWgNRCyXedJyeIVByq+ElUog1yjLhFGLo/Dpy6vDLWauUNgNWkHy+BTlZ9WeRQ5XuZnb3WjSIiBpjzSA0l1fdMLzOPD1fTP8rwH+MyES6pD0h58vKp+VXY4hYhpqnqNIp3Ufpb+YaxNi+AukEmhhOOfK8RfmNZK6UTlP52+joIw8pjbcgA6mur/Io4SnIVXb5wU/z5DuiPYfk7yXI9/99trHNgHR//NGhGanARmz/i5L7ZUeTsWMt7THkwM/r2zLVEvuBJwLfOkccTSYvTiK67LXIuGZEMxxn/W0omwGL0iWleNf5WzML2kq2VuasyKIZs7azaR5fnpFqDWqjeGr8opkLDYvWW5HO/e9BDsp6NaKkngY8FrmKZyPeIXwbovjeicx2niBeQSHw81bWLDodh3634tK0E2S2ci/9nXh6GlF2v8b67Y/RqpGFkrx68UXhmPJ1Ernn74eQ7aF9YAcyW54OQtK6JJqwalJuEW0pjS7kT7vrMDjuUZvqGx6fuV/yL8lm/nwMMYJPIFui+5oR34PcC34d8k3+cYO/ks7S8lOqp9uA3wX+Cfn2fkQdfhr4WmSVq09YchA9J3jt19JrQ7btiI+SDovafI3+GwLWjh/tZ/l7bd7zfw/S718GPJn+bgZJ3wF/GJnQvhd/t5OFqA/yaP8HsuhxAvj2uXOw+bGCTIa+GHgq8Kye0y/JrtVGSvrPWpRsIkM5nY63llanaw4kIkVmNfiS0vfithApvxojuWYwGPFo0TU1QDRdqYPL405XJ70V2Q77OuDrkG8gL0a+S13G+xTvQfg+DHwA2S6b3E6w9htnS2gtP1Q4rzOqMYS8Bm3VxVakg+jzqqrjSIeYjF/LqAI/n1F55v55+Ka06f9m4JuQOu2jjLaz9gomqyys/KDccuhy1eE8PZD7zSt/nk6x9JwXpo1eWiRq8hKVsafjV5CB2k1IO7mc/rbT7UIGjYem6d+l+Kvp55rUz8o0jbcDXwk8g/5PX99IuBfZJn8Toif6bguWHNQ8l2iXtU1bfjX50u81YYZATX1ZOqyUD017DjEKf4vZhHtfY7sLkfuB70Qm3NI3ujVjbO1fkv/0fsv0eR+yo2tXA37PNxxBDkI9xjDnA9XKcv5c0nlRP1kjQ4ugdWfSa4zIyCiOUDJyI/+a2cFaBVoydpvGp2mbCESiTatstyFbRrYhRuUVwMOZDfx2Tn876O97zMTz2SmPp7PfbcBHpv/vQbahRUZEHl9yLzUQjxYVRstQkwFqMrT77IxAFN27FS+1gworjOceyXdte0iTG8fp5xvpZADXtk1Lh3j592SoFGcp3abydz6hbd5PTX9/iejFPfSj97YhE49PRSYoj7L4bWnHpmm8BpH9gwxzIv2y4yxiRLwZmTToe4v8iPMTbceEGvciE103Ibv9Lp6Tr1rsQHZwPQbRMx9k8QfvpRXgg4hOvYzx/l0LJ5D7mv8UkZ+hDkScZyfG0Ls4qtF2AFGzxGyFX6F+oO3FXUPTtgKswXPpvZbWW4WzyiS9n0W2EN+QuaWL1L8GOUAhzab1YbCdRAaA7wPejzTUO5hdYVTaBVAz8VGSj2gXgkWn067ZqvEw+tv+DDLj9xfZe60BZ+Xfk88SbW17Og18CNmh0JcBfCmz1Wav/rXRafnVtE1LHnL3kh8qHCrMhukclhS/DnwxYpTu7THdH0QM4LRqsmicQnTCVuC7gOf2kOZGwxGkb/zvnB83KYzYWChNfqYFj5ci58D0ZQBPEOPzx5gtsvRxUvNJ4L8g+X4m/X1GtZFwE/LN9Lvo/3OOHPOMUTbM+EYbwNa2SygPOK3tvGAPLC3UDPYjmigtKx86fERbWtGppW2yMqV5zv1uR2a734gYB+mk3IuBH0C26nW5Ze5u4JXILHv6KP8MMuA4y2yGyspbrVFV2jngxRut4LU1NCaIYdfXCvDdyCTCkSz9qF1FBi7YcuRNLFiy6KWbu9+OKOqnGHEuCjuROkmHA5XkLb1b5WXJmxcfrC8bTxc0kb/IkNfI86Z1Q8kI7wMWT7U8R2Gs8jgFvAL5RvZXumG/Gs9AduD8EKIHte7z8mnBKof0TPb+dsTofgPyLXLS+ec7TiH1/0aGW/n12mrkn8LU1H1JhhYNrx034bkUNqIdApH+tRDlr5b2FuQAzHP0O9F1ADkQ6wHY5w1YvJfyS4XfbyKfUn0r8PwG/G52/Bly/sO7GK4dlOq2pA90OAsl2iiOLuTvC/HojtQbAOpIPKYsw80y7krGEU6Y6N0zJj2DtcYQLcVtxW+5W8a2V9YebfI/w/oTQncgs2v3GH7zIq343cbsdGKdl8jIsAboWl6i/Eb+lrtnyOmJiDxeXT99fgN8BPg4aw8J0zzB2vLQ/rrMdL6jdhMZ3J6hcgTZ8t4nLmJ2dVbiKUHXrWdkYTyjwmmaPIwVt8VD7qbjs2S3RqdoXRSF7RseTzU8l8JY+bsHuUrtrcghVX1+O3clcijJW5CtylBfN1G9e3V+CpkkO40cJnMI2T54vn5Dt4KUxe8wu05vqG2CpbZXGt944Upy0RdyuW6qs5rkaZl0mjeOqa3L/L2W9jRiBO8AnkR/n3dsRYzgQ8AfInr1NHV6yRqflcbHyf9eZNv1CrKT5yBy2Ov5OrF3AtHxr0J21g15b3LbsUgUrpROZOMtQv6+4LfV8dSDOa0AvQGkhcg9UhAlA7kJagxlz6+W1koz0eRGiGcYeoNtlLtFewZpNOm05S5xFjF4kmLUwlkyEDyD1aP1aCIjW4exjF1No5HT7qY/ZXwPa6/uaMpzDotWhy3JVE06xxGZiNLrGunb9+Osb0MaXrlYxqmGl6fIrQv5y+nboK96sNJtohc92lqsIHruDmTV5ApkK3Qf7XU7sjvke5EJwVMs7nvgvExTOr+auV/O+fcN3Tmk7g8Dv4EMGocyfptA64UuxzaLRh9tugvaRaE0No14rhkjpjB3IrJ8K/I9cF8TXBcx+yb4emQ8EvFtTfS2Qbqy7ELgO6bx9nnP+7LgDKLP3g78Ocsn/21Qasdd6IhOyimyoj1DLUctI56hHNFbxk6T2Yk2blZem85s5GG8wXDJDYNW+3n8LhI63RLPNZMm1gSA56bjs8pYpxWVp5WHvnE3M2PS4sfiGeXmha2lnSh3K668HE8js7hDDUCtvOk8eLrCa1eWbGl6rwzbyB9ZmPSDte1DP3thhjJ+cx4gzpcOP3GeLVorv8eA30a+Ab1nDt6bYgdybcn3Id9oWbxjuHl5025eua0g+Xwx8r3gb7IxjL8ucRj5BvybmE1AwLCTP/rZqlvdLqxwGO5Dt+sc1pjQk1kr/6X8LkuevXaZu1ljmVraKOwR4EcQ2e7zHvCdyOcEj2Pt53ORTqqptxItwB8BPwe8kH4O41o23AC8HPhZ1raxIWHVbamte3JQI0P5e1PaueTPuwYpb+TWYC5iGCNcZFxY8Vp+8xjaURolfrqgtcpFu3nGXsmtb+Q8aNmwOgcvn5Fxm9PpOCzaqEw0b1pGhi7PTyBbyxN/Fo+wnkfd9jzaKK7IvZTuWWQGt4+DsHJEsgCxfGr/HCWaPJzmo4381eg1bXCXnoeAl35tvjz32vy+BPhh4Pvp9+C6ZyN1eRhZvbHqs7bvaiIDZ5CB4jHkM4SnIytGm/mqpNPId3G/i3w7eIrh5R6ay2sNz8vUtiGW5xJ/NeO3ZchjjlL5R/5tadPzOaRPvQ74NuTMgb6wCznbYDfwa4ovCzVj/No6P4qsPt8x5eEJyLbozYpzyALC7yC3Gtye+S1De2hiv5V0wjwytHD5q9luEBmEFhNNZzBqMukZodrdMqS8NLw4vbyWaKOwVjgvbT3A1zzV8tglcmNW171X357B4eU9Tys3KkrplPLvyaiOv43sdoF0mFiCZ6CBLd/JzZIb6z13h/V167UfXVZpMN63wtb5KcmfRaPdrPYUyXlO21b+Nhu61ENN4rkNeC/yXewTO0q/BvuQ+4GfgXybe47y6kUXZZROjj2JfAOdrma6CjktfQebR77OIQc+3oYcApau2LPKeVnyvAwD2GXBZiiLedpsU9rUp76H2X25B1qm3RQT5HyDY8gBlzdSHn/XxluKJ51rcwzZEv3PyMTiNdP3zbQt+iQyYXoLotNuQ4zhZUOtjdO1Wy0vtQjlb2vmAfFAsYkRqf1rMl9jaFuDfx3eS6cNrRWH5ie9W8ZrZLBEeYryHg3kFw2Ll8jQ8AwJrwy8OvIMVos3z62mjIfssLUh7uXP4rVUFtF7qQws/6EHm1F9eYZtST68MFA3qdZU/vJ42+jRWto+EOn3Es/z0p5GBmvbgUP0K5sHkRWTVyKrkucM/nKevX6hrVu6k/s9yIr0DyDfQ/e5Er5InERWfl+DrBDlqBlYLxrztMtlb9MJEX/WeKcUz0bOb5t42sjpHchVkw+nPwMYxNi8Gjnj4KapW4nf0hg/D1OT97cg+vxy5HOPq5HV6aHHHF1gBdHXb0EOHfugEWYZ2oInu7Cevxobx0Pb9lHiNffLw6yLOxnAnhFjFYAeAEfKcMUIl6dj+UWNpU18NcZNRGu9W3TaLapcb5BuxWHRem6LglU+JQXvKayuGwysT9+aLLDkaxkGUU2gebRkyMtHibapITIUIp2k21dJOdbm3eNhHvnD+Pdgheur7degRoeV3OahvR05HO3hwHPob1v+TmTl+TrkG7r3OPwtym0FmQC4Dfi/kG+in4jcsfnsBvlYNhxFBokvmj5b30OWZKgPzNMul71NJ5TkzwoXxbOR89smnjZyuoJ8G3oncs7AXvo76f6y6e+diBF8mLqxc2m83gT3Irr0G5FV4KTTNuq9wWeQnSy/AryeeMV3GdpCU9mtqXuPviaNhclf11sLvAFjrXIsocboqx2g18701VakZ2BEhoaVvna30vDSWjS88tGTFlbeI54t4yP38+i98i4ZgKW6GgKliQXwyy+atIlom4StmdzoA5pnrXM8/ROVa05ryZpum5E8t5E/L9z5ijZlcAp4LbJtcDv9fRM7Qb7BfSLyKcNNcfC50imVyb3IwPkw8G7ga5DyOMjGWBW+ASm/DzCb1NCr6suOjcRrE7TJVzSu6jKdzYj0nehLgR9D2nGf+JHpf7pdZCjchUzy3Qo8HimHy+i/PJriLLKD5X3IuQUfQLY9D3Vn+QgDngHsGZmWta4H0/lzNOCMrH3LIPQGmDWDyZLhGBlYpdUenS+PVhuJFqywpQmFPjoMyzCy8u4Z97o8SoaUZdRYMhkZKlF8XtpDdLxfRPk6k1wu0rv2S9D5imh1OFhbX5Z/+t/K8FuTrHZJ8B7JmxVWG7teOy+lEaVd4qUJVlicAZbjDNKRny0FbIk2ZXAWGWi8G+Gv78PZ7k/56pJFGwKnkQHj3cg2yruQg7LuQbZS7pr++rzmLcIpxMg9gQz234ys/NxOu+/ijiKr4YvW43cwuwNaY1Fpn0Lqs4/2/VG6ud7LG0fW0IC0448jW2L7kNd52mbX47BzSB38BfCvEGOqzza7DZk028FaA7jJ+FujzcTvvdPfHcgp2VcBX83sAM5dyPhpWe5FP4bU1TFkBf+dSL90B83bVN9tfiMY553Kn9WgSkYj2IM+bdzpFZqS8WfFXxrUlsLoeCy//N0ytJpMBljpliYAPOMw97PSKRk0XcJT9p4BYE0SWP41fl58XjnV1oVFOwQOABcjnXwOnWctQ95khFUuJVq9umnFpbF9yvsQA2lvMqW2/dTIQSRzkRJuI38anuxb8eT054B/b8QX6QrLz2tzeRnfiXToXtzRZGc0SaAnC6L86rhPIduAX4+/Amzlp5Rfna7VP55mdke1FX+evuY9mhzxJmJ0vDlWkAHiG5EBNMC3AI9Cvql7DGIED4lziAxdj0xavAsZOFp9HJRlaIXZttGdWZiozVrxlvxABuSlui7JECqclXZOezfyLfQ7sWXBSqtNXzdBDI0jiqaJ/OX58solT8+jPYoc9HaHw3spbp1GSa96fjW0kZ6q0ecY70nPvgT5PlcfcOfJbpNy8uQNZpNQVh1ptyhuj9YqK08e0h3JH0TGHDuA5yE67UrEMB4aK8gE3t8hK7/X45dTCh/J393It8J/HYT13r226tEeZW2bt3jUaJKOR1uTHwudyN9W5RgpumiAYiVmDSbzdKz3SJF5A8galJRCPki1aHO/kiKvGUha/qXOzEqzTVm0wUT9e3URdfa1tFq28vBeJ+N1OlH95nFa/PaFC1k/GPXkojSIqwlrpZPCR2WVu+1BZl+HGER7suCFy99xaKOBS5TOPPJH4Gb51TyDdMB9IJ3E6/Ffmy/LPdJzJdpj098Q7TnXJxDXu6ar8dPx1ej/JINvQQZkW5HVnUcjWwkfxmwAuaht0meQwfStyDbADyErtYeRlftz2LsJmsrQUfyV2S5hlf88slsT/iQywXNnDYNzIpfjLuQvChvFcRrZvXAkCNM1SvWlxyNNaWvC6ve76feuc81HTb/VpG+bp42sMDsJ/7eB30Mm43cj1yd9BbAf+Xb4Ehan09Iq783A/0L02a3MPttI+qxUTtH7MrR5693ym4e29r1p2KL8lbZA54isactw8eAxXmPc1ihcz8D24m8ywM3DN+HPmh2pNXatcCXDepHQadXMdEblEsUfxaPL1CsbL/yK4ZbcDyNXivTw1DIsAAAgAElEQVTxHeE+5JCLWoMtMmT1RIX2136W7Ne870VWrfvE3chWLK+OvffcLT1bZaH9NG2pPtrIX5RuLbSBrQ2JJsZ7LQ9D0VpxadrSVUQWbUnma9JdZtokF/lhUrcgbepmZFVxL7Jy+iBkMJmfJr176rct4C0N+o5O309Pn08An5z+H53+jiODx/w+3y5kqKbuFy1/bWhr5G8lCN+Ep41Eu+K4d5VuW/Q53oJ6nZbQNM99jyHnReI1bSk+hRiLNyBG6G7gr5Dx2xcDFzE7FyIdJnYJ5UnSs9O4TzDbkn4c0WGfmrofYabPjmEf2NcWNfK/jNgw8pcbwJYhsKL8PGOx5BYN7nX6noFX+i/FowefUTo5SoaDNqg0baTcS+GivFnxLAor6t/jRYevpfWea2gtGU3xWHGUeDuHfA/RpSKLsA/4MmSwmRS6NRiyeNWIBsBeGM9Pp5vL9l5kprUvrCAdzYnsPf/XYRMsPWOFy91qJ2/mlT9PN0VpRfHmfpofS1dpPiI92IRW8+zxW6KN3i0+tJ/lbvGRxx/VR9SGrH7FQs6zprP4KNW1lQeLf6usjrB2VWmC6KA9SPu+jNl3dV86dY9WU5KB/Q/T9xPIysVRZPX3lJGfPB+j/J1f8mel62ER+k/HFcmbN64r8W6lGaVbSqNJumCXtcWDV+86rlJbmaesNE3OZ9TOkv9ZZKu89rsQMXZ3MvtmGOSAwNLnW6cRPfZP0+eTyKThXYg+O6P40zzXlGnOq+bd8qvx98Ll/DWl3ZTypwVAJ6AzbXVOXiKeUBD4WbSaRtPq98jPe4/CeR1lE1r9XBNP7maVnVXGfcDqVDwh9fjzOk/dQVvhow7a4tHq9ErPJ2k+69oWe5DV5muQ7+B0mUaDjmhAqVFDmyOq48uRbwn7wAprvw306j/KX0kfRe0rKuN55K+JHqsNV9JvkY7xaKJ024SppZ1Hz9fQNOVnEbSl8mqa5xrayP3U9Hc3688k6AKj/NXHcT7KXw261H8Rv6W8LLqcvHC1tE35mie/XZWVhdq4Pb+0Mrso1PI0VJmO8hf418zGaCLPQE3P1kA0H/w1Tct6ztPy4iilZflbA2XrvQ2tLgMvnxZ0vFG5LALRTI4lcJER1iStElYoC792z+vBcj+HzCT2eSLefuSeO82Lhpa9pgO+2nqM2tpeZPa0LwP4NFIfpW9qIh2Vu1to0hY1XVv5G1HGPLqtlrYP/TliY2KUvxFDog/5G9Eem72MN7386RXgmpVY691aKbLitdxqVw1L8UX+pZXYfBAdrYxF6dbEX4smRk4fA+raOsnD10wm1NI2ya+1Qq39rPD58930twUa5BuVJyDbc04jRrhnsOq8leTOku82MpNoH4ec/tzXvaJnkPpoY+xb+W9Ka4Wt0T0l+Yt0ppV+abLPm2RsQqvpLRn0VtatdC13Kx4r3Zwfj4950vbqSPPn0eb8eXxHtB7PEX3JryRfJZ7y+Ef5m7mP8re55K9GrkrhIjfNVyRrEQ9e3mrbRU2eSnkplW8bHkq0CaWyt9w9+WuqB0q814avKYtR/ny/hcpftAXaEsRI0UVMRAyvKLc8Tc/Pi9Pz17Sa54jWChulH+XB4sVKq5Q/L+5Fw6prKz+WkOZyMQ+t5qPUKKMy8hTBPYghGjXWLrFn+ts/TTv/1tVqi5YcWnJdyr9V5nn95JhMf09HvqnpC2eQQ8nOEZdF/u51iPq9RoYsf083NpG/UkcQ8e6Frw0TuVvhavSwpcssP2+g49HX6Omoo7ZQkqF5aL32F/UFE8M/6ov1e95v6D4kKrdR/mZuo/ydP/JXOy7z9HdUjvq5lFYUT9MxcE5TS1uSER1fLa3mpSRHpXTzMFG6Xl9dQ6t5KbXxJrQeDzpMKZwO64Uf5a9C/kqDe2sQnD9b715FesaGFW/uF/HmhSnlK4q7aZm09cvLxOssannqC0mYYL2xoZ8t2pKw6nCaXtNa6eVxpTARjzreFWYHuPR99cAvIluLo8GbNfjIw9YO/Eryp2l3IAb6dyMrwH3hJPA3iCGs8wfr5RHWy4elPDVyWi3n2t/z0/4pjCV/eVol1IaL6PumXcHmu6ZDz+mbpNeUtpa/mjRL7yW/0qAkei8NTGppI7pR/srpNaUd5W8Y+auNq1ZWLL/SmK4m3Tay0JS2VHdRfE1om9ZB23TztObhOeKpDW1X4Ub5a0dryl/tDJzuTCKB9gzdJoqxBh5NNJtruenBag0vXnwRT/p5RbnlP+2G8axpF4mSURUZvlbe07NlhHnho3gjHpPsaSOkVO8fRbbe9onHTH+XY/No/a84fh6tnqiK6iT3vxR4AeWTE7vGKeCDrL13tjQxRxZWh6uZxMtpLXkv8VAjf4vEPJN4i0aTtGvDRvp9I2Aj8VqDUf42Vp1uJF5rUJOfPups3viiPmbeuBZBO0+Zdl0fXfPSRxqj/M1H27hMt7J+MFwyAPVKSz6gtgacK+of1g8qLUteu0dGVo6mMw+1s5elMN4MhJc/jwcrnJX3pnzPA20srVCWmSjvpckQLU+lcszly5K5FePZSzPl8R7kqpA+cRHwWOTakCPI6meJZ/DL1aPN47Cec1qQO3+vAZ5EQaF0jDNIWRxltgUa7PoFWzflqJHZ3N9LLw+rw7eRvxSH5kUb1Z6RXcqn55/T1hr689JGbT/qwLz8e3m04rP0iBU2mrCoKVstkyXaqC4tWi+9Nrx46Y7yF8c3yt/69Daa/JXqzNP7NX1gTflbzzqNGrmo4a8kU1FZ1cZv5cGqCyusxVPTfHnuVnmW5CeSvZze4jmPd5S/cpjB5G8rayvMC1wjDFbCljBYjFuM6rCWwvQ6M+0XdXol2ib+2s8TtPTehDedH6+cFgndMKI6aVJO2q22rq0ytOQ2L6sSj+n9bvrfAg3wRGS78fuA25idfgzlctPvUfvTZWe1meT2OOCbgSsa5KMLHEcmAtIdopEijPJXMzCLZEiXadSZNpE/zVPJzWtPJfdIR5TSXRRtbXy16bXRo5F7KR9Rul3RWuial5p4S/Sj/I3y15aXmnhL9G3kr2l9tZGrGn5rnhdNm7+3oS3F6cVfU79t0m1CW5NubRjPf5S/cphB5K80k9BEKad3z2jOw3szIulZD2z1u05PQ/tZsxn6XQ90vbAr2DyVZlKiRuDVg0cb8blIlCYHtAw0QU191rrn8WjZK/GV6vJ9wHuRVdg+sR35Dvg6ZOV1e+an20ZyS4jK3ZLbUllsA74f+Fng2wthF4H3AW/Dn3Tx+K9pHxGtfm6qrDVtiWdL19ToLP0+YT5a679rWk+f19LW8jQPbZ/pLJJHL3wT2lH+6njoknaUv2Hkb9nrS6NJfprSRuiKtlTmJdqIp65oF1U/Fk+j/JXT7JJ24ikePVhecfxXVNh8sGcN1nV8HsPacIwMySYzOyWjvYmBX0vbZEajpiJTetptkbDK3jICLHmx/pukWWpEnlGo66REm+cn/e4FbqlnuTPsQA6a+ingEHJCdELbtqD9Ldq8HPchK78/jJz6vGgZs3AYuQM4qk9L31h1CX4eupKhJrRWHFb7sSYTPVpLL+mwmk+rzLx0onQ9WrDzp2lL+SvxFNHq55w2KvNSWJ1uKV7tb9VXqd/V6WjanKeaPmmUv/VhrXRKPEW0o/wtn/xZdevVdU26NWEj2kjG8rLx8qNp8/zkadeka6Xp1Y9Fq8N76VoyMsFP26vbnDaHJzdRGWuerbrzaC1+a2gTT6P8zZ57kb/SNUh5BDqMZsCqDE9IPYZ1+BKthVLFzEvbJm6P77ycvQZQavi1PMwDr1GUOnH9bMmOdo/SsMrICmvF4/FnvSe3e4EbEUNQK4BFYiti9D5r+rwy5eMUs8OgrLIp5ddSgnm4lPY+4CrgG5D7iYfASeBjrD+ILFLUUQcCdhnlYa3OqqZM55U/i99Ij2rU6AQvjnl0RxPaqNPy4rL0Rm3aFm2TcponzSjeUlxt6jLiGer6zVH+fJpR/ureN5L8eTxH47QSbcSb9x+lO48sWOGaxNOEv0WmW8tLFC4aQ9fURylMG9kd5S+OZyj5A9Ybvt7siOWW02H4RelZtDU0Tfyaxlt6rw3btExKaWq3PcCLEKNhtcPfB4BDzLbiWrJh8dS0ftrIhzVLpP+9MNFzer8Iyft9dFumTX6fBT405WOXwWOtfJbkb4IYv7uR65j+dsA8rwLvBJ5GWd5qdE5J3iL/qIznlb8RI0aMGDFixIgRPUOvAOcrKTlWWL9iEq1idGGtl2YNtV8+s1szi2L5eXnK3fV7E1qLV4teu0X+OXbR/TU1W6fxap5zPiKeoHl+ddxRuWC8R+WuZS0Kl1aA70GM4R1G3haN7cgVRK8C3gL8NfCOKU8531aZQFwGediDyBVM3wdchhjCQ+K1yOqv1f4grrdaWUWFayIbFi9N5K9kCFttyWtfFs9NaWsRxVPLX5s0+qBtGm9t3ItMf1G0o/z1T9s03tq4R/lbfDl1SRvlY5HptqHtqm67TG+e8vTiS2jDdy3t0HWp3ze9/G2pJLAMmFJ4b7BZ69f0XRtHUTo1fKd3GvBrxZcjGrBbaXhCuQMxSvci34peCHwZ8GTEkNkZ8NQUx4Hrgb8Djk1/hxHj5DS+bFh502hjGGvanB78+it1jBaPKexvIdugL3Xy0RfuAO5ETod+9/T5KHACuwyjQUCa2NiPGL4PR055voa1Ex594xwiV98E3IVMQtQOaKy8RzLlxVcbj0eLCuPFl4er0U8WvLbRVN/VtNcSbS1vVNDWYFG0NXq9hrZp3XRF29R/lL92GOWvzm9e2gjzyN+iscy8jdj8GOWvAM8ArjX0rM4EJ2xNXJGxY/l11fk2RVPaJgNhL9wEWQ3cgaxGXowYLI9HDLOL6dbw1TjK7FCiv0FO6D2OXNOTvk1dUTwndGGgerQ6TB7OK+ta2oRvB34MuaJoKMMwxzngz4G/Aj6I1MsZhPdzrL06KSHd+Z3kKBm/VwM/gnz3u0j5qcUJZHLlkczqwpOLBC1HOoxHG8lBKd155W+RndBm7OQ2Y542KzZjXW3GPG1WDDWpsci4m04QjegfXdTRKH89omQAW0ZJjZFiGargF1zNbG5E08Svaby1kwGlsE3LRMd7MXAIeCZitFxSQbdInEJWIG9CtufehhjENfXY1cy0Z1h4cluKK6qfX0auBNrr8DgUTiOr8jcghuPHkEkKjb3IxMmXIKvZV0zflw03Ai8Hfi9z03Vq1X9UfyV5K026gd2u55W/ESNGjBgxYsSIET3DMoCbWvptVkObDgCb8IIRdl6D2Iqzhq60cqXD5ultRVbkngU8Flnl3YscdrULuaN1SKwgxtcpxAC7C1mNfC+yZTqtQkZ1ouPTaLPyW7NbwFoxLBk43wJ8G/CDBp9DIq36nkBWgc8i9aKxbfpLB13toPvvxefFCWRl+4WITNVOTtQYqxattZrfhLZL+fPi0HxZeZ+XNppY8NIopRmFtfwiPrzwtbS1cTRJJ3pO75qPSOZqJuu65NejHeVvlL/zQf5qZUgjkt0mZW2Vi/ffND4dvkm917ahJvU+L21NXmriKslyKf4m+iOSj1H+bPfe5S83gLWyq81YTo/hvgh4ldUmjijeUriSW8SrV4YrwOXICu+lwDcDVyLG79BGb4R7ka24twJvQwziu4EjU38rvxZKZav9o4FTTfhSx5reL0W2QP8SYkA2UcIj6vA+4I+B/0asGL36K8kFxG3Ui0fT1cpQia8RMcayGjEkRvkbsRFRK7ddy/dQ6c6DPnhZpvz2gQ0nf3owP6n4n7CWbmK46/A6rXncNLw8lOgidGHkePnwymgr8JPAG4BPMexVNG1//wi8DHgSa7891fm1ysXz088E7pE8l2Tdi2eCbD3/O+BzDF/Gm/H3Emb3DtfWaW2YkhzVhm2abv4eyV8JbdJtQjtPun2lYbk3qcuauBbBcw1PbXkuhdfhRvmbj3aUv2bp6nCj/M1HO8pfs3R1uFH+5qPdrPK3zlP/N2WmiX8NuohjiDR0wetKTs+XAs8DPsrmMbA+jVzbcy2ydVuXR1RWXvnV0lnuTZSY5b4bOAT8E8OX7Wb6fQ659ujqoD402tTtosLOy6P+WeFzP0+nWLTaz3L3Op5av3lpI95y9yhdTavdo3Qt3mpoPd49niLeS/FaaZR4ssJ6+R3lb5S/80X+rPcozRqe5qGt5bGm3pvWbSk/JdqoftukW2ojbcupTbol+autn1H+llv+1iHKnBWxxZCOqwu0jbvUiOblo024CbPvfJ+DrJi+F/gM8HmGN0q6+N0H/DOymv3zyBbimnKpcbP8mgq6pRwit23IVvTfBz7C8OW7GX73IRMKz2btAWORzkG5Qawb5pGDkk6bR/76xLLwUYONxOsyYhnLbxl58rCReF1GLGP5LSNPI5YPo5ycR7hg+j9BvgdOP/0d7Gr2n9zzQax2m2Q0W7Ln3B3lNlFhLeR+OX+afx2PdtuS0Wo/i0fNr07Xo11V4fLfduAhwKOA7wQOId/63o/6+5mXHRPggcgJ1g9GDl76JHJI033TMHn5J+Wj5UGXY+5vfX+pZTL56+f8PZf15K/bQ7qjdidy9/JDkfoa0R5HgfcDv8bsPuMk/5F+2cL6uga/bnM6S4bSs5cuTvh55C+HpQf1s6cna2hXHNpaHiy9WuIvotXpefWh66tJuXm0XrraLaq7qD5raedJN5KDJvxpt1H+Rvnb7PJXqpNI1rxfLW2NrNbQRjzXunvpRnJRIzO1tFFZ5vm36t3KW026Ok7t78WP4x7JaBd1adGO8ted/H2BSGMS+DWBps/jLcUd0ZbC14SpTXceWq9sL0FOFP4om2fFt/T7HLIl+hBr75y16rXWbQjsAv4d8PcMX6Yb/fc64GnNin/TIJLj2rbQNN7Iv1YnezqtLW3EU41/V2UV9YNtaCP0QVvKzyh/ZZ5q/Ef5K4ebh3YR8lcrQ9b7kLQ1cWq3iNbipTbd84W2abkvuwzNQ7up5G/L9KXpCbv5s/azaEuMtj31t0lYK80a2olD04RW8/Ac4LuAxyB3sZYU9mbCOeSE6LcCv4FcnWSVH/hlGMkdKlxUT1b4GtoJMoHx6GkednJ+1WFXeCvwh8CrkSuccmgZsHQE1LXBJnJQQ5vzlfMQxaHTjXRTDbwTrq24LHcvbCmNEq0ul9q8RfqyFN7yK9G3TbdEP29+S31OKa6S37z5zePRtKP81dO3TbdEP8pfM/66RttyWnRci0Cp/trw2HUd9lnmy1Ino/zN/EMeL0BWYSbMVmQm2X8+sEv++tl6n2Tu6T33T9uMNJ1Fq5fko3cdl/ZL6W7J3qN0cj7TO5W0q0a4hwBfAzwf2e78EGbb0M8XTIAHAA8Cvgy4BdkOfR8zOUnljnrOO2IdDtbKmd7SkrvpsNqvRLs65fc08EXIVugHlrM+YopzyNbnlwN/M33W8NqaV/ee7rLautYTebwWjafr5pE/HWeum2Ct3snddX4t/URGk5dD7m6lp59XG9Jag9tVJ5zWrXk4rbMt2ly/6rJKsPysPFryUUOrw05Yz6cOn+JExeEZGausr2vNn+YjTwvlrv0i2lH+RvnbrPJnxemVneYjotU85DIUya0VH4Z7gseTVUdeHFF7yP092kkQvmQ81ZSfTis9a/nTPOi2XFuXmmddLrC+fi3ZtmhH+VuPZZK/EBPnuWl4TWvFNTH8Jtkvird2RqKUH4/PpnnPcRHwZOBXmAnI+fy7Dzkl+tnAFci24lKdevVQqpeo/trITMIO5Kqnv0a+bR66TDfC7z7gX5BTny+pLOda/0XSto03928rf5b+K8VbClNbFiWeo3jb6mgvvzVoIgPz6IPa+NrE08SvxEMX+R3lrx6j/NX71cSdwgwlfyX/Urw6/SZjyKbjnChMbfpN66jL+vVo29SHN36sKdNaOYvGqLW0Fkb5q093LvmzVh8nyEA1/9ezdR6NFSaPS9Naca0afqusn1210rPis+DxWuKzJn4dJsX5U8CPIVufR0i5bEO2gz8AMYbTycpk/3olwKqfLYZbSiMPb4XTblr+o3Bnke3c/4IchvUIg4cRa3EUWfX918Bx1rZp8OsjYdVx13qqCa2VrheH5Tav/Omf5jPpv5SH3H2i4tG0WxzaKN08DovvFM8Ww9+jXTVoddo5bzqtPN6orDx3zVNeJjksfqx0rXJdMWi8/Goecfxzubb65i2KFtbGnccT5XeUv1H+zhf5s95zujy/Vry5PwXa5G+VZV42eToRz57MRvKX08L6dLUceLQ6Xc1jTpvH59HmMqLzmqeb9+tWuWkedH6tdHR+rXRz3aHDrmb+uj3W1uUofwPLn2UAex2GVlxk7jpR3WHp9zaooff4LPkleHzW0FoD8lVkq+9PA88Fvorx1GALXw58KXAHYhR9PvPzBjdWo9eokUPv3VM6Ft2/INuhL0DqeISN08Arke+mD7N+qyPGu1aGVv1Y796AywtbK0Para385brTGnTn4VMaeQeVt4mIVvvl7taWIT3A1OnlebZo87Ry2jxua4vXxKDTPKd86e2NFq3uzHM/vW3Sit8yoHKe82cdbsJa/jzavA41f1F8WxSNR5vCWu6j/M1oR/k7v+TPes9lQOfPGoPg0Ooy1XmwaDVPmlbLjFUWWk7ycgBfZnR+c34xaDXPOq5cXiJavZhl6YV8W6/2T3Ql2pr86TrQbcSTPy1j3vZrTWulO8rfcPJXhYn6t/zy90nwPFHulp8X3qLz+PXSsPIU5SGitXhI7xcBjwPeybhFtvT7GPAS4ACytdiSt0gGh8YBZDX7/Yx1rX+fR04AfxXwLGB3yzJeJJZRphLmkft58tWENtKtTeNr0/a1f00/1dS/LW0N7215myfdWozyN8rf+SB/3jjOc29D2wQ18jcPj215aUtbIyu177V+Nf4leO2j6zIf5a+Ol7a06+LQK8AT1lrg1kwmyn9VhZuwdlbV+oA8/1B6gj1oRr1bM7Z5WDK3PF2PLysdlJ9FS0ajn3PabcDlwDcCP4Tc+zvCx4OAg8B7gU8BJ1krW96MvIdJRZha2pr3E8gK9kORiY8Hc/4dcGZhBTnh+RjwQuBm4F4VplRXTesyD19L6+kRreva8OD55/rF+9cz3hFvWmdPMtrcT/+s+LY4tFZ5pI5lJfNL/Oo+pFSuk4w2D5vz5OUzz6+VP4jzG5Wx1/51fq1ytspCp2ttX9VxWLRR/eZlYuV3lL9R/s5X+bNove2jmk7XiUery40sjJW+drPkD8plrMNoGbX41+1J84Thn9NG7VqXoyUHHv9e27Hqw0vfk+0ov1r2rc8ANJ9WnYId5yh/yyF/X4hEYxL4NYGmz+MtxR3RlsLXhKlNtw3tk5AVr9Xx1+j3KeDFwH6jzLuSyUXjicDLGL4sl+H3MWTL826Wv976RlQeJbmvpW3iX6uTvf6iLW3EU41/V2UV9YNtaCP0QVvKzyh/ZZ5q/Ef5K4ebh3YR8lcrQ9b7kLQ1cWq3iNbipTbd84W2abkvuwzNQ7up5C+tUK0qz3z2YTVzt55LWFXh838rDiss6t1Le4sRZhK463iSmy6PUro57g9cDPwfyD2/y7jdc5lxAbIF+sHI6cq67ibqWctX5JZDh2si35H/BFm9Pjb9XYF89910kLEZcCPwCuDPgX9k/S6KWj2S15G3amCFb5JGlG4NX23kD/zZ4OTnzQQnNwq03qqNVaa5n56RzdPFoNX8eX2KRevxrGmjGd48bzpsU9radPOysmi92X4dp0Wr6ywvTytvpTLVOrQJbaIb5W+UPy9vG0n+rHx47vpdf5fahDZKV+8s8Ghr4tRuEa3FS226Jdr8e9wobzXpenU7D89apnKeYX18teVeStcKM8rfAPJnbYEmI8wHcrmy8RQmWXgc2miwShBWp2PB8vcM7XncIuwBngZ8N7KKeT4aPvNggtypuwP5nvZTyNU5yS83ovLO3HOzDGaCfx1fStdKw8IW4DPAKcQA3osY9Q9AtsWfDzgB3Am8Gngb8CGkDvU2GUsXWG04ueVtOe/APH2Twm1xwum0dZ17PHYhf0kx52FSON0Rr6gweRuwaFFhtQ5KZZS7bzHC6jApvpqOLs9vng8rXY1cTqz85J2YdcjFhPXlZ3WIHq3HU56u5t2i1YeF6C26Ea2WA29QYNWHprUGAIl2lL/1GOVvc8tfzndTN6vO54nP4zHlUctuKb4UTofN6bU8to2vtqy0XdGmrHRbqqEt5ddrvzq/ugxK+WhTb7Vuo/zV561a/iwFMQn8mkDT5/GW4o5oS+FrwtSm24T2SsRw+xxrG9P4a/b7BPBSZDVdl/9GmlS4Ern7+R8Yvkz7+r0f+E9dFN4mRyTHli6r0W8lv8i/Vid7/UVb2oinGv+uyirqB9vQRuiDtpSfUf7KPNX4j/JXDjcP7SLkr1aGrPchaWvi1G4RrcVLbbrnC23Tcl92GZqHdrPK3zrPpkqxJs5Fo2kH0jWegnzvOLQBsll+9wE/Clw6Ld95O8JahVCKV4cp8bANOSX6l5Ark4Yu10X8Po987/t8xOj3Vrujusvro0277WpgVptG03S8QV2p0/Xi0XTaXT9H6dZ0/BGtlb+obUX0XroeD9pdp2XxFKUblUVpEBGVRWkQUSMHtbJQE2+Ur1H+1qfr8aDddVoWT6P8xflapPxF9eCVbRSX5+fFUxOXpovkrAltKX+arlS/1nMprog2krFa2hqem8qFTt+Ls5SHUf58vnqXP2sLdNrevGowmodbNf69cFuycFucsB5t/l6itfwi/rrEfuDbgKcCFy44rfMFqc4/g5ywfI6ZwZWQtlVZsrKSva8a4bRsrmbh823+GP5pC4WOV8vplinf9yGr2keRb4Tvj3znvBlwJ/K99m8DNyDf+35GhUnll5e1VR95ua0qWh2fDkP27tVH8tNxWuklWl2fXcif3pqYb6IWLAYAACAASURBVPXytvFsYW28eoui56a3PuYTF9Y2zZz/1UraVP5bFG1eHnnd6HQ9/nW5WFuacndru+Vq5peHt9LVedO0eX63GP5eWej4dX3m/lsMP6tc8rhy/jyedZmO8jfK3/kof7lc5enosLmuzv1xaPOweThLFnR4nd+cVvvp+s35tuQv99ti/HTceZqaVqeb17VO15KvieM/UWFzGfP41bKcI5IrTy5Q/vmzbhM6Xf2vaXS6o/wth/ytg2ehW+4lWouuFI83G+D55eno2QIv3WjmoMSLlS7AM4A309+K2/ny+wTwcuRKqVJ9bARcgnwffh3wEWbfOA9dzk1/9yGr2R+Y5uW5wC5ga2cltflRo+v0sxeHFy5qM7Xp1tKW+EvvbXjugr+u07XQVRqWX9d1OcrfKH+em+W3meTPC6vjm2esUSNrtbRN+PHyUVsGNbx46Vp0XdBGsmfF1Ta/Fm3Tcp+n7Ef5q+PFS9eic2mte0rTzMMk+89nU72EV40wyW2S+UXx5P6ryi3xYcWRD8zB56X0PHH8PJ7zdF6GbP18kBN2RDs8YPq/BVldtOpW15vnboXzwpRo83cvfSvsCeA24HrEuP8S4IuQQ782Eo4DbwJ+HvgT5MTnzzGbZWtTppZbl3W7qLBteUxlAutnNfPySs9aN+d0OW2eljVbWkoXxw/Dz/OfOH45T3o2P+I5X/WJyiqlm89ie7T5LHueVk26epUi5z2vm5wnPfOs69CKN1/p0G5WvF656JUBnd9R/kb5s+LdjPJnves85uWUu+l+P/LL82nFY5XjqkGb84wR1mpX1kqhps2f87CaRy9di2fdfiNaK12dZnLX9e3xoGl1fTZJV8tFVOYebe4+yt9yyt8XkFvLljXdFF5cTWjb+i+KVmMf8Gzgk8h3kKvjr/Pfp5GThPez3lBsKqeRv+dXI8dNaSfIiul+4BDwH5htHR66vKPf65DvfB+DnHC9nearvnmZNC3TeWhzv7a02r8r+Zuwli8rjRJtxF8b2ii+rmlL8Ghr4mhD6+VlHlorHi+NtrqmK9pR/uJ4RvlbLO1Q8qf9+qKt4Tl3XyRtFOc8tBY/1nNN2Xnui6BtUpfz0Fp+fdGel/KnB676u8davzzSfM92/myFzePV7yXaFfWuebTC5PvXa2itf83zXuDpwE4j7qFxDDiCrNadAM4A9yJX9IAcVLQTMcR2IXcWX4gY9bv6ZjbADoSnJwLvAO7O/LScRHJqyVMNrSeL89CuIN8CnwROT//PAg9DTr7ej9whPPSW4pPI99eHp7+/BW5H6uAk5XKxsOI8a1orjnlovXia0Oq8zSN/ub4o8RsNINrQar4t3RXps1rakv628hHRWuGs+Oah1eG8spqHNkdUBn3Tehjlzw83yl93tB66lL/klsao2i2PN+rf+qa13BdFa/WzQ9HmqC3TLmmb1OU8tKP89Sx/W5WjJtBKxlP0Hq1WxF5aLoMBrRVWw1OaVgdRk46m3YYYK09ieEMl4TRi6J4BbgU+CHyYmcFyGDmICcSwvAgxLvchRtfDkK3clyKre9um/0Nighjqz0SMsSPIwVIJlqzUylitorTCzUOb497p72bgIFL+j0TqZyezOtjGTFYXhbOI7Jyd/g4j27XfC7wPkSGrzef5tpSuFdZr4x5t/uwpdk2X03r8eW4lGdJuTeRP86br1NO/Vlm2pcUJF7l7etqLM4pf03phvfdaWu2vw5UG51GZeG5WH1NLO0+6tbS6rx7lb5S/80n+rDrKYaVj0UZ1bfER0dbKn1WnUd68dmW9l+S+lra2fGvSiWhr6tKizccEUduM6GtoLb00yp+dZildjbnlT+9bTx5aOKyBm0XT1r8GXcTRdRpPRE5+fv5i2GmEFcQ4+TPkRN4bEOMF7LqM8joBngBcCzweud5pWfBjwJ8jq9sJXl60uxXOC1OirS1Lj5YKnncj1ycdBL4BuAaZqNgTpDUPTiPf8r4L2XJ+OzKJYiHKf9syrYmrSbha2nnDzsujhlWuVsdt0dcMfKOO2+OtxPc8tBFvbfMblWEN36V0I96jOvB4L8Wr4yt18KVyIfMv0ebhRvmz0x3lz4972eTPei/VV4mneWhredSw6t3iKaK1wjah9eLy6EvpltpIbblZ9E3TjcLWtINR/pZc/rYYEWliqwC0EvKYjxSzFRaD1mN+XWZU2KhAaju5Uv7+HfAdiKE4JG5HVudeg6z03stsyzOUO0dL4PIt0ZcCP4GcxHzRojJRif8PeC3wloH5WAR0O9iKrALvQOpiJ7Mt6weAr0SM4W3M7kquwSlkAiGtPH8U2RVwLzKJcgIxhk8z2y4/onvo+vbcuoi3xr+kl60wNe5RfE34axve0nW1/EVxd5WfefLblL958tuGvyb+o/yN8teX/OGkbbnXxu2NY0u0tekmtCkzb0xbKz9Wula42nF4TR5q0/V4qUnXoyulWzK4RvkrpzG4/G0NGMrdrYS1W5OCt2itArYMs8iozt1KlVSqCG1c6/B7gIcDlzAcziKG7/uAv0FW7s5iG/LRpIIVNhlCR5CV5D3A1wJXIVt0h8JBZEv3W7HlA2wZiWTFmxjJ49Pp1MZVU+ae+wpigJ5EDNYVxNjdhmwF348Yw9umzxbvFk4zmyQ5yew7cW3sRvnRflZ+dDxeO/doozIu6QYdb1MeS3F5PNTEpXWUN/CPePfClvy8+Cz3rmi9+Ly256U7L60VR6kcI53g1VEka7X6xeLfisfjz/Ib5W+Uv1H+4vyW+vBSWdXyrNOK3C1emsifxV/+XtM/W7Savzy+PLzVh0bl0iTtqH49umj8YKVZkqFSPz/K3/o08vfB5G+rkbBX+F7FRDRWJrzwmgdLiKIM4fhFwpnCRx2JVy4XI6tu+4z89YFziMHycsQAPpz55flMWDGe83Bevs8ixtGvA7cgB34dZH2594WrgLumzxb/Grm/7nijvFuNz3PTfhZPNbSav+SWhzmL1P3t05/Hn9f+vLYVKX+NksKy4tP0npvXaeRhrLqsSbemfkvpe+XSVP5KPES85265n3bzeNf+uX6N6tui1fyVaDVNhKaDh9p0a/KT3HX9WX5WPCV5KvFQO+CwUCNDo/yN8ne+yl+pLEqorVfLrabePdpIFmppm9Sl7q9KaVi0Ho81Zd6GZ512LX81dJ4M6XZq0Y/yNwu7dPLnKRzPrwk0fR5vKe6IthS+badXQ7sdeCnwEYa5iuYfgT9GjEF9QFVURl7n0YR2B3AIOQ34swPl/73As1ieg8e6Qm1bK9VtF2mMWDxKnbh+ru28murV3L2G1pO/trQRTzX+XZVV03bVZDAxBG1tH1Cbxih/Zb9R/mK/ZZG/Whmy3oekrYlTu0W0Fi+16Z4vtE3LfdllaB7aTSV/F0z/VzOP/FLmCTNLeVX9e5cq64T0LMtq9q9pJupdx7eq/qPwNWEs5DzrfCfa7cD/iWw7vX8hvq5xD/BH09/fI0YoGW95/SUk/vUl28lNP+fxadpVZAvtian/Afo3RNO24Hchdy/rOs6R+1nPEW0pnjbpWv4JXhvy2kETWksGdDgdXl92bkH7ebogoi2VVU26NbRRvdXKQ9N0o7xtMX6rys9rlxGtpastf+sieT1ratFq+i2VtFuyf30pfZ63nD7vhzD8tyg/7ZbypeU651uXs/a32r2XrtdmrHRr6rJE69XlKrYceDyP8jfK3/kkf1Y56f7RG79q2VkNaL34o3RhffmvZOkkNytdjHBk9NYYX5cNrG0XOa1Vxh7PpXQt2lxOLB5LtKusLRdPLhJ0Xep0VzP3HJYcWLRWuqP8LZ/8McmIUM/5u3b33Kx4rfgnRjgvHitOj4foPYorinuCfG+5D/gMYnyt9vi7D/h95FTmHYX81vrVQtfXfuDHgf9ZyXuXv38G3oxMRHh5myfPJVmK4q+Rzdp0a+LuI90o7YnhV1tebfgrpaPp2srBBDtvtfE34c3TP17ZNqW1fjhhdTw6P6V0S2nX0np50jx5+fXctHtNmjV9ixW+RDtvuVj/UTo6zVH+Rvk7H+XPysO88qfD1taJx5MVVxP5K+V7EfJXW45Rula4KGyUP4u/Gh7a8m/x5blFeRjlrz/5MyPk/2/vfUPt7bbroPnb9/VyjeF6vd7e3iaxxhqSGDUNaVqLpGkKsfRDKojSD4JSaikiIvZDK0gp+KkUEUFRKQpF+6H+AasNmlLU2JqKllJaTE1MY5omTXKJyU28ud7cvPfN/vlh/56884wzxpxjrefZ++xzzppwOPtZa445x5prrLWe/efsw5wmzRHIDLbzd3zcvLn90xHx7XH7J31fjoifj8s3MX+84FnVSC2+Wew3xuVJ8FPV4isJz+ds7lrr5ueIHMuub9VcuGt1NG7V7+7JSn+z2IqT039UrUbXlZvjqbDuPu7mWPrr+5b+6r570Z+roeoG+imwTkxsq7CMi5v3tWBH637vGtqDfVH62z66ih8dOqc29sUSnW0JcpxIbaf0+0R8clt+zP7omeFVnK6f1SHjznH58qt/SuS7pv21iPgP4vJlV+8nPhGPa5R/ZzuTx11b7kNt/Ehc/n3Ob4qI74qIr62HcJi9F5d/C/RbI+IH3nFAY3PbaU21KbyTI68Fx6ocm3VzW8Wq4qIfqwvmc/iq9tG2rv4BfozvaF4Wc3S8DMs4Zqvqyx4jT5YX55XlnsVW6wXryLBOXpzP6iyosIx3NR9KTxWWzZ/ivxdb9Qf0z9YF4+DjHG/pb+nv3vWndHBKWOSRrcNWGu+0W/nm+DguZ36ZD86DWpcVlp3DjDeLxfq7vqpO1dp05gPzjMwl61P3KEt/d6I/NhmVVWTzQFXMUzwuCOJYwVhc5qc4OFw77HfF5f/t3vIdz78dEf9xRHz94NiPaMM+9HsvIr47Ir4vLu/M3rIu/0pEfJPgy2xE49fGPsc2Zq8F666Nkby4ppz98qi4av13WLU3d75dXsZP+XR7ejXmmfF2fKo2jOHmVVZhnfOuquPSX82le5xxS3/3rT/l6+RlGlKxuzkZxTo6UO0udoSPi+3yzdYJfUdzoHb3risXy/qX/sb5uFiaD98Bzg7qmXXuwyT4rFu9Esd81DN6FZ9x29qqVxS2x+oVAobNeT4Zl39/dEv7P+Pyrcs/THg5tdqMvSqTf+e5CPCt/P5iXP490tfHbf8t1DfE5Z1x99X/IH6sjWkNDXWhXrFWVvmrGFh/nJ8RrGrLcVmbk4dZNR85VjeXVa0qbG6rYrDH3Vhn9Vc9Vnts7uteOa361KuyzrV6pdq5gaiwzNQZxPborl4MW/FTuRSuGwdy7fKG6FevhnccVdvS39Lfa9Ifu290/LY2pV2sEda5ypsNse45izXBvGzenfEqLHJW2NzO8Ey76kx18mbr1lqXNwof1Z75VnVZ+nti/X0kHtrb+PDbzPJg8J23gOtcpLfwO+Lht28FPMb8iN0e5xiKB+KqH8y3jb3yfRsRvyMi/iXC/Zr2xyPiz8bli7c2Y99AGfFw/rB22zypOdsszzn7JswTtP1yfPht1L9lYnyz9uW4PAH+m8HnNI83Qn/bHMNgO37THX5jJdMu891y4prA/Ay79at1NILNXE/Et/pmvxybcWLjzXsKW9PZl81HhM6POIbF8TJfZz7Ql40fsUonmw/aOflv+PyNiCfwieDfmHhO7ZGuq5uJPC7E5vq8eQh9tGeOYDdO+XfG5joiVo03+zNOasz50Gb1Z5b3C8TgeCI4R8Ut7/F4NuPcs3EhBzVexOZ8S39LfxEvR3/53onVIsdQ30SLnHC/H8EyveF42RxtWLxvwfG8IXg29i3PCBY55vk9heas8ub5zH4RvG5sLpEz01CXF3PjfKDGEJfXisN56e8J9Mf+fc0ZfnemnpFvfed4XJjcx15lcXNjHnXtYhGDcb42In7tILc99kFEfH9c3vnd/u0Qq+nIeNHwie1snL8Sly8I+71xuy+n+rq4/C2w4uyMBX1c/Z/FY8cq/5G82Zy525NX+Y/kndGWi8Ebo9F8robYeGf0h/veGdqVL+NRYVVulTfnynsM45GxLCbjNsK5q2vO6xrLW8XI+21uY/zUWDrsyFrKOXK9GbY7mzGGwiz98falv+epv4xhezmrOYvfYat7q06j7lnmnEWOjtl4R/N29amwHUb5VvfvUXCq9gOlJ7aOOmxXg6W/J9QfHjpsA1Eb9vZbbc6ZFPPLAlCFZiLb2pUA8Ym1sykqXxz7J+PDb2C+hX0QEf9bRPxMXL74qptg3AzYiwuIxTnCuAqb63yKy//l/am4fCnVyA3BHvtEfPivkJBjdZ39OyzrOwLrclLrr8tTcXI44JoazcNiz3Cawaq9ajbvqfGd0V9EfeOI+xjmUTeOVWx26LNcbE9gj9EnhC87lJEL41jNJeZl9WD1QX4B/pmTWgPY3u2d1brq+hRnR0Pq5mfpb+nvtesPx4/1Zf1nA4s8cfwVBrEsjsuZ5cU4XX6lP3zM1gjjzPJ0cbu6sHWq/LEWHZbtT6w2bFzorzgv/en8V9cfvgOsnjQp4eDmchZt6hrbOuzmw56U4RjcDbk6xNA+Ebf91zsfRMRfisu7v1lkEZwnHvDshoGZOqgqLMvxubi8Y/2tcfl/yde2j73Lc4pLrXBeu3nG9ojHNUA86wtow82KYStOla+ad8Wh41xdq1pUPGbyOjVl1w6/kflT43M1MqK/AD/Fg3HCQ7bCsv0gx0MOylfdcAbxr/ZR5MQ4s8f5Wh2wXV6FVXVhWMWfzccZsNWeg5yUn7u3V/Ox9Lf0x/K9Jv2xPbsaHz6u6o9zXelInRfK9uTFvm6N5BjVvKv5RGyleWyrYs9yVnm28TCM0gHLizEZluVd+qtzMP9D9YcTmNtY34ghPsftYlfYzt/xcfNu9gci4nvj8d8bXevn5xtuo/PGsF3bCPZTEfGdcflb5VvV6N+NyxPul2DuWuvm54gcy65v1Vy4a3U0btXv7slKf7PYipPTf1StRteVm+OpsO4+7uZY+uv7lv7qvnvRn6shdv2UWCcmtlVYxsXN+1qwo3W/dw3twb4o/alvgc6vHHavCCg7pTjb4wj+DJ2Rq7DslU6Mx14dYBuoGnuFvYV9LiJ+iLR3r3YwY3PBXrliObI/y5vt83H5CPQHBZdbGHJTr8Sp2rF2xI7GU34sboUdsU7/1SuUqgaszR3vZiPzwdb5U+TFfafi4uRV+xhqQ+VnHFlcxX1PXjbGDpv3nBmsyjmS18XmvtG8rO+aWORXxR3Ju/S39Odgkd9z0B/iVdxqT1f1mTkfXGylX8SidhW20tutsN0YKt+jsXkcTB+jeR0NLf09xN5Mf2pSuz70Y8FxE8q+KLRseGAwbPY7h7YqL2LZNWJv+RHoz0XEjxh+bPyspt3jkfhbO8Z6PyJ+Ni5PhN83Yh9hXxGP/y67mmP0q8Y3as4mg3lH5qOL2WG7XJVu3DzMRuajwrp5urwMV2ExtnNjyuLiY3YwOfPCrDvUsM2ptXsGZAzmzb+dOE7eaj67vJX+nAOWcdl8Z/cShh3RfRWr2muW/rgt/b1s/an5Y/eU+V7Uwea8GYv3nw4WfRhHNy/z7c5FxDLO1VnYYSseFbaaD9aXY+GT3Qqb21neAJ8Ki2NY+rsD/bG/AR617iBjrwJEPBSiilth1UbJDgRnk1Vxsu8/FBGfabBH2eci4gdJOxtjt0lUWGasj2FV24/F5e9zPyXiH2mfCj4nM1qusKNtuNAdqzaeLs4erMv56LaKy63jzWDVBjuSg/lWa6tbv+jH8rC9l90cMFP7drefdz7Ovqz0PVordR50+57qw9qxPN1+yny6vIrzhmHcu32CYZf+OG7p7+Xrjz1JZ5xZ+xFY5Jz91Lxjm3oCVd0/YizFD/OMYJ1aVXkrLNZA6cLJeyr8urw5x9LfnenPOTS6Q6GzXCSMN3vgOP6s+NlUu5PnKaw7vAP6HUHib3yM2Kpm2W75DvDH4uG78h1HHCurgfLFvqq/M6fmmGNrU4u8yuH0dXlVHNeX9Xd1VH3dfHXWcZ7N644939ThT8Tjw0XdECKu48HmWOXFOOjDcisNsTlXeUewp+hrVXFj2KqmmDcKLObDvAyrxs/ydhpCbAxgl/487NLf89Rf1XZqfuMToxFs9pvB4lwpbHX/y+analdt3RqZwaprd40fjWXXKge7L+t04ORZ+uNtu/XnTAa2z2AYie5J5gyW8VBPou/xSW62X4iIHyXtKMb8W/mh5Vdd2GP1ZBfzsRcczhHxxXi6vwNWCzTi8SalHrMNjeVh1yp3ha80OvKiz0jearwsp6qru46YbrfHnX6d+eiw2O/Ecveq6mayystq2T0BqPZhzIH+bA66vRv9nDVRjbN7kVLxz31q36k0cyI+OUa1drp1Va0Ltq5wTrpDna2RHEPVlOWtNLT0t/T3mvSH/efgmsAn44yXg2WxGLY6I5imct3yY3bOsfEybGVqvKxO2XKeDYdYxDscMS/qbg+W1YlhIx5zxzWw9Hdn+sOPQKMzJqwCox/bIKvCZMPDgk2Q+s3iZD7IV40jt3UTcg37Qlz+ry4amxclSjR1IFdtFZbZKSK+FE/7RViVtq6Nd7HdGqjiK+y1eXeaOgLLDq9RO4vHszE6UzeBXXy2J+W+kb0L+ztsdaAin4oL45HbcS+vsB3n6vDHmEpX2Ri22/+68eZcbE4Vp+rgzv2IZTeRKjbDMi5Lf7xt6e8x9jnrj9WY8WHxKl2w6+p+S8UZyXMWvhV/dl/v3pur2OwcZGNHfai4ak2oucy1UHuA2ltYXvRheStNqHhLf3egP7WJ5L6OUPbF5CjE3F5ZJqmKrn6zOMiHtaGQs6/D+do2sliw3407OkaV4wtxu49AV+bWgGE6rNowHB7V4d35qvXIsB0Pt6/yH8nr5HBrxXDVGpk158bZxaKxm4DuZnLzZXsS3pirxyxvzoMHNXKuDkq1hyBfVhtVr2qtdWtwZJ3i3DprsdqHT8IPY+Hj7M/mRq2nal/pHi/9Lf1l35esP8R0+huZc+zD8TBsdz528+jMCcMqHvkaf1if4q76FReWczO2J7hjVXuCGo+au9yu7rkRy+qmMEt/j/uuqr9KlGzDU4k6657RH2VKMK7teSJ5tH0mIr4t6tqrgyFfK4GyhcL62A1/92T8q+J235bNOGQuagFsv9kLNBmr6uXc1DBftebyXFVY5FVxYtfVhqw2OGXu5q5untz5YXlR5yOHVDUfaO56GtUf1oblq9o7rqPY3M7Wg4PHnOwJR5db5VTm7Pe4HnKe6pBEX3ZdnZPqSRnWho3XjVthMwZt6U/HXPp72fpTxu6RXP3hWEb1l23POGawajwOtntyObKWVGxVMzU/mLcbX4XdfN3aO+tB2dIfb7ua/t6LDwunNpjchzePrMDn4MnxxpHlytbFUdedL8bO18pXcbymvReXL3jCeuf5qtqiwEbwuuGTB1aXCrv93nR1C/sgLu82dwuPaUTdIKAfa1PrpsJ3vtWiV/OWsdUNz4bFfrdu1TpTGIZ1f2+PnZukao4VxypOGHnxBnFGf8yP7ZMuF4at8uN+kH8zrNoX8EkA7kl5HA4H5Iu5sa07LNXYM1fGiT0hmTnfcu5uX+zOSGcPUVwc7S/9PeaLubFt6e8h9rnoj/FgpuIzjTD/Lm9Xq2tiN54qbnXOuTxYLPRDfSPWvd9yzmLFobJuXXXYpT/9+Mn0p570odhOxJcNkgm82zjPobHoV5nadPFwxHiOADf8B3G7v219LyI+Go8PlOqwZjcBDBvCT1l3aGL/R0nbtexLcfnSrRGOTCMKo/Q0U7fsj1h1Q4e/WV61jvF6W2eqFiov046qjYOt8mJfh2X53DlReVk9K47susurYjiHNGqg2t8c/ah8qp4sr9pHcf9XOlX6ZxjGCbE4XsynOLDHlVX6UdddLpdztw+4fBV+6Y9jlv4+/P2S9bfhqrnObdUZXJ1jqFHGC8erclfjde51kRvLl7myOWBrqdJfjoecHf2xJ4ij48W4mRN7jtKtJfXkbOnPs5voT218bPMcFZMSyzkeC4phInhhHQzLhfGYr5rU7fH/HRGfjdvYZyLiNxMeleECyE94cHyIq+a4wmb8Zr8lbvf/kn8qLt+W3T1Rwk0o+7CNA3Wfsed4XF9mFRZ54CaudM761RrprrfHeZNgeStdqLgZyzYprAOOLwiGYfM16rjDqjqqdaQ4IoZxZ/POaoMHR35c7ckqF/ax+lYHaUBfRJ3XPYQZJ/TH8Spj2EpPqo5qbSpOKmenhWovVXHd8xfnI//GWiz9PeS09Pc69Id8q7nDdqWRzKvqVzxy2ykej1cZ88k8sB3joq+6Z1Acmanc7DHG6vRX1U09ZuNjebtY1X7AYnePGQ75YvvS32NfNFt/bJC4GSM5JhjcoFg/G4RqYxNRidiNWWGRJ5uoL8Xtvtzp4xHxG4BPNudJgmPdoqgMD7CvjAvn0TjXMrcGDNM9wXFuVirsrO9TYZU/W9/qes98KMtzUK2RWWN7lxt3JL9zs8h8ZrAn6Ms2UsOjsZmjuulmN75svIwXizmy/7la3B7jeFQs9ljNNc5dhc1nM+PI+Cz9Lf2x3y9JfywW4zZSNzSFZfcMrOZVbbHdnWsVs+M8g604VdhOf2xeK6yqeZfXeexg2diX/jj/m+vvPXBSG4pKqHyxvTsg0E+JH7HdzSiLyThiLlw4W/8X4vJx21vYxyLikxHxtRHxM3F58p35ZWNjU7UZuYEftY9HxLfEbZ8AfzEiPk/aq5usaPrUq1Bu3Wexm3+Hda3C4wbh4KrN08XmvspnNK8yRwcjeZlVOqj6876EN5i4H1f1G8EiH7Y3Myw7G1h9EKvOFbZOKs5B2hhW+Z3gd/atOEeDZf0dFvmyujBOmHPrZ+ekytthl/6W/nLsl6g/5cPGodrYWK+JVXWs7hWUXzfeil+lw1Hsnry3x9tR7gAAIABJREFUwka6ZuvYxVZ5l/58fofqb9sIT6mDbYL4Gx9XPigUFuNE+ruJRGODz+2M1/Y4F1PFjoj4hbg8Cb6FvReXJ5TfGhGfiMccWZ0iuEDyAnZvPtjiZ3lz/ycj4re9434r+7m4vECQOW2G42VW1ZE9PhqLbYhleIVFY/huY8Y+FjNjRrFuXtWn9JdN6UDtHyN5mVW1qOqR917GxcnnYpkO1J6IOBeLfmpuHKzC41yNYCseEXoeGQ71N4Jl7Yjtar75MA2N5F36W/p7bfpTZ4F7L+We3XuxjEuHDeJ3ZN5c+7w2Z7B78m4+186LMXKcI+uMObLf0t/j2IfoLwc5Qyf+jnhMlg2E3cB3Mc7xmAcranfAKX54iKo8bEKyfTYiPhe3s/ci4ndHxKdTW1cDtjjV4Vgd3OpgrQT3VRHxT8flS7BuYZ+Phy9KOItdGdN/ZbM3PhtWcVA3RU7eWWzFCXM4eVnsvfNRcUC/USzLuz12dN9hlS/j03Gu+qoDxZl7dmOx/VR7814sxhm9YWGPWZ+60cezp8KiMd3huVfppdOzqp/LKchjNl4Hy2J12KU/Hje3L/15WBarw7K5RL3lMeLjqh/HNItFThVn1E7ANetHLMZFzucCi3FRY3luOyzLG4DpnqN0WDYeNy/rq/TIsEt/d6w/3MDUZqqs2gAzwQrv+nb52WBH4+AEYqwfi4ifnog/a+9FxHfE5e9qPx6PD/WImm83Lqw981EHHXL4prh8/PnTxPda9uPx4ZPfSsvYz8aK42X1DeKn+tE352GLGxczw7JYajxO3iDtbDxqA6tqg9csD8vLxq/mVul4sw6r6qbGyTZcxGIe1s9yI2c2plxHhmfrvDtMIh7Pg9LfyF6+YVWtFe9cNzWeKgbmrLDIzVkjGcu4b7/zPKkzVc0hjqdag6we1TnG5phhl/6W/l6q/tT5VMWu+tn1CBZ92bnB7sdxLlA/DhbHzsajsBnP1jBi2fwgtlsjAb7qPi1C16JaaxWWcez2JHa99Hc/+pMbEW54jikM28xG4qn4DseOU9eH9gci4hcj4u0Nf/5IRHxzwW1Pm2tdvH8+Iv6ruG1dvicifteOMR1tM2sG8Xuws3578z4Fdq8dvRb2xqkOpk5XbNNncSpsxaHLW2Ed/2vkrbAsDsOMnAvqpmMWe0Ssbn0t/V0v79Lf/epvjw5czTE+M3HQn43VyatwznVV3wqLMRhfF+usxT15Z+aji8OuZ/Iu/V1Jf6d4/CpelaRKHsGf6WdTrxgqQ17qlcwqpvI5k8c4Dmafj8s7wbe03xER3/7ucfUKSwSfP7eN9bnY3xaXd6tvaT8Ql4+kV5tjdV35dFhWI6W1bsPfjOnOGcOGdTi766/bB6q14taU4d3xzsxtbu/ydu0zWLyuXpE9i8cYx8mNhx22bddsf3bjK2z2y++OYRx3jCova1dYtXeqV98ZVh3K1Z7c4dQ8sTFWXBSHpb+lv6U/bc5ZpvyUVfkqX5fzNj9OHWY4KazS0Wbd/UjHl63bnJfFcOtVWaVFXBMj41v6m+OksIfo7yPQ8DYi3sDvtwapzVeZ6jsZ2C4GxqtydTEc7Kfi8mVP32rwOcq+Oi7fCv2jEfGT8fBdUOS3/X5D2vL4GHZ7zPxY25uI+Lsi4g9GxHfH5Rur39ij2m//dkT8SFxelMC5ywuTjWEz1N/bhA1ox2tWL6Yzds10P5r3KOwbA7vlwFqO5EU/VoMRzkyTmWue/04HbA6Zhhi+mkuVN++3aHnvzRp7k/zfmNgzYKvDKo+DYbeYVd4ZbJicM/YMsRF7MrBb3o0z1rnDnsE34iGn3JdjM45vm7gRj8eKfEL4btf5JjJzrLBLf0t/kWK/BP3hGDAeGx+O50hsJH+GxflBX1xXWTcVdsuBnEeweQwZ+zYea+otYN8QbPZla+Qcj+ce9xRcIwzL8jJsrgXOM2ooWzeXS393oL/q1YXqVYbulQ727Jy9unAu+k6kL0g7ipdxcbBqHNj/uYj4m3Fb+2hEfF1E/Atx+V+71bcsqwXZ9XXGsB9/x+ufiYiv2Rl/xn44Ll+CxYzp2OXnvhJ3NJbZPWHdVx7vAYvz3+lgD5bZKDb7s8PkRPxmsCeBRY57sdt15rQXm8fJ9uajsNmvw54NLDt3jsCiKR3swS79Lf0pLNpz0d/GBWuLMfH6qbHYtheL7aqOFfYcHjaugMXfTFd7saymqr/q266fWkNLfwmLr6CpzQl9MpntcYc5w2PMlQm7Qsb2qt/hqXJu2FNcvun4WyPizwQv8rXsS3F58v3PxuWd4M8F3/BDXLNaqzlh84V+25PyfzIi/sSukY3bB3Gpx6+Lh/+WCrlGjGsp9zk+I3FnTM2Fk2uUSzfemOSyB5v7K1yn6Rkbre+I/liszT9zj9Su4qqDwsWya/a7w7IYyKvCIufummFxrCq/ysnac/7qzKpq5oxX5Wbcu/ntalXVb+lv6a/j/pz1hz7dXKNdA9vhqjgjvpU+WdxKV12ebl5Yn/Kp2qOIq3g54+k4ONhKz0t/fdxb6e9X7SR+O5jZfseOiHFUjo9HxM9HxJfjw7fab/Xz1yPiX4wPvxVajeFktjFzsF8fEX80Iv7fJ6jBT8flBYiPNWPB9qpe1Xi761H9nwrMSN6jsIzPyJjcvHvmY8bPxe713csRf5h/7mPtCot9rF3p0e3bi6245fYqL2KxvcrLuDlYxV1xqrh3cVmOjhPzVeNd+lv6ey36Y9dVTofTHqzL0Zn30bntxtNhq/mdydutkdk6zeTt9OfOz9LffeuPWutg+FSDY+0dMdWnJsXFqjbV9xUR8d/G5YnYrZ/8/VJE/O8R8cfi4b9Gqrgf2fbRiPjGiPjTEfG3IuJXnqAGfz0i/vU45v8NOzq/N9vD+d7He+/8jrTqgFL+M33Yzw6KEWx1qHa8rjFedw+v2ty4yrfqGzmPRvOO8nfncpTX0h/vX/qr+59Cf4wH46PaujgKW92rzWJZXoyt/FVeFUPlGMXuyevOxy2wezS09HcH+vtIangLv9lHVN5CG16jbbHyHzQzH/zjZBV3az+BH/7BO34hhvrCiczxLfHNbTnXKS4fhf6GiPg1guu17L2I+Hvi8rfA28eivxwR7yd+G/cgbXmM6ksu8Is0tt9/X1ze+f09cfn3Q/9APPwitVvYBxHxgxHxn8fl/wBvH2vAuUJNK2OaQIy6ZhiWr2pDfaEP68MvdVFYxhnrozhV461qpcwZbwh+Tm0VD5bvWvM7qj/8Ypj8OMfDdclq1NUtEhbXTJDx45eF4JfWMKzixfYTdcbgXovjzWPYMFi3jEWueBYgZ8YP64FnB9Mznn04znNwbK6pmss8f6i1PHaWA8e69Pc479Lfy9Yfxor0GznjGCMe8orgc73hcp5zPJ6XjRvye0t8MRbOLxvvxkmNl3HGuG/ED9YK+WceuXZsvIof1jziof5yH44XNdRh83ywfUNxzo83q3Sw9Hcn+vsIOLANLhPLg8QB4wb8q0mCHxABbXmDZL4n8MFNFQeYN0Z88s0OixwHfXOuXOzfGhH/YNzePhaXb6L+xoj4v+Lyf4l/KT6sM1v4uAhwnCfA40H+0bg84f/tEfFvRMSn4/ZPfiMuf/P7VyPiT8blBYA8vjzPbFNgh2TE48M3gutJLUysV3WzxNYau5HZ+pBzXtSIZZtDzhPkGtcVu/HCF5aQY/bNNcHNiW2suN4Zh4jHeVkt2A1dVQu1geNc5trkx2o+tutOf29IjIx5C9d4SGYMe/Ev92Usjif7Yt4Ng31vCJYdWDkG5s058xjxpgP/toetxS4v1gFrjetma1fYrCV2OOda4Y0Lu/HIdcH5xQNdaSePmc0XG/PS39Lfa9Rf5puNcWb3gMwc/WU89mNNtuv89484FxvnnJdxYusq45nu87pg2Go9voWfAM4sf+aMa4tpQc1Hzomxc4y8frY+vD/OY8u8cP2w++puP2C29Hd7/dGOU9E3YojPcbvYFbbzd3zcvKr9T0TE/xOPi33Ln1+My8exfx9wrOZU+bG29yLiExHxb8Xlo9dPOda3EfE/RsS/Ssb2Esxda93cHpFj2fWtmgt3rY7GrfrdPVnpbxZbcXL6j6rV6LpyczwV1j0D3BxLf33f0l/ddy/6czXErp8S68TEtgrLuLh5Xwt2tO73rqE92Belv+0dvLfQmV8JyK8GuJb9EY/P6jtsNhUT+xl286/Gk31ym6rFJ+PyceRvJLFuZae4fDT5H4mIfyIi/u64vOrys/HwlQ8cF77aurVtc/9rIuI3x+X/+/5rEfGdcXm3+2PxtPanIuLPR8RnU1s3n5XNYLc+9BlZJ51+K8uvBh6BrTg5fde0vTUdzTMzp7P6y6965n0mgIt6FRixzI9xybGxvRsHvoJevduEsRCL+xFiMW/ux1oFPMZ3lxRWxdn8EKs4v4l6/FXeSgddXpxLfAcQsewMWPpb+ntt+sN3urB9w+BHZhGL7zbFAHY07+aHNcbxvoVYEY8/KdDNzzY2fNePzQ9iMS+rFZrKi7rei+3Gi5y3OPhnBEwH+C7qFvdoHSz9HaQ//H+yeeD4txmsDxOhbb74cUbEV1jV5mKYKZ9R7F+Ly/+//Z1x+WKsp7D3IuIzcflI8q+Py98Gf21c/kXRT8XlI8Pbz+fjcf1O734+9Q77FXH5cq1vjoh/NCK+KS4f9X6q8WX78Yj4PyLix95dV/Ot9BPBdZwxTOO5vdJPp9uKq7PWHI1mf8WLrXG15jFGtT8onk69u7rPmMuvGufIHlX1sfk4pX7Gj80BPu6wp3SdfRkXzIE+Ki/jkP0Y582quTkJP5ULx8s0jv3qDKv0UnGo5q/L68ZxOXXzu/S39Pda9af2YDbnzhhyXPYb+/FxxRn5VbVg/liXEWzmHqSN4bv5q/Kw9dHhqrysxgzvaAhNaYphl/4+jHlP+pOHguobMSU+JWoX2/k7Pm7eqv13xeXbkN/e0c8vR8TPxeXvZP9wRPxzEfEt8fAFj1zLj0bEd0bE74/Lt0v/mTsYA/58+d14vlXMw0swd1zVej0qx7LrWzUXbC9z9reur+p392Slv1lsxcnpP6pWo+vKzfFU2G48S389J6d/6a/324O9hv5cDbHrp8Q6MbGtwjIubt7Xgh2t+71raA/2RenvTWg7xeNn3ewVPwe/JRy57l6RrV7pceI6edgrLxj3N0TEd0XEvx/H/FueI+2Dd7/P6UfZifzck30hIn5TfPiudjXvIfo3nzynuR2xpwLT6a/DjmizyqOuZ7CqjjgOh6ODVZxH4rrYkTlga74az4z+MI7SZMXf5YV5cxtyVTEVpyqvM56KfxcLTY092+ir6KpuDrbKW81lVZduXNiWTY1j6Y/H6WKhLf09bst2b/rDdmfvV6a4OjVzMFVtXI4YR52Tjjnjy76ZX4ep/Ec4Yix3beL1yH6m1o/Ku/T3IfZe9HeYneDxKR4nZm1VHBdTxUJeo/j8+ONx+Rvgn4jLO69P/U7pS/z5iYj4nne1/mjcSLyGjfDYw/m1YV+Lsf2R9TFc9q+wbO90r/dgse2a2Aozg2XX3ZlTnVHq3HPydrlGOI5gl/6W/pxcz1V/bH5YHMyzF6s4zmLZteLoYkc4zmBH81b92N7NfaWHTkPV707XR2po6e8g/bF3gE9RvxIRoq2KcWvsaF9nDvZ74vLx3K+azLGM2zki/teI+C8i4j8M/aoRvtJX9TnYCP7KUTbm7+rW4d5xVrwY5y52hWWc3bzYNjvebOrVR1cbFWdHD06OI8aGvJjfUVhmI9g9r7I62D15nVfBOz8Hm3lU+bvrymcGq2zpz8cu/b0c/blW1fRorDOXzlhcnaq8I9g9eV3snvXc5XWxI3pm2Bket8a+Sv2x/+OK36TnfOPsCdrewu8TaVOm/NTNa8XL7cs5mJ+D/cm4fPnUNxi+y3z7/yLiv4+Ify8+fId9s+0x+5bAt/FYM8yPfUvgmbSzb8Y8pxjn5IvGsJsvjqfjnPsRj+uswmauJ+JbrXvsr/JuY2BPWtm3QirOb8GX5ehqyfgiZxWD1fko/QX4MF3lb6jEb2CssHiz+obgcn+uM2JxjrPlPoVlnDeuW3vFucqL2HM8nlc2ZqarnDfHQcu+p3g4BjUexGGtsk/msLW9hT7FCzlgzqW/h7yX/h77vFT9sWvku9Wl6j8K+yYezyX25xog//yb6W/DsrEj5xFsvkbs24Tran4ifQF+EbxuLC7mrebLwSIXrHmFVXOJ10t/T6O/OAXfAJXN+lZ5TvB7lIODzz7Iq4pd5c6xviIu/4v3v4uHh9r62ffzxyPiO4J/gddrtT3jf+21u0dj+1G3X7I9r8Kyvtm8ag89Cst+X2u8Kp+Ky/xmObtt1fnW9Y2cjSqvG3fpz4tbxeniMr9Zzm7bS9SfE1vFV3ZtrMsZ+66FrWwPdiTGHu4j64vhmMZmsYrT0t8V9XeKy7Pgc7ruSJ1Fu5uHxT2n385mixwcTjnHmbS7sRC7XX8xIv5qRHxfPPx3Q8vm7P2I+OGI+Evvfn8Q/UKZseqgnMXu4eJsVG67y8fJOxLzqedj7zywmHt9GGb76fYKNa6MxT53T8wcutrj3ldhGSfE4mPXWN3O0D+Cxf58ViAOsTiOkfND9XVn7wnaUAfVGRvgt/S39Id9L11/eM9bnamoFeyfvSfpNMJ8subVeKt+1sfGhH0Ky67R3LXJ4jhY9HHXtdId20/YfKi6sfXAsEt/D3GM19X1lwdaDUiZKtTWxpI7B07GMrErcVbFVAUM0d4VF7GnuDxR+/6I+JH48BuYl83ZF+Lyt78/EBGffdfmHpSOqU2F3Xy4sdmaqdYIwzvrw1mb2Y8Z25CrQ0nlrm5KZqyaD2ezc31n+Tj74UhsPDjYC3VqH8W8SrsqJ8bqXhw8ER/FabvO3KqbhioOcsy/u5sTrCOaqjmbD5aXcWTzUd2sdOPNdXTOpG68OcfS39Lfa9Mf47G1dfeQ2Jb7qvHuvTfAHN05zPzY2E6hubF7a6U/pQt2L49c1Pjzelf66/JiPOWTa8H2mYpznuNOQ0t/D+Pdg/5kQVXfiCmi1YbsYDt/x8fNO4L9yrj8z92/HU//8eHn+vPzcXkn/ROh/3fxS7SRjehI7LKnsWouuoPKxY70u3uy0t8stuLk9B9Vq9F15eZ4Kmw3nqW/npPTv/TX++3BXkN/robY9VNinZjYVmEZFzfva8GO1v3eNbQH+6L0x77A4BT8lQy8ruwIbIdR/ax9JH9nW/FUvPfi8vfA/3JE/O6I+PaD8r4W+2JE/Ddx+dbnPxeXd9LxVaQsaPUKE+roFPrVtwobpC+a/g6bjfHv8jJ/B8tyO+PJ/aO1QCyrTzU2dT2KrfJW41PXM3krbGWun4tn76ioPOrdl5k2lXfUt7Nr5j0qltJul3dPnZf+lv5Y32vT3wjuKA3MYGc0WdV+Buuu3VE+Du4e8o7GuuY+cmvsi9df9S3Qb1Pit6ndMRd7gvZ8k5gx6LflcNs73ixObs/9b+Mx5+xzjsu3Ff9yXP5v7VfH5Z3MZZ79L3H5l1J/ISJ+IR7qYPudvzku4vGTj80nfysk6iHPI879G/A5kbbMo8Ju/NS73ZkT8mNYNt63hR/mw9rl9dnlxXU8isX5YGtKPdlFHbC8AY9VXsR2OsixnflQeXMcVsds59S25c1t2+Nzg90OgJyj0kNAO8s725bj4jjeGvEyV+Tv5mXz7uZ9A4/PEBtzRXjjRV0z/5H5wG//RL3hvrX0t/TX1ecl6Y/54Py8gccqfm7LvoobM/TD+Yt4PJ9srqq86j4AsWioFTa3DJfXtFM/7EdOOFddvOq+h811xiFnVis1BoznanTp7wn1x54hn5r+Dt/FUhjW72Ic3w7f9Y34fndc3snEyV8/+uf3RcTXN7U+xeM5dzSotOXM6bWx7PresGjXwo7M5R6seuxiFR8X6+Ay3mljfe7+zvY6N69qU/vnDD9mo3VBP4ffbF7nvBr1nanV6Pw6PFTbKKf8eOlv6U/Z0h+3pb+lv6pt6a/w294Bfgud+RWIUzx8RYbZ5uv042801t/xQN8qfoU/xWNcd131/XBE/E8R8Wsj4jNx+fvgZdx+KCL+UFxeMNi+9Gqbd5yft/Gw1viKcoD/Fiu/qqawG+YEvojd9Igcs1XYgLxb/0jeo7BviC+rVTY2/iov1inPRwCWzUc2hmVj67DI2dEQ24tm9Zdrn3/YfpT7cr1PApt98RrzqjG8AexmLC9iT+CP2Dym3M44Y01YXsSyGiI2xJi3uB0W5wQxuY9hcT9gOkC/nOMUj7mw2Bsm12V7vPT3sH3p7+XrD+c8IF6OocazPX4jsEx/GYs1xvGF6FfzU+mvwqIv1qLCMs55fjssy8u0ymJWc4k5Wc2DYCstMv2p9aU4Lf3dmf7wI9BYoI1IZ3mCMF4WoOpnGx6aiu/w63C4oWLMKg8eBjiWtxHx0xHx98blb4P//gm+L93+YkT81xHxvRHxc/H4ieFmSmdKGw4e5ws3TYVVj9WTLrxmXPCJlcIqjXaccVPP7eiv+OG+4OStNijGBQ8Ztq5UDtXGbgwrzlsu5OzMkcKq/WEbD76gwA4LPDRyH37cL8fEg3nrY9iTwOa5wY9tMWzmXGHxYGIfp8zYXDfcu/NHNvM6PsXj8Spd5Y91Vtg89jP8ZpwQi7WqPorGcmzxUEO53qgTnMulv6W/16a/7JvHihzRF7WgcmJNOyzqDbFo1bxnXWHsbG+IL47VwaIW8j1Ch811xrHm3Gxdq7nM871dRzxcu6fgedl481iybzU/bKxsfEt/T68/OYEn0ncq+pn/UVZx7HyuYSO5Nt/fExF/Mi5Pht+un1/9+RsR8W9GxLdFP5+n8HQ2q+nOOmwVy8nj6HzEbrkmZnLv5bcHP6uhPdgR/Tl724jPSIwOU5k6E2bW2Z71oGoze2YcsZZutR5H5mDpT8dY+tuf5171x9o73y4XxnBiV3GO0p9qH5mPzm/PfdlI3pm4M/qr4jDs6NiX/u5Afx+JD19Jy074ikd+tS3S4/zq5Tkex8KYs5ZfFcR29njWXJ4jubZXI/5GXN7d/ERE/MZxai/W/nBc3vn9gXj4iji+Mh7x8BXdbDhvDJvxAW3ZZ8MgdtM4u958K/0jFvNuvJ287jpTY2M415f1u5w7fiqW4tzVxcUyXzU2xnuv/tQ7Iyd4/KZoR155H8dXfxkuc3sL7WqeWH/On+uB9WJj7jjnuJgXx4Wv/DNs5ovcMC+bJ8adrQtWa+TexcV4bwtcHhe+Ss60vPS39Pea9JevWc48Xzge1s/6kJOKjXXcrjdjdY54XItKfwrLdIBjVfPDrjNW5ca5xLxqbWJMNpcMG/FwTkbyZl+2H+B8qfWz9Hen+ssDRcO3v0/kOorr3IY3fU5MjKdiuFaN1eGp4lR9aH85Iv5gRPwnEfEjje9Lti9GxPfHpRb/ZUT82Lt2fEKDhjcSnXUfUVGYa8XuLG9QOQ/2q7WmnqDnWFVdjzSVZ6RmuGHPYvfYnhjVeE/gV5mabxzjKFfEbnk6biwv26/ZemZYpXmWm43XraWqFeOOtWDYivsp+DhcfowLy1XVajO2Fpb+uF/OufT3svWn8oxwQ6zCjZxdqqYOF+XTzU/VNqqZjN97fiIXJzf2OfdLVdyR+81uz6hs6Y+3XV1/ozeXbrzq5g99nCfCLGZVPPYEm8VWcUf6R/q+KyL+WFz+1c8vxYev0Lz0n1+Jy0fA/1Rc/k/yN0ONuoVQ1fS52R7Oo08Ej8K+ZLvVfFwzp9t2jdzYXt20zmK7vorbKBbzdfVyOSism6fCKk630sDS39If4/Rc9OfyuSes6zuaw10PM1gn/wh2z5qciTfatifHvWNd37vUX/4WaPZRA3aN7cy2t8Dx4yib4ROjDfMG2iIexthi5ngsx1vwRzzGzm/ZI8fcf0o8z4Iv5sG+iIi/FZf/cfuliPh1cfmCrI/Eh2/Tv0T7Ulw+Av6XI+I/i4j/OT58Fzx/jAHnEz+WwbTa6XGv5XlXuU7xkCv6YVsXS60dhVXrkmmzs20s+Coq4+TsB06+0XiVH+5V7p41u//Njp991MfRBMO+DV5DFY99/OjBx4NIrLwm1ce82J6Yc277KObKOVmd8aNc7KNN+Xc1T5iXxc58kRPmx9rnXNmwtplXPlcUjs1ZPhPVvqi0tfS39Lf5vib9qXPQ0R9+vFPNe1VrHJNzRm3zyuYB/VDPqAk2JhwH+9gq88vjPSdfNvfOOY+cle5yjXE+MhZrkU3VgdUX8bmmOU7FFdcN2tLfjfXHnnBtgfB3ZZ2Pe+O9J8cRdo0cOeYptZ/j8q3Qn47Ll2N907vHL9X+SkT8uYj4d+LyEej3iQ+rP9bP+Uicau/i5+sO6/CqsDHJuco1i2V8Rsbk5t0zH1V+N9a1fPdyRGN1zXOk9hSGxT2HtSOWcet478FW3GbHW9XQ4d3lrbhXc6C4d3ExXhUXY7O6ROrvsNlv6Y/nXfrTse9Nf+y6m6+O0x6syxGNzTvjVGGZ7whWxVL4Lm+3Rty6Mfxo3srXWQdLf89Df+VGVvk4uOxX+Tt9bj6GOZG+LvfomDt/xuljEfGNEfF7I+I/jYhfjMtHhd++gJ8vx+Ujz38kLh/7/pqIeO/duKu6jLQtW/bczd1nZvbgCrNnbVX76V6sy2XP2I7ax92zZDbvDJadM3vGO9rmYpb+xuNivKW/2mbuGWf89mCPtlvmuId7sSM1cM0YR+VY+jtIf++JoPgqW8DjzjIWn6ljrgj+CkW+PoOfysE4dryVmHLe7VodNpkfjoFZ9vtSRPxQRHwQl49FfzEu/xLo18fzfUf4/Yj4qYj40bh85PnPv3v8s8mH1b2bP6aDLZZqqzSt+iq/znLe6pUplQtjzeZlsVWfO96uzk68W+ad4efmHeEXoTmovYVhWa4RbO5nfsrfwarxuljF382cTIvKAAAgAElEQVTB+mexozVVGkM7Rx17di4rrY1iu7xLf0t/Hfbe9efgnlsbW0sn4udgR7nsWSNujpE2Nv4j895qHM+p7bnrrzx09vidCEa1VVgVj/E5ET+MgX6srYpZ8VU16rAfjYivjYg/GhHfF5d3g78cT/9OrvvzKxHxyxHxkxHxpyPi98fl3z7lF1oq/ai6ONgu3h6f0dydb6WR2bxOzGvlPSrWtfLeuw7UHuZcO1iVs1tvTl4Vr8s9m7eLp3xYO8at+HV5u719Nu+on+LuxmPY6nrpb+mvyzUSj2Gr6xn9uTjFz9VPh92TF32r69G8nZ/yHcFeK++9jRfncumvz9v5Kd9h/a2/Ab5+jhwzT8YZ+jH3x+PykeE/FB9+fPie7YsR8cMR8Wcj4j+Ky7vZ78fjelY1Zn1YP4Z127v4+brDOrwqbExyHqmfi2V8Rsbk5t0zH1V+N9a1fPdyRGN1zXOk9hSGxT2HtSOWcet478FW3GbHW9XQ4d3lrbhXc6C4d3ExXhUXY7O6ROrvsNlv6Y/nXfrTse9Nf+y6m6+O0x6syxGNzTvjVGGZ7whWxVL4Lm+3Rty6Mfxo3srXWQdLf3euP/YEOIMxGG5eriksyxHCF3HoxyaCTfwe60SlcjnjwtgfjcvfB3/du5+vj4h/PCK+Iy7vqn5shPiV7AsR8dm4fLnVD8blY84/9u7ng3c/VT02625eKp2w+WY+OU+1+Lf+6tB3Fry7GYwsZpXX2VSr8SlOLI/a+J3NXG3OI3w7fLce1aaK8bq5rvYbHIO7sTMeDscOX/l1viOHi/Lv5kvFcPTu5nX5MNxIXnc9Kev2KOYbwmf0xgKxS39Lfy9Rf911xWkzJy/jEeHVNveze5HKV/l19XfrWeWtsDNrx9HfSL+7L+3JOxp76a/ncxX9bU+A8eYt4vFgRgwnQPWruKzoCqd81XWEFoKbZzRv197F+0Rc3gH+xyLit8fl74M/E5d3iT8TlyfD+Pfc17D34/Kk92fi8ve8PxURPx4R3xuXf2n0M3H5m+bN2IJQ89rpr/O/B7tXXtmeA8dr2Z6x37pu7vpgbTPYKq+79hw/p93NUfV343DzPhXWGY+LnbGlvz5H1b/0d7/6c7mp+rnYMPxGbYQ3Xs/ey7vYa+Yd0dneeZu931SaDNG+9Ofnu0re9RHo6+fAhbTZ6OGY7Vve/fzGiPidEfFVcXmSfG37bFze5f0fIuIvxOVJ74+Dz1E3P268kXaHj7vpjGyQDBuTnGcOgg7L+IyMyc27Zz6q/G6sa/nu5YimbjS3PrWnMCzuOawdsYxbx3sPtuI2O96qhg7vLm/FvZoDxb2Li/GquBib1SVSf4fNfkt/PO/Sn459b/pj1918dZz2YF2OaGzeGacKy3xHsCqWwnd5uzXi1o3hR/NWvs46WPq7c/05T4BnrZsovEbiVd+GHYnjYFksdbC4WOaHHKLxw5j488m4vBP8bRHxD8fl3eKvics7xZ+Ky/8bdu0XIuLvxOWJ7d+JiJ+ID7/NefuW6g/ecdl+HM5d2ywWTR2Uuf8IbKetUazquzdsNS9HYVmcbkPvsCM62IOd1Z+TT9XtCKway62wzh7h7vOKywjW0erMXD5H7NLf0t9TYo/Wn+Lj+Dwl1jkD1XgVVsXCx4jt/FWOUexI7W6JdWK+NOyL098bQrQz158lzsWJeFgo7BvpxzyKQ4XtDhfG48hDrRNk5fexuDzJ/XRc3gn+ync/H4+HH4/+6nj8cekvxeXbpj/37vr9iPh8XD7qvP38Qlze/X0/Hv5drzuOa7aN2CxuL/a12VPV+RZzdA1+1XrP12H4zbaNrrdrYivOrN+t1R6sw3kPFv0UdrNbYjN+6e9x/9Lf89PfSz6jbpln2Zwt/d2B5XeAqyd4rB/bw/BV/kdhlZ9zIFU5jprM7qBGjtXBlf3xscrxdXF5ovzRlCM/wXVyBLS5/EZvVpy2SotuPZlVuVkshp0xd22w6268Tt5uvEH6HSziXayreYcfG29n7s2z6ouin+Xa/HG8IfpYLsQE8UNeFQfEsXjVHsRwKhfjjvEVB9cYB8xT1b7io/Tq5FDrRXHA9oxx5sNdnxX3pb+lv4x9bvpTGnNryKzq6zgyDgozy6HSbVULx6pzuePYrXk3r9tXrcMuj7NndDyW/ry+q+pv/Q3w9XNUIs/9LHfFBycaMZhXtTmcnXgVdmRMo/FG2h0+amzV9aj+1dw5nEfq52IZn5ExuXn3zEeV3411Ld+9HNFYXdkNIsOzNZr7uoNVcet478FW3GbHW9XQ4T1yQ6bOy+4myb1JVPtux4lxWPpb+mPcu7gY7znrj11389Vx2oN1OaKxeWecKizzHcGqWArf5e3WiFs3hh/NW/k662Dp7xnor9rEmDF/1XYi/Sf46XAYg/3GOCwv5nY4VjHRv+tjsSqus1g33kvJq3CuuViHr4rljtXFuraw943t9kHmW7WN7GUOVuFZDjevwlbxj8rrtO0dr7tPPqe8IfyW/sbyOm33rIOXor+Kj9PG7Ogct2hj9hLyXmPO72m8R8d7KXUZzqv+D/AGwlfrHDvF41cccrzc32EqP5U7Gp9Rm+GBvtlUPZgfw7M47HrEqlfeFP+uLwg/bDuCH4tZvZof8VhjOB+zeY6Y29GaV/i9r+4xjlVtq7nvMN18jeZhfRH1nLhzX+XBfmc8jFf3aqrak6r9l2ErvXavtLIaOK/wOzwrbDYWR42t4p2t4sfyB2l3+7C/4unUr9JTlXvpb+mPcX7J+qtqj4/VGNQZpnwZVnGodIP8FQ+G7dZU7nP93fnqas7GU+GqPFVclrebjy5O11bxdvlttvR3gP7esMZmQKyI0fhm6zZlVUD0UdcsF5oqlisa9Hc4VRt0xb3qZzlnYrqcHB4dP4XZU4sKk3GVfhXG5VfdDHQ8R7Dduoqi39HkKNeOV8XP2TM6zXb6G113KkbEeK026/THDsru0FV8nFjVTcLIIeRgj8zL2rvrii+zo+ZDnWWjeVmu6vw6Ku/S3+O8rH3p72LPTX9sLB3Hrr3jPKK/Kr6DxTghfNz5ZvgOe0Te7nGVt+Os5sMZL/NXOTvs0l/dfnX9MYdT0TdiiM9xu9gVtvN3fNy8e7BVbbv+W2C7tj3YW7S9JHPH1c3PETmWXd+quXDXwmjcqt/dk5X+ZrEVJ6f/qFqNris3x1NhZ86Pym/pr+9b+qv77kV/robY9VNinZjYVmEZFzfva8GO1v3eNbQH+1L19whQbTZ2QMNUrJmYe3jc0tzNfeYQOOJQcXO4+bO/2z86tpF8Tkwn1x7t7hmfG28v1t1kXB6zm5gTy/GtdMF8RvioWF092E8V7wisi+/2iAp/NLbi7nJWuas+FzsT2xkT7onVPGM/20+P0tDS39Jfh793/SFHluOesBnXYZW5WDWXTq5ORw5WXV8bW63fe9HB0l+da1p/1QZWkVUBq0JW7V2u0fZu8O4kjHIYmbAOi30qRrXou/zOHHYLayRv9nMXKsNVuVWbM+bqejav01bVeDRvV3uVp/Lr6njUeBnW1dQIl5l1sbXv0Z/SfbdXuXmrQ8RdH3g9m5fFVLHVfDv7HsurHs/kVbG7XB1n5nPkfKi8S39Lf69NfypPx7nL02HVPCt+LA9ycLAqZ1WXSk+dVitt7JmPam2NYjuO+Pja2KW/mqPCsjwj+pMD22MOvvOpCt/1O+Op8h8RTwnXzccmz8k9kldhXZvFdot/JO9M/2iOPfGcjeQebI+G3Hh77B5rpuxaepnZU/bob+++OZvLGW+33x6l5xEOThx2vef8rXgdNd6lvz7u0t/jtueuv1HfPdjROl5Lf8rnaP1d03dkDMrnaP2N8pjxPTrPi9ff1lh9icAMafePwis7w+MqB8bqrlUbq8dsPBV/+8lt7I/KVX3yH3Yrvixv/p0fszp24q3ms/Pbxot51R+0d5xZHvXH7yMLGeON3EAwrLMmHD4jN4AultWPcVYYlqdaXxUf5dPVb+9BuMd3r/7YvuB+UYbCq7x5v3GxyEvlxXPE5cz2QIdP5YNf+KFyd/E77MjB7+QdjVeNCc/xpT+OXfp7Xfpj3B1f9vgIbMcpt1U5cxueQSx2F4tpYpZz5Vv5qJgdhwqvYqm43b0pzs0sZ8ZPtR2JfbX6w3+DhAHYE2NmOGD1LWzVTWz1jX6OddhZ/kdit8e4sNi3ll2jDXlt9pzzMlOac+Y2z82ojWDdeo3kvnZeNj4HOzIfT4Ud2bc6c/KyvS9Em3pCXbV364zlYP0hfFT7NfOiVXn3YCM4phrTXqziqvY7J2+1f7p5u/hVXua39OdzZrb05+dlflWNur15BntkXoY/EtuNIceePcdc7Mjax1hu3mq8o/w67Na29KexT6K/EwGp9lPRrzbdzhzcCX5fC6t89mCxjdVtJv61sM68ulhm18I65mBHYu3RvDtP94QdaZ/FuvMxOw6V4ymwo/hrYkfH8RRYFudobBfztWErW/pb+rs2trI99XfaR86YW2NPTfsstot3j1i0I7G3amPt94x9Efo7xeXZ8OirHttj9goDs2qTqnDIA31dLPM9Gqt8nA169NWl3KfG4QiRcXbjMc7Vq8RH5q2unfwzWBbLnWP3kGavYFV5j8Iy367uWX9O3qr9CGP7w0jdq7joW63LmfybL27i+Bg38DP0MSz2VQcHqx87WDDvXuwIZ8ThGnRr6FiHRY5Kf93hzPKouT5HPVbW5px1S39Lf9n3peuPjUGdZWrOjsJ212osGK96rLCVHh1sp+fRvDhutr6ducx5q3chO+yWm601B8v6Vd6lP953df11A5oxNsF4XYmRYRXmyEl2fUew2K4Egm2IHfFzsffeFo3fiO3R9MK+HOye/e5IfjMHiYN19q6KY7XP3RKr+ipsF2s2b2cjHEbPpVlOm3+Vp/NXvkt/vL+LNZu3s6W/+fmrODjtt8J2OqowI9iRvF3MmRh7sCrGLbCOzp5aQ3uwL05/WyO+mrG1Md8qTjZ8tzg/Zq8m5mv0Zz4YT3FQ71Kf4iG2elfyBNeYF+tXvaOuXg1l7TMCcN49VnmqeG5et696J9I57Bzbs3Cqti7uXr5KS1ubcxMWBNvlVdjRG5HRd5krrY5s6COfhlDYp9ZfFUftB8i52mdY7EpvuF8jD4Ud5cDyqjlmNxrqvGG5kHN1VlVYd705tejOBVdLnX7dOWH4pb+lv86ei/5UHauzbuTd/i5v1X6Ken67ue90i7mq+9UOG8V1xnbneoVV/Qyb1yPDjubNPtVvzNutm6W/D33vQX+PGqvNpjOHKItTCUuJuRI546Fid36qX/FGTujLTOUcEbaqrWOjC6qrYYd1fRV2tN6OvrucLrabD0f/1eNR7Exed5yVDiobmS/lt6dWM1btSaP6UwdNlXMvFvHquuIc0WMr3Y9i1RhH8jJcxa+K09Whw7H5CNLeYUdzLv0t/S396fl19ediOy4uttML4zmSl/l1Na50362jjp+LrfTs7gPV2FSbk7eypb/e75b6swc2Y2yQ229n8xrhVE1C1+74zGCdxaT6b4G1BDKJvUXbSzJ3XO6mvSfHsutbd1jhY2d/6/qqfndPrm4oZrAVJ6f/qFqNris3x1NhZ86Pym/pr+9b+qv77kV/robY9VNinZjYVmEZFzfva8GO1v3eNbQH+6L099673+qjwdjH7FT4sL4u7oaZwXYfH3I/FnUkNsfI/Tg+7FfYrh95IJbVVc1hl7fCzvqNWKUV1oePN5vBjuiX5e0+Jlfl3YOt/BTPvXVWMUaxmHezal66HDhWhlVtR9UljwMPjtzOPpaJPg5WzbF6XPEczasOYSfvTK3OxLfLm/uqvKPYkbyIG8mrajaLXfp7GHsk79LffN5r6W8Eq3xnsOp6JO/W1uV1zk28ZuvSzVuNgfl12HvJq7BMBx2fpb870x9OdFeoE/hmQswX+1gefIwbVsUhXzNu18IirsNGPJyQc3ChnMEXf7OYzgLE3IxPl5cJteLMuLr5u7Z8rRYzw7A5qBaKuolQY3Sx3XxWnJV19Zqpf6cDhWX9G7bLW2FZv1MfthFXcVQ+htujP2xj+mFcXN0ybGXIidWt22cQ66wdFhP3NncdV2dNt1epM0zxzu2Vbxej0melWxUrY9U6XvqrYy791Rhlz0F/6gxm9wSdXpT+tjbFq+LD9FflqHR/Ij4YD/OqsSFnFUvxzb/d85XlrWrK5kPpj40f78VZHjaPqlZsH1r6q/OqsSFnFcvW3wkazsEHnpOqhG5xK6v82IJhE6TiOPyY+LuDBbHITy1QjDNyI1315bmscjJ+6sm7ys8ObIZxaoAvTCirniB21uVV8RT/Clst3orLaK1u2Rbh8VN2JJbZiHYrbPeEeTS2yuHmqvTH1oJz2GYsO7Qi+L6UbxKC+LEzReVVORCL48kcWN78G3NnDu5+VfFn4z2lnwqb87L5YJyVqT2R1WokLsarsEt/S3/4+J71x+KpPoVVMZQfsxH9bdeKs9J9xzVjHa7sN3ussNU93AiWmbqnreZccdnanHl11haLsfT3EOtwPUR/b4QTbqad4JwBj9woXivGU+SoDtLc7xzW2Bekn8Wr2hzOTrwKOzKm0Xgj7Q4fNbbqelT/au4cziP1c7GMz8iY3Lx75qPK78a6lu9ejmjVjWh3OKknFYit8jJuHe892Irb7HirGjq8u7wV92oOFPcuLsbrbha6ukTq77DZb+mP513607HvTX/supuvjtMerMsRjc0741Rhme8IVsVS+C5vt0bcujH8aN7K11kHS3/PQ38P7JR+lHV92K/8WXsV28V2MVx+Mzy6sTq50PdE+lzsaG4n3nPFHqW3PdyO5uK2VZxd7B4ue7FHzuW1zdEfW+PKH/fkUWzFZUTXzr6kdDODHakj9ldjcNZCF5dx6ubD3ftn1qiTY+lv6a+z16A/Z/7U41tg2XjxRxnzGcUrLp2uq3yjWPaYcazyuhwV1skzilVjcfqX/q6jv7YYnS/DKjz2d32dwKtJZdfVYmN5nFjVQmB81GKuzMU6eZ2N5Rpt18jr2Czu1raHX7cZ3jKvi7n1eK+V18U4m/doP1tbbozugOj2cIzD+Ixg3bzOmLv20byKg9OO/Q43bOvid+epOx8jsXPf0p/OoWIv/dVYp39Gf3vmcDaPg61yM42P4h2sOz8VP+XXaQT9nHp1a6Gq28g66rCznJf+apzbNqW/raF72zgbe9sYMefkx95Cz/0s/hmutxxn+EE+GJNdoz/jiTm6WGdoy33dQqos+2Iu1ufmUeNSc+JYhe3mimGdeJt1G0gVy12o1fXoolaLla0VVz/dR9Iq7Ege7B/hvGc+Otv2hwo7kreK4XIcGS+7QcQau9pkcVk72ug+kmOzNV5Zd5PRrS/Mi+Nl+2R3COPcspsHdUNR6c8ZK3JzOCInxnHDsMeM49Jf/Rjblv6ep/6UsdhqPCy28/FNxLI6st9VX6W/zhdjB+nv9MesyqNwnf46HXT66+J29dh+s5hqnirOjAfjlW3pj+PRWv11kxHhHShsU6s2qW4DU5sgi+0WsLse4eRgWW2rJ9YjL0Ig1vVHrKpH94S0ehLgPrGt5rjKi9g9tieO84Rz1FTtmZ/ThvaUnI829oJUdfAdleca452JV63VLodaq92hqfK6tVfYKl/GMj9Hz+7exOIqLHvx05mP6sVAd9/tXlCs8o72KVv6W/p7rvqrYjq42fO38nNqOXMvPoLNlnnumbs9Z+W1NeXWauSeac94l/4+tHvQnzT3GTzz7+I68aocs7md2N2T4tF4KsYeMVdtLK/b1sVj/u4LAw4XhXXs6Cd9L82OWBu3xh6dz9mbrpHXwbC1wPyd9TsyztE1OIvt9v2RPcXdc7q+Lq9qY7GdM6g7Y/ZoaOlv6c/xZz6vWX8jfS624z4T90hsp7kq9l69VjFntHSU/pw+d+xLfzX2qfT3yMkNfjSJbqIcrBtPxZhdODMLYxTrbPIdFv32LBwHc4QORhbGU9lRvO5hfHs2tplcR9qeQxNjqOsj7RR1vbs9tloj7hp09vSRvJV1exPWo8ur2rociGX5Z3I4NXf5sf6R+WDxWN/S3+PYS3+8/6Xor+LTPVYxq3mteHRjZL9zvzM3bm7EKLxTp5Gcyme0ZtVYqxzOOBmvbq5G+Kh4FQ/FbemvyTkiQvUWOX4MqPvI6sxHdLYYM293Vx/vQdtyjGC6/CyHM0EqdvdRstGFn8frxugOM/bxVJa3ilt9xNXlO7Jh4LW7CebHav6rDYP5VvPZ1X7kuuPj6n/0wMD2mfFWfpX+VExsw73raI6OT87dHaJunzqgs51Fn/NxLMQ6mts0P3uTUJ0VbD1h3mp/UtpRmlYYdpOg4uJ8VeuwO0+6s2bpb+kP4710/WEt1HixXkwjXa2q2Gou2TxVPp3+sA/Hzjh19zIVR1a/Sn+Mkxofmy+lsRFfNKyFo79qfaHf0t/96O9qNpKo29grITv9Lq+O8xHYSlh72xiX14B1bI/wb4G9d34Leyy228Py45E9rTp0qrzK7ygsWodlvkdjHT+G6Q5VB1vlnR0v4zSCVY+X/q6DdfwYZunPw7K8e7Gqts7cs76OX4VlObpYnV6rPjYvs9gRTkdynok7k3cGu/RX9x2qvzfCoXvn5xT1K5xbDOaH/ipe56d4Kf4dtop5xB+25zFhW5Dr6jGLzXKpx05e5x0wFUdh1fVsXtdXYXGRdL7XqE2Vp8OqNaNiKI4jedU7oW6tsi+OIcCH8WX8VUzly65n8u7RH+Yc2SdGsJV1NTsCq3Q4m5fF7mpaYRVHF8v6QvRXfUfkvZaGlv5qDkt/z09/zvlf+blYbFNc3LxOjtG23H5EXdT57t4TzOZ1sK89L7NXqz/2BBhJYVB1gCBWJa3yOVyU7ek/CtvFyZgIXdsqjzocVO0ZFjlU/BTnClvVapSzE7s6MNm41WM0Zy6Rh4ub0U0VY/R6FLuHs9r0mF83NzNz0s29wrn5ZvRX9TPrNnzkXB0W1QGBHNy8zK8axyiW7RkK28Vj+6jqU7Vz9uJqnx+dywqbY2xW3QA4eVnspb+lv5esv1Hr8rJcKq+rmRksxlCcKt9Oj4jdzNWOwrI8XU1zXhZLxYzYNx857+xcjtjS30H6Y42nom/EEJ/jdrErbOfv+Lh592Cr2nb9t8B2bXuwt2h7SeaOq5ufI3Isu75Vc+GuhdG4Vb+7Jyv9zWIrTk7/UbUaXVdujqfCzpwfld/SX9+39Ff33Yv+XA2x66fEOjGxrcIyLm7e14Idrfu9a2gP9kXpT70DvDmcw7MNh49Zf4VFDm7+ezU1hlxfNl5sG6lRFY/lV1iHH7Nu3ma4Z2MYbM+Yqo5dTucVRQeLhj4jmnc05ZjSFLtmm02FVdw2nKMfp6bOGBhfxc95t6LDsrydrrtXblWsyi+PA/OxHM4rrNXaU+sBc3d7EuPivIrd7RtO7uqVYidvh+3q5+wvuX9Ur87YnLalPx5r6e9xXoZ5av0xjGPV3LLYlZZHeHR1dmN1/KsYXV4H63BnZ36nrypvgE+nHcZJxd3Tv/Q3FuNq+jvB786Yn8J2vqfm2rVRTOc/w0HhnBrM5q/mjuVw887U5wgus/xm52svdo8dMe+3xrrx7h17tB0xjmovdNYj+ndY5cuwar2pnB3GxVb592BZnM63y4tW1ZXx6DiO+FdYxhP54vXS3+NYS399rHvVX+W7F8v8HI6OLk7xOA7ydLCdL+Nc8a+uZ7EsBuM5gnXXIvt9NHbp73709yhpdd1Z57+nf5TLqDnx9/LrxNPFdv273CqeI26VV/WpRef2d/EZ1xmfvfqquLs5nnJ8o/qbsb38Ku3tyX2Ezyi2WiuszcWqtVVhK373hO1q5vpV2I5fbnPyzeR147rjHM3bcVn687FV/qW/Hrv0d5/6c/M55+KRcZf+lv66voiIeK9JiB9hcXwZpuvPpvpH+FzTKg7d2LsJrj5mhL8rQbCPY6n6n8ljJSbsR874EYOt/0z6Wd4IPk7lq/Iwzuwa29jHyZxYbJxdDjUWNMWv82XXVQ7ko+quPl7m1Krz63xGx6bGUOmg01CVZ1R/3ceGcly2riI4nq1/xCocGwP6qPZZ7NbXcWZxc31cbTJOmQPjo3ijKb102GvFxvle+lv6U7hrxL5H/XW8kEPF7wgsu59SnBm201+XF/uPwCrurOYqrsrhcMI1WsXrsEp/FXbpj3O4R/0dZopwJ2on1tFx3A1/LxY5I76q0Wrr25YteymW9wbn8J/Bzuyrrw3rxB3Bjp6DT4ld+nt6rBN3BLv097hPcbpnLOs7GuvGHcE6OrhXrPKdxT61hpb+0mP8EqytQ73K5z5jHvEdyZ1/b1a9q6NiBPgekVf9ruJtbTGADYKreOzBzuRQY2C1w7GxuWF+ql3VtYrljsGZk4qjyl+1jdYfffO1w29GM05cJ7a7/hRO9bnacmJ2mFH9RfJR+wD255idH/qiqVdL1Z6HWJa3wnbzUY23qqeqjeLdYRle7YcKq2rX7YkOVvWp+cjmYpf+dC60pb/nqT/V3+nPqY/KW2la+VVnXodFbjnOCNaZtyDXVa4u1gw2t2Wr9gonXm5314HbjrGW/vo2xXFIQ9UTYHZTp6zzcWJ0dkSMp8ihBMM2cSYSxac6YNhCVW0OZydehR0Z02i8kXaHjxpbdT2q/+5mys17FLbb6Lpcbt4981Hld2Ndy3cvR7TqIOsOYXVziNgqL+PW8d6DrbjNjte5Gai4OTc7ins1B4p7FxfjdTcyXV0i9XfY7Lf0x/Mu/enY96Y/dt3NV8dpD9bliMbmnXGqsMx3BKtiKXyXt1sjbt0YfjRv5eusg6W/56E/6lhtbnvsJB6P5FR+M5wrDqzvlNpH8yFexajaGNaNt8fvqbFYtxG7lpaXvR7boyF3v0L9j+yP3b4y0jea18UekVftFW5eVidnbt29u9+ZNT8AAA6gSURBVMrj8GN9M2fUtfOiLf15eZf+jsmLNpq3u9cYjcvmZyRvp4ujsG5cNoYqDmKrmnbXo/Mxm3evDp4qL4u79DcxH1vjmTjiK3UjVhHJcbe8bgEyjvlUrxyoorOxV4U9pzyIxQlSXCo+W1yW1zHnFWNVb/VKmxOne+XFxW592FbF7/KpmszO16hVeR3fyqfjNTMetakxnNqIuo1M8ejmQeEYdoSzio3rwNmf0BiWcXTfKXEORbVeMI9T58wf14zaHzodO/pT+yAbD2KdPDkmYnGsaj6cNYLmaM89N9jvar+rsEt/D/Ms/dXY56w/ha2Made9P5rJy965c7EqL/aF6Hd1XJ2HSksj+ut8R+4LcU0j1t2XVF6li6U/3Rei/yb6w49AZ0KKuBJO5Zcnrou92czb2iwfxgrDz/2Yg4vFXN2T2RFfhtn4VH6qzdkk8nUIf2dxqo8+dL5VTUe05s7RSPto/j3jnZnLPfpzOKu5PILzjP7cNVTxupb+mDl7jcKpuA5WrUfEufwcrNpfOx7d3q7ydvu6s593Y+nG5dRZ7YvM3znbVF5mS39Lf69Vf057FaubA0crym8zNq8OlwjNo8Kz89bJ565n1s7G2+VX2CrvHnzHmcU94sxf+vPyjeiPNp6KvhFDfI7bxa6wnb/j4+bdg61q2/XfAtu17cHeou0lmTuubn6OyLHs+lbNhbsWRuNW/e6erPQ3i604Of1H1Wp0Xbk5ngo7c35Ufkt/fd/SX913L/pzNcSunxLrxMS2Csu4uHlfC3a07veuoT3Yl6o/r9P0YRuWi1PYPdYVQeVSBWRxHD+1kbuLkGFVPBeLeR3/kcXvYlW+CltppdNRhx1ZB46WnPiz68rBH7Gubo0d4TxTk85vz3y43Nn+oTRf6X90zR6NrWJ2jx1svnbXjxNTYTGny5lx7Xw6rhWOYav9a0YHS38Pr5f+Xob+GF9XN0djnfGyGCpvxDxW6XMEW9W7iqdwbr5q/h2sOx97dKDwDnbp71j90U5FHh8rohWRKtYoNvtUC0e1HY0dWYQYs6plhVGiUHEUF4yHuRysamP9I31VfdF/j6k4qrZVzau4bl1H843WocvT4VQMl/do3Ub7la+zp1yLh8I5OdU6cPbY7lrFxZhVXrWHK06KD1qXx9mzMB7DspxO3dTjPePteLBY1Tgqngy79OfxX/p7OfrDPlePFacZ/alrNl72u+LJfJVenLwsh+tf8WM/bl7Fv8rbrY9Oq928L/09zn0v+qPJq99dn4tRNio2FaMbtCNKlWt0USkOVbyuTsynyjni63Bx4imr5tjFjdrIfMzG25P3FvyOzvuS52NPjpG83dofOWwYpjvQqlh79nV3vM6Bq+LMnFWMR8XPiVfFRMzMeFX8pxjv0t/S3yi/e9OfMpfLLbFsvN08dBqv8mK/uzYrbLU2lY6r+a04HD3eqrYM22GW/uq82H81/eVG58sLzsSf/bEy68e2ylieHONMHrMYilOVB69VruoxG3uEFgdaV58Nx+pexcV+hnX+QF31q/EybDXHKpfi3B2CI9YtcMZlNI9bvxGsw2OPXpQ/49xtjjN5unY2tpl8XR5nvDP5cZOuvrwi+2Sskw/rlHGqfuycUJwrbPapxltZlTP74Hmm8F0uhWW/u/q546sw58JntqYddunPy5l9lv7uV3/4e/ZMPQrLal2dMZXf1qbuTVheJ4/CunVkGLdvDwenVh1W6U9hHQ5Lf3egv+pboPcaKwIrCvu2MvRV3wqXr5VY1be6KSzzq8bjcGZcO1+FxbaK52jeET+Vl2HVgqjmocqLudFcv5x7Bqvy7pnP2bV3C6yrN4W7F2yHqfYQN0aHZXlCtOU4zl7qYNVhUe2Hqk3ldziP5B3hjHn3jPdobFeno7DOfCz9+XmX/l6G/kZyV5q5NXYP5xHsvbdFXK8uas6ujR3hzGzpb0cbK9BJ9FW+7PokMCoPYh07AtvFc7GjcZ163rptD79bY5cte+529D7D+rv1NLoPXhPr9D0V1j3PXkreo7BLf8dgl/7msCP3pPeIdW0vdnYu9tybjT6nGMVWeWee38xg70FDS38CxF61VOa8G3IWjytf/D3Cq8M6+XMOFq/Dqr6ZhVy98t3Fqfr3zG0Xz623m9d99arymdnc1AKurkfnolroI3mPwrqbuep38+6Zjxm/Iw7NW3E8xeN5yPvRKeo6Kqx6jHmVdX1HYDtO7BCvNHYKvn8gtpvb6uZhJBbzVbFVXHZOqbiODrpYmHvp72Hf0t/z1h9iq360PLdHYB3+7CfI7+0x5lFYZ40ofs743bysLz9Wdeuw1RpiXBmW6Q/Xw+waWPrTdnX9Vck3c554MR9nYFW/yqcmoIvD8o6Ip7qu+vBJ+Zm0OdaJWfXhY9xQmFVPSFU/i+s8kcccOK9dPGXVRpcfI5+zaEfDj5+5i3rzVzdII3mzOTXp4lbXalyjnLt1peajs6ouI/scziOrg7NmO/2hvvNvdWizvkh9SpPqGh8rDVc3oErHAdfdPCO2i4v9Vd0UFn3V3I7ULcfD+ciGNa32IbZHKK6dDjK/nHfp7yF26e/l6s+du3y/puZTjQ855Xqpx/kaxxPgh/PTjU9hmQ6qtcLmHrFYP+Q0mjfruqpbHivqSeVlsaq4bK1VeRl26e9+9HeoqYnI10ckdfKovlG8ijFjuGi6to6D28b6juAyGu9k+o20KY73ZEfze23jPcquxWs2rtKzE9/FMp+9e446jDss6xsdm4NV58zs/lLlVTdEDtbJq+LkNudcHR2vk9fBMp+lv6W/I/I6WObj8K3yOnpT8d28I7mfEtvNw968XdveOrvte/Iu/d2p/vBLsDAQe2UAHyu8epWwwub+GWzlN4OtuMxgu7o5nN247jiuWdNb5Z2pyXYdV+CWYzo5Mn/0VWN1ubjjZXkrLorzSE1v1YZ8jpzf7LdHf7hJV7VVfrkNeTHDHGxOVU7Fn71qPJOjw1Y1UXFV3urVbMS6eat1wnIwXVScVV41ntG4S39LfxVnlVeNZzTuLfTHzKlVhXN5OzwY1uU0Mg5nXkc0ivxH5sDJ0/F3OHe1YGOJBt+tPceW/up8V9Ef6zwVfSOG+By3i11hO3/Hx827B1vVtuu/BbZr24O9RdtLMndc3fwckWPZ9a2aC3ctjMat+t09WelvFltxcvqPqtXounJzPBV25vyo/Jb++r6lv7rvXvTnaohdPyXWiYltFZZxcfO+Fuxo3e9dQ3uwL0p/b1hjPHzFY9ZO8fhZOOZSeTqsulZ9+FthI+bzKizLzbCbVa9moc1gT8TvqfKqV4ZZvu4Va8R1dd+DVXUZwT7HvEdgR9fGNfOyeCM59mDVOtzMeYU1hM/Iq7PPKS/bY47MW+2L6hX2Eeyt8rIcbt4Ki/0hfJb+5vIu/dVY7A/h02FdU/xV3qM4dHWr4h819tG8R9u95N3rdzSXpb8D42Ng1TdjaqPbNtOc7wSPEYt9mKfikPNXWOQ0krfC5jY2poxVMSqxjWBP4K+wWLeIx1oZxbK8aiw5n4OtzJmXbGxNuJvQCJaZM5csZhWfac7BdnXDPicvriOFdfIyn4pzF8sZ44x1/Ny9g/1me2mHVX1sTWP7ZtWa7OYU+5y9oNpjVG2qvGpcFSfVz7ix2I7WKx92Bqn4Dqelv5rX0t9De2n6qzRTxVfnOcvTcWNcGPYcjzWv8quauGukWmvMT62Fkbqwa8zr3sewvaTihabu9dl85H722G1b+tNcbqG/mxo+oXKfaJ8aX3wSXT056foqjlUe9nimbTQes6Pzsv5rYWdqymwPPzce6+/058SY6Z8Zr5trdL128ao2t38P1sXtqemtx8v89szXHg5H5z9q/ez1H4l5xJrBmNXjI3It/e2Ls/R3XJ6RPuWnMO7efIs2ZqyuezR4y7aZ9T9yzjr39k9dg+fUxuxV6O89EeRMflfW+eT+6pl5Z84rfcqv6sdXL7BdYZ1XOdBmDwj2SouKf1RN98Tdk9d5lS8/drmx+VVYbK+ut8dK0wzL/BzOIzZSF+TTrQU2foV1azzK2cnhYLFtdP3Mct7aHH/c1NU+sOmQ+eC+jlZx6/af0XGx3IybGgvmVXqssBXvLm/FXWld5VaxczwWW93ssfGrPWfpr+a29Pfy9MfyV7huPvdimd6yP44dfat1VWEVpxGsGkPuV+NTc4sczgO+7Hd139bFYli1Dhi2mkv0Xfobx6ox5H6pPyWYHKTbJNWGmw2LymJUbdWh2cUZsW4cR8Q8Q1t1WFWLTG0Ko7yYyJz5RKuwJ9Lf5R05sBVfZz5nsd0cVrGUP9tYGVatF2e8e9dI5sEeV74z62sEo3RxIn1uHnbD5s5nxR0PL4Zx9VvV14mfD9CKGztUK2y2Css4sxiMc4eZqS27yanqtlk+p3CcFc9z9ONRN18Mi2PBOPn30h/nzGIwzh1m6e9xnPz7qfRX5UENIXeMvxfb1a7qY3PCeDjxc626+4mqjt15W60rZdV43DGyvcTBdk+kR+q09KfjP6X+dt0YV0+OkcwJ+pSv+0QZYzoY9cpCleMIYzxd7i624t/53WMOt1azdg3dz2LdeHv8rqnvUbsnLk9lTg26fW97PLJWHW2MYLFPHUIj453BdzUY3fuPXJMzeh89v0bzLv3VMUbxS39jee9Jf66NjEdxRJ+jz+prjHuvVWvzmvdhVS2Oyjuq8aW/29sj/eWPQKtX+k5RPxOvjL364LxSyq4rHs4rtqpNvapzlGHMWQFUr+gwzqfwX02p4lR2hDZU3pFXjhQPVnvnlUam++q6i+tqYDRvl8ft3/iM1Koav7oeqb/DufNzsXt99+oP9YB1PcfDOWLtiMf5qdoxL+OG61Vhu1qNcmYx2N6n9Mhiduuv48NwjGvWfce9i4uxM07Vk3FY+lv6Y9y7uBg7456b/ljuar66/g6L3Bg24xVHFgvPVsYJrfN1xoC1UeNxTOkzx8f+0TohtuLQYd11cIa+pT+e58n09/8D79VmLxSjFrwAAAAASUVORK5CYII=;" vertex="1" parent="1">
          <mxGeometry x="191.87" y="468" width="110.26" height="58" as="geometry" />
        </mxCell>
        <mxCell id="SN0OyLthawe4mrSYnxWe-15" value="Send predicted data to kafka" style="text;html=1;strokeColor=none;fillColor=none;align=center;verticalAlign=middle;whiteSpace=wrap;rounded=0;rotation=0;" vertex="1" parent="1">
          <mxGeometry x="248.00000000000006" y="383" width="97" height="30" as="geometry" />
        </mxCell>
        <mxCell id="SN0OyLthawe4mrSYnxWe-20" value="Get predicted data storing in database" style="text;html=1;strokeColor=none;fillColor=none;align=center;verticalAlign=middle;whiteSpace=wrap;rounded=0;rotation=0;" vertex="1" parent="1">
          <mxGeometry x="755" y="590" width="115" height="30" as="geometry" />
        </mxCell>
        <mxCell id="SN0OyLthawe4mrSYnxWe-21" value="Kafka send data to database" style="text;html=1;strokeColor=none;fillColor=none;align=center;verticalAlign=middle;whiteSpace=wrap;rounded=0;rotation=0;" vertex="1" parent="1">
          <mxGeometry x="291.00000000000006" y="661" width="97" height="30" as="geometry" />
        </mxCell>
        <mxCell id="SN0OyLthawe4mrSYnxWe-22" value="Send data to client" style="text;html=1;strokeColor=none;fillColor=none;align=center;verticalAlign=middle;whiteSpace=wrap;rounded=0;rotation=0;" vertex="1" parent="1">
          <mxGeometry x="763" y="196" width="115" height="30" as="geometry" />
        </mxCell>
      </root>
    </mxGraphModel>
  </diagram>
</mxfile>
